STARTFONT 2.1
COMMENT
COMMENT Converted from OpenType font "Ubuntu-Regular.ttf" by "otf2bdf 3.0".
COMMENT
FONT -FreeType-Ubuntu-Medium-R-Normal--39-280-100-100-P-207-ISO10646-1
SIZE 28 100 100
FONTBOUNDINGBOX 141 44 -6 -7
STARTPROPERTIES 19
FOUNDRY "FreeType"
FAMILY_NAME "Ubuntu"
WEIGHT_NAME "Medium"
SLANT "R"
SETWIDTH_NAME "Normal"
ADD_STYLE_NAME ""
PIXEL_SIZE 39
POINT_SIZE 280
RESOLUTION_X 100
RESOLUTION_Y 100
SPACING "P"
AVERAGE_WIDTH 207
CHARSET_REGISTRY "ISO10646"
CHARSET_ENCODING "1"
FONT_ASCENT 36
FONT_DESCENT 7
COPYRIGHT "Copyright 2011 Canonical Ltd.  Licensed under the Ubuntu Font Licence 1.0"
_OTF_FONTFILE "Ubuntu-Regular.ttf"
_OTF_PSNAME "Ubuntu-Regular"
ENDPROPERTIES
CHARS 1194
STARTCHAR 0000
ENCODING 0
SWIDTH 0 0
DWIDTH 0 0
BBX 0 0 0 0
BITMAP
ENDCHAR
STARTCHAR 0008
ENCODING 8
SWIDTH 0 0
DWIDTH 0 0
BBX 0 0 0 0
BITMAP
ENDCHAR
STARTCHAR 0009
ENCODING 9
SWIDTH 205 0
DWIDTH 8 0
BBX 0 0 0 0
BITMAP
ENDCHAR
STARTCHAR 000D
ENCODING 13
SWIDTH 205 0
DWIDTH 8 0
BBX 0 0 0 0
BITMAP
ENDCHAR
STARTCHAR 001D
ENCODING 29
SWIDTH 0 0
DWIDTH 0 0
BBX 0 0 0 0
BITMAP
ENDCHAR
STARTCHAR 0020
ENCODING 32
SWIDTH 205 0
DWIDTH 8 0
BBX 0 0 0 0
BITMAP
ENDCHAR
STARTCHAR 0021
ENCODING 33
SWIDTH 257 0
DWIDTH 10 0
BBX 5 28 3 -1
BITMAP
F0
F0
F0
F0
F0
F0
F0
F0
F0
F0
F0
70
70
70
70
70
70
70
70
00
00
00
60
F8
F8
F8
F0
20
ENDCHAR
STARTCHAR 0022
ENCODING 34
SWIDTH 411 0
DWIDTH 16 0
BBX 10 11 3 19
BITMAP
F1C0
F1C0
F1C0
F1C0
F1C0
E1C0
E1C0
E1C0
E1C0
E1C0
61C0
ENDCHAR
STARTCHAR 0023
ENCODING 35
SWIDTH 642 0
DWIDTH 25 0
BBX 22 27 2 0
BITMAP
01C070
01C0F0
01C0F0
03C0E0
03C0E0
0380E0
0381E0
FFFFFC
FFFFFC
FFFFFC
0701C0
0703C0
0703C0
070380
0F0380
0E0380
0E0380
FFFFFC
FFFFFC
FFFFFC
1C0700
1C0700
1C0F00
1C0E00
3C0E00
3C0E00
380E00
ENDCHAR
STARTCHAR 0024
ENCODING 36
SWIDTH 540 0
DWIDTH 21 0
BBX 17 34 2 -4
BITMAP
01E000
01E000
01E000
01E000
03F800
0FFF00
1FFF00
3E0F00
7C0000
780000
780000
780000
780000
7E0000
3F8000
1FE000
0FF800
01FE00
007F00
001F80
000780
000780
000380
000380
000780
600F80
7FFF00
FFFE00
3FFC00
01E000
01E000
01E000
01E000
01E000
ENDCHAR
STARTCHAR 0025
ENCODING 37
SWIDTH 848 0
DWIDTH 33 0
BBX 29 29 2 -1
BITMAP
04000000
1FC00F00
3FE00E00
78E01E00
F0701C00
E0703C00
E0707800
E0707000
E070F000
E070E000
F071E000
70E1C000
7FE3C000
3FC78000
07070700
000F1FE0
000E3FF0
001E3C78
001C7838
003C7038
00387038
00787038
00F07038
00E07038
01E03838
01C03C78
03C01FF0
03800FE0
00000100
ENDCHAR
STARTCHAR 0026
ENCODING 38
SWIDTH 642 0
DWIDTH 25 0
BBX 23 28 2 0
BITMAP
00C000
03FC00
0FFE00
0F1E00
1E0F00
1C0700
1C0700
1C0700
1C0F00
1E0E00
0E1E00
0F7C00
07F800
07E000
1FE000
3EF01C
787838
703C38
F01E38
F00F78
E007F0
E003F0
F001E0
F003F0
780FF8
7FFF3C
3FFE1E
0FF81E
ENDCHAR
STARTCHAR 0027
ENCODING 39
SWIDTH 231 0
DWIDTH 9 0
BBX 4 11 3 19
BITMAP
F0
F0
F0
F0
F0
E0
E0
E0
E0
E0
60
ENDCHAR
STARTCHAR 0028
ENCODING 40
SWIDTH 308 0
DWIDTH 12 0
BBX 9 37 3 -7
BITMAP
0300
0780
0700
0F00
1E00
1E00
3C00
3C00
3800
7800
7800
7000
7000
F000
F000
F000
F000
F000
F000
F000
F000
F000
F000
F000
7000
7000
7800
7800
3800
3C00
1C00
1E00
0E00
0F00
0780
0780
0300
ENDCHAR
STARTCHAR 0029
ENCODING 41
SWIDTH 308 0
DWIDTH 12 0
BBX 10 37 0 -7
BITMAP
7000
F000
7800
3C00
3C00
1E00
1E00
0E00
0F00
0700
0780
0780
0780
0380
0380
0380
0380
03C0
03C0
03C0
0380
0380
0380
0380
0780
0780
0700
0700
0F00
0E00
1E00
1C00
3C00
3800
7800
F000
2000
ENDCHAR
STARTCHAR 002A
ENCODING 42
SWIDTH 462 0
DWIDTH 18 0
BBX 15 15 2 12
BITMAP
0380
0380
0380
0380
E38C
FB3E
FFFE
7FFC
0380
0EC0
1EE0
3C70
3C78
3838
0020
ENDCHAR
STARTCHAR 002B
ENCODING 43
SWIDTH 540 0
DWIDTH 21 0
BBX 18 19 2 2
BITMAP
01E000
01E000
01E000
01E000
01E000
01E000
01E000
01E000
FFFFC0
FFFFC0
FFFFC0
01E000
01E000
01E000
01E000
01E000
01E000
01E000
01E000
ENDCHAR
STARTCHAR 002C
ENCODING 44
SWIDTH 231 0
DWIDTH 9 0
BBX 5 10 2 -6
BITMAP
78
78
78
78
78
70
F0
F0
E0
E0
ENDCHAR
STARTCHAR 002D
ENCODING 45
SWIDTH 282 0
DWIDTH 11 0
BBX 10 3 1 10
BITMAP
FFC0
FFC0
FFC0
ENDCHAR
STARTCHAR 002E
ENCODING 46
SWIDTH 231 0
DWIDTH 9 0
BBX 5 6 2 -1
BITMAP
30
78
F8
F8
78
20
ENDCHAR
STARTCHAR 002F
ENCODING 47
SWIDTH 360 0
DWIDTH 14 0
BBX 17 37 -1 -7
BITMAP
000780
000700
000F00
000F00
001E00
001E00
001C00
003C00
003C00
003800
007800
007800
007000
00F000
00F000
00E000
01E000
01E000
01C000
03C000
03C000
038000
078000
078000
0F0000
0F0000
0F0000
1E0000
1E0000
1C0000
3C0000
3C0000
380000
780000
780000
700000
F00000
ENDCHAR
STARTCHAR 0030
ENCODING 48
SWIDTH 540 0
DWIDTH 21 0
BBX 18 29 2 -1
BITMAP
00C000
07F800
0FFC00
1FFE00
3C1F00
3C0F00
780780
780780
700380
F003C0
F003C0
F003C0
F003C0
F003C0
F003C0
F003C0
F003C0
F003C0
F003C0
F003C0
700380
780780
780780
3C0F00
3C1F00
1FFE00
0FFC00
07F800
00C000
ENDCHAR
STARTCHAR 0031
ENCODING 49
SWIDTH 540 0
DWIDTH 21 0
BBX 10 27 4 0
BITMAP
01C0
03C0
07C0
0FC0
3FC0
FDC0
F9C0
E1C0
01C0
01C0
01C0
01C0
01C0
01C0
01C0
01C0
01C0
01C0
01C0
01C0
01C0
01C0
01C0
01C0
01C0
01C0
01C0
ENDCHAR
STARTCHAR 0032
ENCODING 50
SWIDTH 540 0
DWIDTH 21 0
BBX 17 28 2 0
BITMAP
030000
1FF800
7FFC00
FFFE00
701F00
600F00
000F00
000F00
000F00
000F00
000F00
001E00
003E00
003C00
007800
00F000
01E000
03C000
078000
0F0000
1E0000
3C0000
3C0000
780000
780000
7FFF80
7FFF80
7FFF80
ENDCHAR
STARTCHAR 0033
ENCODING 51
SWIDTH 540 0
DWIDTH 21 0
BBX 17 29 2 -1
BITMAP
018000
1FF000
7FFC00
7FFE00
301E00
001F00
000F00
000F00
000F00
000F00
001E00
003C00
07F800
07F000
07FC00
007E00
001F00
000F00
000780
000780
000780
000780
000780
000F00
401F00
7FFE00
FFFC00
7FF800
030000
ENDCHAR
STARTCHAR 0034
ENCODING 52
SWIDTH 540 0
DWIDTH 21 0
BBX 18 27 2 0
BITMAP
001E00
003E00
007E00
007E00
00EE00
01EE00
03CE00
078E00
070E00
0E0E00
1E0E00
1C0E00
3C0E00
380E00
700E00
700E00
E00E00
FFFFC0
FFFFC0
FFFFC0
000E00
000E00
000E00
000E00
000E00
000E00
000E00
ENDCHAR
STARTCHAR 0035
ENCODING 53
SWIDTH 540 0
DWIDTH 21 0
BBX 16 28 3 -1
BITMAP
3FFE
3FFE
3FFE
3800
3800
3800
3800
3800
3800
3800
7800
7FE0
7FF8
1FFC
007E
001E
000F
000F
000F
000F
000F
000F
001F
803E
FFFC
FFF8
FFF0
0E00
ENDCHAR
STARTCHAR 0036
ENCODING 54
SWIDTH 540 0
DWIDTH 21 0
BBX 18 28 2 -1
BITMAP
001F00
00FF00
01FF00
07F000
0F8000
1F0000
1E0000
3C0000
3C0000
780000
786000
7FFC00
7FFF00
7F3F00
F00780
F00780
F003C0
F003C0
7003C0
7003C0
7803C0
7803C0
3C0780
3C0F80
1FBF00
0FFE00
07FC00
004000
ENDCHAR
STARTCHAR 0037
ENCODING 55
SWIDTH 540 0
DWIDTH 21 0
BBX 17 27 2 0
BITMAP
FFFF80
FFFF80
FFFF80
000780
000F00
000F00
001E00
001C00
003C00
007800
007800
007000
00F000
00E000
01E000
01E000
01C000
03C000
03C000
038000
078000
078000
078000
078000
070000
0F0000
0F0000
ENDCHAR
STARTCHAR 0038
ENCODING 56
SWIDTH 540 0
DWIDTH 21 0
BBX 18 29 2 -1
BITMAP
00C000
07FC00
1FFE00
3FFF00
3C0F00
780780
780780
700780
700780
780780
780700
3C0F00
3F1E00
1FFC00
0FFC00
1EFE00
3C1F00
780F80
700780
F003C0
F003C0
F003C0
F003C0
700780
780780
3F3F00
3FFE00
0FFC00
00C000
ENDCHAR
STARTCHAR 0039
ENCODING 57
SWIDTH 540 0
DWIDTH 21 0
BBX 17 28 2 0
BITMAP
008000
0FF800
1FFC00
3F7E00
7C0F00
780F00
F00780
F00780
F00780
F00380
F00380
F00380
F80380
780380
7FFF80
3FFF80
0FFF80
000780
000780
000F00
000F00
001E00
003E00
007C00
03F800
3FF000
3FC000
3E0000
ENDCHAR
STARTCHAR 003A
ENCODING 58
SWIDTH 231 0
DWIDTH 9 0
BBX 5 21 2 -1
BITMAP
78
F8
F8
F8
70
00
00
00
00
00
00
00
00
00
00
30
78
F8
F8
78
20
ENDCHAR
STARTCHAR 003B
ENCODING 59
SWIDTH 231 0
DWIDTH 9 0
BBX 5 26 2 -6
BITMAP
78
F8
F8
F8
70
00
00
00
00
00
00
00
00
00
00
00
78
78
78
78
78
70
F0
F0
E0
E0
ENDCHAR
STARTCHAR 003C
ENCODING 60
SWIDTH 540 0
DWIDTH 21 0
BBX 18 17 2 3
BITMAP
000180
000780
003FC0
00FF00
03F800
1FE000
7F8000
FC0000
F00000
FE0000
7F8000
0FF000
03FC00
00FF80
001FC0
000780
000080
ENDCHAR
STARTCHAR 003D
ENCODING 61
SWIDTH 540 0
DWIDTH 21 0
BBX 18 11 2 6
BITMAP
FFFFC0
FFFFC0
FFFFC0
000000
000000
000000
000000
000000
FFFFC0
FFFFC0
FFFFC0
ENDCHAR
STARTCHAR 003E
ENCODING 62
SWIDTH 540 0
DWIDTH 21 0
BBX 18 17 2 3
BITMAP
600000
F80000
FF0000
3FC000
0FF000
01FE00
007F80
000FC0
0003C0
001FC0
007F80
03FC00
0FF000
7F8000
FE0000
780000
400000
ENDCHAR
STARTCHAR 003F
ENCODING 63
SWIDTH 385 0
DWIDTH 15 0
BBX 14 29 1 -1
BITMAP
0200
7FE0
FFF0
FBF8
0078
003C
003C
003C
0038
0078
00F0
01F0
01E0
03C0
0780
0F00
0E00
0E00
0E00
0E00
0000
0000
0000
0600
1F00
1F00
1F00
0F00
0400
ENDCHAR
STARTCHAR 0040
ENCODING 64
SWIDTH 925 0
DWIDTH 36 0
BBX 31 34 3 -6
BITMAP
00038000
003FFC00
01FFFF00
03FC3FC0
07C007E0
0F0001F0
1E0000F8
3C000078
7803F03C
781FFE1C
703FFE1E
F07E1E1E
E0781E0E
E0F01E0E
E0F01E0E
E0E01E0E
E1E01E0E
E1E01E0E
E0E01E0E
E0E01E0E
E0F01E1E
E0F01E1C
F07C1E3C
F03FFFF8
701FFFF0
780FE7E0
3C000000
3E000000
1F000000
0FC00000
07F00400
01FFFC00
007FFC00
000FF800
ENDCHAR
STARTCHAR 0041
ENCODING 65
SWIDTH 642 0
DWIDTH 25 0
BBX 25 27 0 0
BITMAP
001E0000
003E0000
003F0000
003F0000
007F8000
00778000
00F3C000
00E3C000
01E1C000
01E1E000
01C1E000
03C0F000
0380F000
0780F000
07807800
07007800
0F003C00
0FFFFC00
1FFFFC00
1FFFFE00
1E001E00
3C001E00
3C000F00
38000F00
78000F80
78000780
F0000780
ENDCHAR
STARTCHAR 0042
ENCODING 66
SWIDTH 642 0
DWIDTH 25 0
BBX 20 27 3 0
BITMAP
FFFC00
FFFF00
FFFF80
F00FC0
F003C0
F003E0
F001E0
F001E0
F001E0
F003C0
F007C0
FFFF80
FFFE00
FFFF80
F03FC0
F003E0
F001F0
F000F0
F000F0
F000F0
F000F0
F000F0
F001E0
F007E0
FFFFC0
FFFF80
FFFC00
ENDCHAR
STARTCHAR 0043
ENCODING 67
SWIDTH 617 0
DWIDTH 24 0
BBX 21 29 2 -1
BITMAP
000C00
00FFE0
03FFF8
07FFF8
0FC030
1F0000
3E0000
3C0000
7C0000
780000
780000
F80000
F00000
F00000
F00000
F00000
F00000
F00000
780000
780000
780000
3C0000
3E0000
1F0000
1F8030
0FFFF8
03FFF8
01FFF0
000C00
ENDCHAR
STARTCHAR 0044
ENCODING 68
SWIDTH 694 0
DWIDTH 27 0
BBX 22 27 3 0
BITMAP
FFF800
FFFF00
FFFF80
F00FE0
F003F0
F001F0
F000F8
F00078
F0003C
F0003C
F0003C
F0003C
F0003C
F0003C
F0003C
F0003C
F0003C
F0003C
F0003C
F00078
F000F8
F001F0
F003F0
F00FE0
FFFFC0
FFFF00
FFF800
ENDCHAR
STARTCHAR 0045
ENCODING 69
SWIDTH 565 0
DWIDTH 22 0
BBX 18 27 3 0
BITMAP
FFFF80
FFFF80
FFFF80
F00000
F00000
F00000
F00000
F00000
F00000
F00000
F00000
FFFE00
FFFE00
FFFE00
F00000
F00000
F00000
F00000
F00000
F00000
F00000
F00000
F00000
F00000
FFFFC0
FFFFC0
FFFFC0
ENDCHAR
STARTCHAR 0046
ENCODING 70
SWIDTH 514 0
DWIDTH 20 0
BBX 17 27 3 0
BITMAP
FFFF80
FFFF80
FFFF80
F00000
F00000
F00000
F00000
F00000
F00000
F00000
F00000
FFFE00
FFFE00
FFFE00
FFFE00
F00000
F00000
F00000
F00000
F00000
F00000
F00000
F00000
F00000
F00000
F00000
F00000
ENDCHAR
STARTCHAR 0047
ENCODING 71
SWIDTH 668 0
DWIDTH 26 0
BBX 22 29 2 -1
BITMAP
000C00
00FFF0
03FFF8
07FFF8
0FC038
1F0000
3E0000
3C0000
7C0000
780000
780000
F80000
F00000
F00000
F00000
F0003C
F0003C
F0003C
78003C
78003C
78003C
3C003C
3E003C
1F003C
1F803C
0FFFFC
03FFFC
01FFF8
001E00
ENDCHAR
STARTCHAR 0048
ENCODING 72
SWIDTH 694 0
DWIDTH 27 0
BBX 21 27 3 0
BITMAP
F00078
F00078
F00078
F00078
F00078
F00078
F00078
F00078
F00078
F00078
F00078
FFFFF8
FFFFF8
FFFFF8
FFFFF8
F00078
F00078
F00078
F00078
F00078
F00078
F00078
F00078
F00078
F00078
F00078
F00078
ENDCHAR
STARTCHAR 0049
ENCODING 73
SWIDTH 257 0
DWIDTH 10 0
BBX 4 27 3 0
BITMAP
F0
F0
F0
F0
F0
F0
F0
F0
F0
F0
F0
F0
F0
F0
F0
F0
F0
F0
F0
F0
F0
F0
F0
F0
F0
F0
F0
ENDCHAR
STARTCHAR 004A
ENCODING 74
SWIDTH 488 0
DWIDTH 19 0
BBX 16 28 0 -1
BITMAP
0007
0007
0007
0007
0007
0007
0007
0007
0007
0007
0007
0007
0007
0007
0007
0007
0007
0007
000F
000F
000F
000F
001F
703E
7FFE
FFFC
3FF0
0300
ENDCHAR
STARTCHAR 004B
ENCODING 75
SWIDTH 617 0
DWIDTH 24 0
BBX 21 27 3 0
BITMAP
F001F0
F003E0
F007C0
F00780
F00F00
F01E00
F03C00
F07800
F0F000
F1E000
F3C000
F78000
FF0000
FF8000
F7C000
F3F000
F1F800
F0FC00
F03E00
F01F00
F00F00
F00780
F007C0
F003E0
F001F0
F000F0
F000F8
ENDCHAR
STARTCHAR 004C
ENCODING 76
SWIDTH 514 0
DWIDTH 20 0
BBX 17 27 3 0
BITMAP
F00000
F00000
F00000
F00000
F00000
F00000
F00000
F00000
F00000
F00000
F00000
F00000
F00000
F00000
F00000
F00000
F00000
F00000
F00000
F00000
F00000
F00000
F00000
F00000
FFFF80
FFFF80
FFFF80
ENDCHAR
STARTCHAR 004D
ENCODING 77
SWIDTH 848 0
DWIDTH 33 0
BBX 28 27 3 0
BITMAP
380001C0
7C0003C0
7C0003E0
7E0007E0
7E0007E0
7F000FE0
77000FE0
77801EE0
73801CE0
73C03CE0
71C038E0
F1E078E0
F0E070E0
F0F0F0E0
F070E0F0
F079E0F0
F079C0F0
F03BC0F0
F03FC0F0
F01F80F0
F01F80F0
F00F00F0
E00F00F0
E00000F0
E00000F0
E0000070
E0000070
ENDCHAR
STARTCHAR 004E
ENCODING 78
SWIDTH 720 0
DWIDTH 28 0
BBX 22 27 3 0
BITMAP
F0003C
F8003C
FC003C
FC003C
FE003C
FF003C
FF803C
F7C03C
F3C03C
F1E03C
F0F03C
F0F83C
F0783C
F03C3C
F01E3C
F01E3C
F00F3C
F007BC
F007BC
F003FC
F001FC
F001FC
F000FC
F0007C
F0007C
F0003C
F0003C
ENDCHAR
STARTCHAR 004F
ENCODING 79
SWIDTH 771 0
DWIDTH 30 0
BBX 26 29 2 -1
BITMAP
000C0000
00FFE000
03FFF000
07FFFC00
0F807E00
1F003E00
3E001F00
3C000F80
78000780
78000780
780007C0
F00003C0
F00003C0
F00003C0
F00003C0
F00003C0
F00003C0
F00003C0
780007C0
78000780
78000780
3C000F80
3E001F00
1F003E00
0F807E00
07FFFC00
03FFF000
00FFE000
001C0000
ENDCHAR
STARTCHAR 0050
ENCODING 80
SWIDTH 591 0
DWIDTH 23 0
BBX 19 27 3 0
BITMAP
FFF800
FFFF00
FFFF80
F01FC0
F003C0
F001E0
F001E0
F001E0
F001E0
F001E0
F001E0
F003E0
F007C0
F01FC0
FFFF80
FFFE00
FFF800
F00000
F00000
F00000
F00000
F00000
F00000
F00000
F00000
F00000
F00000
ENDCHAR
STARTCHAR 0051
ENCODING 81
SWIDTH 771 0
DWIDTH 30 0
BBX 26 35 2 -7
BITMAP
000C0000
00FFE000
03FFF000
07FFFC00
0F807E00
1F003E00
3E001F00
3C000F80
78000780
78000780
780007C0
F00003C0
F00003C0
F00003C0
F00003C0
F00003C0
F00003C0
F00003C0
780007C0
78000780
78000780
3C000F80
3E001F00
1F003E00
0F807E00
07FFFC00
03FFF000
00FFE000
001F0000
000F0000
0007C000
0003F000
0001FF00
0000FF00
00001E00
ENDCHAR
STARTCHAR 0052
ENCODING 82
SWIDTH 617 0
DWIDTH 24 0
BBX 21 27 3 0
BITMAP
FFF800
FFFF00
FFFF80
F01FC0
F003C0
F003E0
F001E0
F001E0
F001E0
F001E0
F001E0
F003E0
F007C0
FFFF80
FFFF00
FFFC00
F03C00
F03E00
F01F00
F00F00
F00780
F007C0
F003C0
F001E0
F001E0
F000F0
F000F8
ENDCHAR
STARTCHAR 0053
ENCODING 83
SWIDTH 514 0
DWIDTH 20 0
BBX 18 29 1 -1
BITMAP
00F000
07FF00
1FFF80
3FFF80
3E0100
780000
780000
780000
780000
780000
7C0000
3F0000
1FC000
0FF800
07FE00
00FF00
003F80
000FC0
0007C0
0003C0
0003C0
0003C0
0003C0
0003C0
7007C0
7FFF80
FFFF00
3FFE00
03A000
ENDCHAR
STARTCHAR 0054
ENCODING 84
SWIDTH 540 0
DWIDTH 21 0
BBX 20 27 1 0
BITMAP
FFFFF0
FFFFF0
FFFFF0
00F000
00F000
00F000
00F000
00F000
00F000
00F000
00F000
00F000
00F000
00F000
00F000
00F000
00F000
00F000
00F000
00F000
00F000
00F000
00F000
00F000
00F000
00F000
00F000
ENDCHAR
STARTCHAR 0055
ENCODING 85
SWIDTH 668 0
DWIDTH 26 0
BBX 21 28 3 -1
BITMAP
F00078
F00078
F00078
F00078
F00078
F00078
F00078
F00078
F00078
F00078
F00078
F00078
F00078
F00078
F00078
F00078
F00078
F00078
F00078
F000F0
7800F0
7800F0
7C01E0
3E03E0
1FFFC0
0FFF80
07FE00
006000
ENDCHAR
STARTCHAR 0056
ENCODING 86
SWIDTH 642 0
DWIDTH 25 0
BBX 24 27 1 0
BITMAP
F0000F
F0000F
F0001E
78001E
78001E
78003C
3C003C
3C0038
3C0078
1E0078
1E00F0
0F00F0
0F00F0
0F01E0
0781E0
0781C0
0783C0
03C3C0
03C780
01E780
01E700
00EF00
00FF00
00FE00
007E00
007C00
003C00
ENDCHAR
STARTCHAR 0057
ENCODING 87
SWIDTH 925 0
DWIDTH 36 0
BBX 34 27 1 0
BITMAP
F0000003C0
F0000003C0
70000003C0
7801E00380
7801E00780
7801E00780
7803F00780
7803F00780
3C03F00700
3C03F80F00
3C07B80F00
3C07380F00
1C0F3C0F00
1E0F1C0E00
1E0E1C1E00
1E1E1E1E00
1E1C0E1E00
0F1C0F1C00
0F3C0F3C00
0F38073C00
073807B800
07F803B800
07F003F800
07F003F800
03E001F000
03E001F000
03E001F000
ENDCHAR
STARTCHAR 0058
ENCODING 88
SWIDTH 617 0
DWIDTH 24 0
BBX 23 27 1 0
BITMAP
78003C
7C0078
3C00F0
1E00F0
1F01E0
0F03C0
0783C0
07C780
03CF00
01EF00
01FE00
00FC00
007C00
00FC00
00FE00
01FF00
03EF00
03C780
0787C0
0F83C0
0F01E0
1E01F0
3E00F0
3C0078
780078
78003C
F0003E
ENDCHAR
STARTCHAR 0059
ENCODING 89
SWIDTH 591 0
DWIDTH 23 0
BBX 23 27 0 0
BITMAP
F8001E
78003C
3C003C
3C0078
1E0078
1E00F0
0F01E0
0F81E0
0783C0
03C3C0
03C780
01E700
01FF00
00FE00
007E00
007C00
003C00
003C00
003C00
003C00
003C00
003C00
003C00
003C00
003C00
003C00
003C00
ENDCHAR
STARTCHAR 005A
ENCODING 90
SWIDTH 565 0
DWIDTH 22 0
BBX 20 27 1 0
BITMAP
7FFFE0
7FFFE0
7FFFE0
0001E0
0003C0
000780
000F80
001F00
001E00
003C00
007800
00F800
00F000
01E000
03E000
03C000
078000
0F8000
0F0000
1E0000
1E0000
3C0000
780000
780000
FFFFF0
FFFFF0
FFFFF0
ENDCHAR
STARTCHAR 005B
ENCODING 91
SWIDTH 308 0
DWIDTH 12 0
BBX 8 37 4 -7
BITMAP
FF
FF
E0
E0
E0
E0
E0
E0
E0
E0
E0
E0
E0
E0
E0
E0
E0
E0
E0
E0
E0
E0
E0
E0
E0
E0
E0
E0
E0
E0
E0
E0
E0
E0
FF
FF
FF
ENDCHAR
STARTCHAR 005C
ENCODING 92
SWIDTH 360 0
DWIDTH 14 0
BBX 17 37 -1 -7
BITMAP
F00000
700000
780000
780000
380000
3C0000
3C0000
1C0000
1E0000
0E0000
0F0000
0F0000
070000
078000
078000
038000
03C000
03C000
01C000
01E000
01E000
00E000
00F000
00F000
007000
007800
007800
003800
003C00
003C00
001E00
001E00
000E00
000F00
000F00
000700
000780
ENDCHAR
STARTCHAR 005D
ENCODING 93
SWIDTH 308 0
DWIDTH 12 0
BBX 9 37 0 -7
BITMAP
FF80
FF80
0380
0380
0380
0380
0380
0380
0380
0380
0380
0380
0380
0380
0380
0380
0380
0380
0380
0380
0380
0380
0380
0380
0380
0380
0380
0380
0380
0380
0380
0380
0380
0380
FF80
FF80
FF80
ENDCHAR
STARTCHAR 005E
ENCODING 94
SWIDTH 540 0
DWIDTH 21 0
BBX 18 15 2 12
BITMAP
01E000
01E000
03F000
07F800
07F800
0F3C00
0E1C00
1E1E00
1C0E00
3C0F00
780780
780780
F003C0
E001C0
200100
ENDCHAR
STARTCHAR 005F
ENCODING 95
SWIDTH 488 0
DWIDTH 19 0
BBX 19 3 0 -7
BITMAP
FFFFE0
FFFFE0
FFFFE0
ENDCHAR
STARTCHAR 0060
ENCODING 96
SWIDTH 360 0
DWIDTH 14 0
BBX 6 7 3 23
BITMAP
40
E0
F0
78
3C
1C
0C
ENDCHAR
STARTCHAR 0061
ENCODING 97
SWIDTH 514 0
DWIDTH 20 0
BBX 15 21 2 0
BITMAP
0FC0
3FF8
3FFC
3CFC
001E
001E
000E
000E
000E
1FFE
3FFE
7FFE
F80E
F00E
E00E
E00E
F00E
F00E
7FFE
7FFE
1FFE
ENDCHAR
STARTCHAR 0062
ENCODING 98
SWIDTH 565 0
DWIDTH 22 0
BBX 18 30 3 0
BITMAP
F00000
F00000
F00000
F00000
F00000
F00000
F00000
F00000
F00000
F0E000
FFFC00
FFFE00
FFFF00
F80F00
F00780
F00780
F003C0
F003C0
F003C0
F003C0
F003C0
F003C0
F003C0
F00380
F00780
F00F80
F01F00
FFFE00
FFFC00
FFF000
ENDCHAR
STARTCHAR 0063
ENCODING 99
SWIDTH 462 0
DWIDTH 18 0
BBX 15 21 2 0
BITMAP
01F0
07FE
1FFE
3FFC
3C00
7800
7800
F000
F000
F000
F000
F000
F000
F000
F000
7800
7C00
3E00
3FFE
1FFE
07FE
ENDCHAR
STARTCHAR 0064
ENCODING 100
SWIDTH 565 0
DWIDTH 22 0
BBX 18 30 2 0
BITMAP
0003C0
0003C0
0003C0
0003C0
0003C0
0003C0
0003C0
0003C0
0003C0
01C3C0
0FFFC0
1FFFC0
3FFFC0
7C07C0
7803C0
7803C0
F003C0
F003C0
F003C0
F003C0
F003C0
F003C0
F003C0
F003C0
7803C0
7C03C0
3E03C0
1FFFC0
0FFFC0
07FFC0
ENDCHAR
STARTCHAR 0065
ENCODING 101
SWIDTH 540 0
DWIDTH 21 0
BBX 18 21 2 0
BITMAP
01E000
07FC00
1FFE00
3F3F00
3C0F80
780780
700780
F00380
F003C0
FFFFC0
FFFFC0
FFFFC0
F00000
F00000
F00000
780000
780000
3E0100
3FFF00
1FFF00
07FF00
ENDCHAR
STARTCHAR 0066
ENCODING 102
SWIDTH 385 0
DWIDTH 15 0
BBX 12 30 3 0
BITMAP
0FF0
3FF0
3FF0
7C10
7800
F000
F000
F000
F000
F000
FFF0
FFF0
FFF0
F000
F000
F000
F000
F000
F000
F000
F000
F000
F000
F000
F000
F000
F000
F000
F000
F000
ENDCHAR
STARTCHAR 0067
ENCODING 103
SWIDTH 565 0
DWIDTH 22 0
BBX 17 28 2 -7
BITMAP
00F000
07FF80
1FFF80
3FFF80
3C0380
780380
780380
F00380
F00380
F00380
F00380
F00380
F00380
F00380
780380
780380
3E0F80
3FFF80
1FFF80
07FB80
000380
000380
000780
000780
201F00
7FFF00
7FFE00
3FF800
ENDCHAR
STARTCHAR 0068
ENCODING 104
SWIDTH 565 0
DWIDTH 22 0
BBX 16 30 3 0
BITMAP
F000
F000
F000
F000
F000
F000
F000
F000
F000
F1C0
FFF8
FFFC
FFFE
F01F
F00F
F00F
F007
F007
F007
F007
F007
F007
F007
F007
F007
F007
F007
F007
F007
F007
ENDCHAR
STARTCHAR 0069
ENCODING 105
SWIDTH 231 0
DWIDTH 9 0
BBX 4 29 3 0
BITMAP
60
F0
F0
F0
F0
00
00
00
00
F0
F0
F0
F0
F0
F0
F0
F0
F0
F0
F0
F0
F0
F0
F0
F0
F0
F0
F0
F0
ENDCHAR
STARTCHAR 006A
ENCODING 106
SWIDTH 231 0
DWIDTH 9 0
BBX 10 36 -3 -7
BITMAP
0180
03C0
03C0
03C0
03C0
0000
0000
0000
0000
03C0
03C0
03C0
03C0
03C0
03C0
03C0
03C0
03C0
03C0
03C0
03C0
03C0
03C0
03C0
03C0
03C0
03C0
03C0
03C0
03C0
03C0
0380
0780
7F80
7F00
FE00
ENDCHAR
STARTCHAR 006B
ENCODING 107
SWIDTH 514 0
DWIDTH 20 0
BBX 16 30 3 0
BITMAP
F000
F000
F000
F000
F000
F000
F000
F000
F000
F000
F01E
F03C
F078
F0F8
F1F0
F3E0
F7C0
FF80
FF00
FF00
FF80
F7C0
F3E0
F1F0
F0F8
F07C
F03C
F01E
F00F
F00F
ENDCHAR
STARTCHAR 006C
ENCODING 108
SWIDTH 257 0
DWIDTH 10 0
BBX 7 30 3 0
BITMAP
F0
F0
F0
F0
F0
F0
F0
F0
F0
F0
F0
F0
F0
F0
F0
F0
F0
F0
F0
F0
F0
F0
F0
F0
F0
F0
F0
FE
7E
3C
ENDCHAR
STARTCHAR 006D
ENCODING 109
SWIDTH 848 0
DWIDTH 33 0
BBX 28 21 3 0
BITMAP
03C01C00
FFF9FF80
FFFFFFC0
FFFFFFE0
F01F01E0
F01E01E0
F00E00E0
F00F00F0
F00F00F0
F00F00F0
F00F00F0
F00F00F0
F00F00F0
F00F00F0
F00F00F0
F00F00F0
F00F00F0
F00F00F0
F00F00F0
F00F00F0
F00F00F0
ENDCHAR
STARTCHAR 006E
ENCODING 110
SWIDTH 565 0
DWIDTH 22 0
BBX 16 21 3 0
BITMAP
03C0
FFF8
FFFC
FFFE
F01F
F00F
F00F
F007
F007
F007
F007
F007
F007
F007
F007
F007
F007
F007
F007
F007
F007
ENDCHAR
STARTCHAR 006F
ENCODING 111
SWIDTH 565 0
DWIDTH 22 0
BBX 19 22 2 -1
BITMAP
01F000
07FC00
1FFF00
3FBF80
3C0780
7803C0
7803C0
F001E0
F001E0
F001E0
F001E0
F001E0
F001E0
F001E0
F001E0
7803C0
7807C0
3E0F80
1FFF00
0FFE00
07FC00
004000
ENDCHAR
STARTCHAR 0070
ENCODING 112
SWIDTH 565 0
DWIDTH 22 0
BBX 18 28 3 -7
BITMAP
03C000
FFF800
FFFC00
FFFE00
F01F00
F00F80
F00780
F003C0
F003C0
F003C0
F003C0
F003C0
F003C0
F003C0
F00380
F00780
F00780
F81F00
FFFF00
FFFE00
FFF800
F00000
F00000
F00000
F00000
F00000
F00000
F00000
ENDCHAR
STARTCHAR 0071
ENCODING 113
SWIDTH 565 0
DWIDTH 22 0
BBX 18 28 2 -7
BITMAP
00F000
07FFC0
1FFFC0
3FFFC0
3E03C0
7C03C0
7803C0
F003C0
F003C0
F003C0
F003C0
F003C0
F003C0
F003C0
F003C0
7803C0
7803C0
3E07C0
3FFFC0
1FFFC0
07FBC0
0003C0
0003C0
0003C0
0003C0
0003C0
0003C0
0003C0
ENDCHAR
STARTCHAR 0072
ENCODING 114
SWIDTH 385 0
DWIDTH 15 0
BBX 12 21 3 0
BITMAP
0380
FFF0
FFE0
FFE0
F000
F000
F000
F000
F000
F000
F000
F000
F000
F000
F000
F000
F000
F000
F000
F000
F000
ENDCHAR
STARTCHAR 0073
ENCODING 115
SWIDTH 437 0
DWIDTH 17 0
BBX 14 21 2 0
BITMAP
07C0
3FF8
7FF0
FC70
F000
F000
F000
F000
FC00
7F00
3FC0
0FF0
01F8
0078
003C
003C
003C
803C
FFF8
FFF0
FFE0
ENDCHAR
STARTCHAR 0074
ENCODING 116
SWIDTH 385 0
DWIDTH 15 0
BBX 12 26 3 0
BITMAP
F000
F000
F000
F000
F000
F000
FFE0
FFE0
FFE0
F000
F000
F000
F000
F000
F000
F000
F000
F000
F000
F000
F000
F000
F800
7FF0
7FF0
1FF0
ENDCHAR
STARTCHAR 0075
ENCODING 117
SWIDTH 565 0
DWIDTH 22 0
BBX 16 20 3 0
BITMAP
F007
F007
F007
F007
F007
F007
F007
F007
F007
F007
F007
F007
F007
F007
F007
F807
7C07
7FFF
3FFF
0FFF
ENDCHAR
STARTCHAR 0076
ENCODING 118
SWIDTH 488 0
DWIDTH 19 0
BBX 18 20 1 0
BITMAP
F003C0
F00380
F00780
780780
780780
780700
380F00
3C0F00
3C0E00
1C1E00
1E1C00
1E3C00
0F3C00
0F3800
077800
07F000
03F000
03F000
03E000
01E000
ENDCHAR
STARTCHAR 0077
ENCODING 119
SWIDTH 771 0
DWIDTH 30 0
BBX 28 20 1 0
BITMAP
F0070070
F00F00F0
F00F00F0
700F80F0
780F80E0
781F81E0
381F81E0
3C1FC1C0
3C39C1C0
3C39C3C0
1C39E380
1E38E380
1E70E780
0E70E700
0F707700
07E07F00
07E07E00
07E03E00
03C03C00
03C03C00
ENDCHAR
STARTCHAR 0078
ENCODING 120
SWIDTH 488 0
DWIDTH 19 0
BBX 18 20 1 0
BITMAP
F80780
780700
3C0F00
1E1E00
1E3C00
0F3C00
07F800
07F000
03E000
01E000
03F000
07F800
0F7800
0E3C00
1E1E00
3C1F00
380F00
780780
F00780
F003C0
ENDCHAR
STARTCHAR 0079
ENCODING 121
SWIDTH 488 0
DWIDTH 19 0
BBX 18 27 0 -7
BITMAP
7801C0
7803C0
7803C0
3C03C0
3C0380
3C0780
1C0780
1E0780
1E0700
0F0F00
0F0F00
070E00
079E00
079E00
03DC00
03FC00
01FC00
01F800
00F800
00F000
007000
00E000
01E000
03C000
7FC000
FF8000
FE0000
ENDCHAR
STARTCHAR 007A
ENCODING 122
SWIDTH 462 0
DWIDTH 18 0
BBX 16 20 1 0
BITMAP
7FFF
7FFF
7FFF
003E
003C
0078
00F0
01E0
03E0
03C0
0780
0F00
0F00
1E00
3C00
3C00
7800
FFFF
FFFF
FFFF
ENDCHAR
STARTCHAR 007B
ENCODING 123
SWIDTH 308 0
DWIDTH 12 0
BBX 11 37 2 -7
BITMAP
03E0
0FE0
0FC0
1E00
1E00
1E00
1E00
1E00
1E00
1E00
1E00
1E00
1E00
1C00
1C00
3C00
7C00
F800
F000
F800
3C00
1C00
1C00
1C00
1E00
1E00
1E00
1E00
1E00
1E00
1E00
1E00
1E00
0E00
0FE0
07E0
03E0
ENDCHAR
STARTCHAR 007C
ENCODING 124
SWIDTH 257 0
DWIDTH 10 0
BBX 3 37 4 -7
BITMAP
E0
E0
E0
E0
E0
E0
E0
E0
E0
E0
E0
E0
E0
E0
E0
E0
E0
E0
E0
E0
E0
E0
E0
E0
E0
E0
E0
E0
E0
E0
E0
E0
E0
E0
E0
E0
E0
ENDCHAR
STARTCHAR 007D
ENCODING 125
SWIDTH 308 0
DWIDTH 12 0
BBX 11 37 0 -7
BITMAP
F800
FC00
7E00
0E00
0F00
0F00
0F00
0F00
0F00
0F00
0F00
0F00
0F00
0F00
0700
0700
07C0
03E0
01E0
03E0
0780
0700
0700
0F00
0F00
0F00
0F00
0F00
0F00
0F00
0F00
0F00
0F00
0E00
FE00
FC00
F800
ENDCHAR
STARTCHAR 007E
ENCODING 126
SWIDTH 540 0
DWIDTH 21 0
BBX 18 6 2 8
BITMAP
1E0000
3F81C0
7FC1C0
F3FF80
E0FF80
C03F00
ENDCHAR
STARTCHAR 00A0
ENCODING 160
SWIDTH 205 0
DWIDTH 8 0
BBX 0 0 0 0
BITMAP
ENDCHAR
STARTCHAR 00A1
ENCODING 161
SWIDTH 257 0
DWIDTH 10 0
BBX 5 27 3 -7
BITMAP
70
F8
F8
F8
70
00
00
00
00
70
70
70
70
70
70
70
F0
F0
F0
F0
F0
F0
F0
F0
F0
F0
F0
ENDCHAR
STARTCHAR 00A2
ENCODING 162
SWIDTH 540 0
DWIDTH 21 0
BBX 16 31 3 -4
BITMAP
00E0
00E0
00E0
00E0
00E0
00E0
07FE
0FFE
1FFE
3E00
7C00
7800
7800
7000
F000
F000
F000
F000
7000
7800
7800
3C00
3F86
1FFE
07FF
01FC
00E0
00E0
00E0
00E0
00E0
ENDCHAR
STARTCHAR 00A3
ENCODING 163
SWIDTH 540 0
DWIDTH 21 0
BBX 18 27 2 0
BITMAP
00FF80
03FF80
07FF80
078080
078000
0F0000
0F0000
0F0000
0F0000
0F0000
0F0000
0F0000
FFFE00
FFFE00
FFFE00
0F0000
0F0000
0F0000
0E0000
0E0000
0E0000
0E0000
1E0000
1E0000
1FFFC0
1FFFC0
1FFFC0
ENDCHAR
STARTCHAR 00A4
ENCODING 164
SWIDTH 540 0
DWIDTH 21 0
BBX 18 17 2 5
BITMAP
600180
F3F3C0
7FFF80
3FFF00
3C0E00
380700
380700
300700
700300
300700
380700
380700
3C0E00
3FFF00
7FFF80
F3F3C0
600180
ENDCHAR
STARTCHAR 00A5
ENCODING 165
SWIDTH 540 0
DWIDTH 21 0
BBX 20 27 1 0
BITMAP
F000F0
F000F0
7801E0
7801C0
3C03C0
1C0380
1E0780
0E0700
0F0F00
078E00
079C00
03FC00
01F800
3FFFC0
3FFFC0
3FFFC0
00F000
00F000
00F000
00F000
3FFFC0
3FFFC0
3FFFC0
00F000
00F000
00F000
00F000
ENDCHAR
STARTCHAR 00A6
ENCODING 166
SWIDTH 257 0
DWIDTH 10 0
BBX 3 37 4 -7
BITMAP
E0
E0
E0
E0
E0
E0
E0
E0
E0
E0
E0
E0
E0
E0
00
00
00
00
00
00
00
00
E0
E0
E0
E0
E0
E0
E0
E0
E0
E0
E0
E0
E0
E0
E0
ENDCHAR
STARTCHAR 00A7
ENCODING 167
SWIDTH 488 0
DWIDTH 19 0
BBX 16 32 2 -4
BITMAP
0080
0FFE
3FFC
3E7C
7800
7800
7000
7800
3C00
3F80
1FE0
3FF8
78FC
F03E
E01E
E00E
E00F
F00E
F80E
7E1E
3FFC
1FF8
03F8
00FC
003C
001E
001E
001E
C03C
FFFC
FFF8
7FE0
ENDCHAR
STARTCHAR 00A8
ENCODING 168
SWIDTH 360 0
DWIDTH 14 0
BBX 12 5 1 24
BITMAP
2000
78F0
F8F0
F8F0
7060
ENDCHAR
STARTCHAR 00A9
ENCODING 169
SWIDTH 797 0
DWIDTH 31 0
BBX 26 29 3 -1
BITMAP
001C0000
01FFC000
03FFF000
0FC0F800
1E003C00
3C000E00
38040700
707FC780
70FFC380
E1F0C380
E1C001C0
E38001C0
C38001C0
C38001C0
C38001C0
C38001C0
C38001C0
E38001C0
E1C001C0
E1E0C380
70FFC380
707FC780
380E0700
3C000E00
1E003E00
0FC0F800
03FFF000
01FFC000
000C0000
ENDCHAR
STARTCHAR 00AA
ENCODING 170
SWIDTH 385 0
DWIDTH 15 0
BBX 12 14 1 13
BITMAP
3FC0
3FE0
20F0
0070
0070
0FF0
3FF0
7FF0
7070
E070
6070
7870
7FF0
1FF0
ENDCHAR
STARTCHAR 00AB
ENCODING 171
SWIDTH 488 0
DWIDTH 19 0
BBX 16 17 1 2
BITMAP
0202
0703
0707
0F0F
1E1E
1E1E
3C3C
7878
F878
7878
7878
3C3C
1E1E
1E1E
0F0F
0707
0703
ENDCHAR
STARTCHAR 00AC
ENCODING 172
SWIDTH 540 0
DWIDTH 21 0
BBX 18 13 2 2
BITMAP
FFFFC0
FFFFC0
FFFFC0
0001C0
0001C0
0001C0
0001C0
0001C0
0001C0
0001C0
0001C0
0001C0
0001C0
ENDCHAR
STARTCHAR 00AD
ENCODING 173
SWIDTH 282 0
DWIDTH 11 0
BBX 10 3 1 10
BITMAP
FFC0
FFC0
FFC0
ENDCHAR
STARTCHAR 00AE
ENCODING 174
SWIDTH 797 0
DWIDTH 31 0
BBX 26 29 3 -1
BITMAP
001C0000
01FFC000
03FFF000
0FC0F800
1E003C00
3C000E00
38000700
71FF0780
71FF8380
E1C3C380
E1C1C1C0
E1C0E1C0
C1C0E1C0
C1C1C1C0
C1FFC1C0
C1FF01C0
C1C701C0
E1C381C0
E1C3C1C0
E1C1C380
71C0E380
71C0E780
38000700
3C000E00
1E003E00
0FC0F800
03FFF000
01FFC000
000C0000
ENDCHAR
STARTCHAR 00AF
ENCODING 175
SWIDTH 360 0
DWIDTH 14 0
BBX 11 3 2 25
BITMAP
FFE0
FFE0
FFE0
ENDCHAR
STARTCHAR 00B0
ENCODING 176
SWIDTH 308 0
DWIDTH 12 0
BBX 11 11 1 19
BITMAP
1F00
7F80
71C0
E0E0
E0E0
E0E0
E0E0
F1C0
7FC0
3F80
0400
ENDCHAR
STARTCHAR 00B1
ENCODING 177
SWIDTH 540 0
DWIDTH 21 0
BBX 18 24 2 0
BITMAP
01E000
01E000
01E000
01E000
01E000
01E000
01E000
01E000
FFFFC0
FFFFC0
FFFFC0
01E000
01E000
01E000
01E000
01E000
01E000
01E000
01E000
000000
000000
FFFFC0
FFFFC0
FFFFC0
ENDCHAR
STARTCHAR 00B2
ENCODING 178
SWIDTH 334 0
DWIDTH 13 0
BBX 11 16 1 12
BITMAP
0E00
7F80
FFC0
61C0
00E0
00C0
01C0
0380
0780
0F00
1C00
3800
7000
7FE0
7FE0
7FE0
ENDCHAR
STARTCHAR 00B3
ENCODING 179
SWIDTH 334 0
DWIDTH 13 0
BBX 11 16 1 12
BITMAP
0400
7F80
7FC0
41C0
00C0
01C0
0380
1F00
1FC0
01E0
00E0
00E0
00E0
63E0
FFC0
7F00
ENDCHAR
STARTCHAR 00B4
ENCODING 180
SWIDTH 360 0
DWIDTH 14 0
BBX 7 7 5 23
BITMAP
0C
0E
1E
3C
78
F0
60
ENDCHAR
STARTCHAR 00B5
ENCODING 181
SWIDTH 565 0
DWIDTH 22 0
BBX 16 27 3 -7
BITMAP
F007
F007
F007
F007
F007
F007
F007
F007
F007
F007
F007
F007
F007
F007
F007
F807
FC07
FFFF
FFFF
FFFF
F000
F000
F000
F000
F000
F000
F000
ENDCHAR
STARTCHAR 00B6
ENCODING 182
SWIDTH 642 0
DWIDTH 25 0
BBX 19 34 2 -7
BITMAP
03FFE0
0FFFE0
3FFFE0
7FF0E0
7FF0E0
FFF0E0
FFF0E0
FFF0E0
FFF0E0
FFF0E0
FFF0E0
FFF0E0
7FF0E0
7FF0E0
3FF0E0
0FF0E0
01F0E0
0070E0
0070E0
0070E0
0070E0
0070E0
0070E0
0070E0
0070E0
0070E0
0070E0
0070E0
0070E0
0070E0
0070E0
0070E0
0070E0
0070E0
ENDCHAR
STARTCHAR 00B7
ENCODING 183
SWIDTH 231 0
DWIDTH 9 0
BBX 5 5 2 9
BITMAP
70
F8
F8
F8
78
ENDCHAR
STARTCHAR 00B8
ENCODING 184
SWIDTH 360 0
DWIDTH 14 0
BBX 7 8 3 -7
BITMAP
1C
18
38
3C
1E
0E
FE
FC
ENDCHAR
STARTCHAR 00B9
ENCODING 185
SWIDTH 334 0
DWIDTH 13 0
BBX 7 15 2 12
BITMAP
0E
1E
7E
F6
46
06
06
06
06
06
06
06
06
06
06
ENDCHAR
STARTCHAR 00BA
ENCODING 186
SWIDTH 437 0
DWIDTH 17 0
BBX 14 15 2 13
BITMAP
0200
1FC0
3FF0
7878
F038
E038
E01C
E01C
E01C
E01C
E038
F038
7DF0
3FE0
1FC0
ENDCHAR
STARTCHAR 00BB
ENCODING 187
SWIDTH 488 0
DWIDTH 19 0
BBX 16 16 2 3
BITMAP
E0E0
F0F0
7070
7878
3C3C
3C3E
1E1E
0F0F
0F0F
1E1E
3C3C
3C3C
7878
7070
F0F0
E0E0
ENDCHAR
STARTCHAR 00BC
ENCODING 188
SWIDTH 848 0
DWIDTH 33 0
BBX 31 27 2 0
BITMAP
0E000700
1E000E00
7E001E00
F6001C00
46003C00
06003800
06007800
06007000
0600E000
0601E000
0601C000
0603C000
06038038
06078078
060700F8
000F01F8
000E03B8
001C0338
003C0738
00380E38
00780C38
00701FFE
00F01FFE
00E00038
01C00038
03C00038
03800038
ENDCHAR
STARTCHAR 00BD
ENCODING 189
SWIDTH 848 0
DWIDTH 33 0
BBX 30 27 2 0
BITMAP
0E000E00
1E001E00
7E001C00
F6003800
46007800
06007000
0600F000
0600E000
0601E000
0601C000
0603C000
06038000
060707F0
060F1FF8
060E0C38
001E001C
001C0018
003C0038
00380078
007000F0
00F001E0
00E003C0
01E00780
01C00E00
03C00FFC
03800FFC
07000FFC
ENDCHAR
STARTCHAR 00BE
ENCODING 190
SWIDTH 848 0
DWIDTH 33 0
BBX 32 28 1 0
BITMAP
04000000
7F8003C0
7FC00380
41C00700
00C00F00
01C00E00
03801E00
1F001C00
1FC03C00
01E03800
00E07000
00E07000
00E0E000
63E1E01C
FFC1C03C
7F03C07C
000380FC
000781DC
0007019C
000E039C
001E071C
001C061C
003C0FFF
00380FFF
0078001C
0070001C
00E0001C
01E0001C
ENDCHAR
STARTCHAR 00BF
ENCODING 191
SWIDTH 385 0
DWIDTH 15 0
BBX 14 27 1 -7
BITMAP
03C0
07C0
07E0
03C0
03C0
0000
0000
0000
0000
01C0
01C0
03C0
0380
0780
0F00
1E00
3C00
7800
7800
F000
F000
F000
F000
F808
7FFC
3FFC
1FF0
ENDCHAR
STARTCHAR 00C0
ENCODING 192
SWIDTH 642 0
DWIDTH 25 0
BBX 25 36 0 0
BITMAP
00200000
00700000
00780000
003C0000
001C0000
000E0000
00060000
00000000
00000000
001E0000
003E0000
003F0000
003F0000
007F8000
00778000
00F3C000
00E3C000
01E1C000
01E1E000
01C1E000
03C0F000
0380F000
0780F000
07807800
07007800
0F003C00
0FFFFC00
1FFFFC00
1FFFFE00
1E001E00
3C001E00
3C000F00
38000F00
78000F80
78000780
F0000780
ENDCHAR
STARTCHAR 00C1
ENCODING 193
SWIDTH 642 0
DWIDTH 25 0
BBX 25 36 0 0
BITMAP
00010000
00038000
00078000
000F0000
001E0000
001C0000
00180000
00000000
00000000
001E0000
003E0000
003F0000
003F0000
007F8000
00778000
00F3C000
00E3C000
01E1C000
01E1E000
01C1E000
03C0F000
0380F000
0780F000
07807800
07007800
0F003C00
0FFFFC00
1FFFFC00
1FFFFE00
1E001E00
3C001E00
3C000F00
38000F00
78000F80
78000780
F0000780
ENDCHAR
STARTCHAR 00C2
ENCODING 194
SWIDTH 642 0
DWIDTH 25 0
BBX 25 36 0 0
BITMAP
00080000
001C0000
001E0000
003F0000
00738000
00E1C000
00C08000
00000000
00000000
001E0000
003E0000
003F0000
003F0000
007F8000
00778000
00F3C000
00E3C000
01E1C000
01E1E000
01C1E000
03C0F000
0380F000
0780F000
07807800
07007800
0F003C00
0FFFFC00
1FFFFC00
1FFFFE00
1E001E00
3C001E00
3C000F00
38000F00
78000F80
78000780
F0000780
ENDCHAR
STARTCHAR 00C3
ENCODING 195
SWIDTH 642 0
DWIDTH 25 0
BBX 25 35 0 0
BITMAP
00004000
00F86000
01FFE000
01DFC000
01830000
00000000
00000000
00000000
001E0000
003E0000
003F0000
003F0000
007F8000
00778000
00F3C000
00E3C000
01E1C000
01E1E000
01C1E000
03C0F000
0380F000
0780F000
07807800
07007800
0F003C00
0FFFFC00
1FFFFC00
1FFFFE00
1E001E00
3C001E00
3C000F00
38000F00
78000F80
78000780
F0000780
ENDCHAR
STARTCHAR 00C4
ENCODING 196
SWIDTH 642 0
DWIDTH 25 0
BBX 25 35 0 0
BITMAP
00408000
01E1E000
01E3E000
01E3E000
00E1C000
00000000
00000000
00000000
001E0000
003E0000
003F0000
003F0000
007F8000
00778000
00F3C000
00E3C000
01E1C000
01E1E000
01C1E000
03C0F000
0380F000
0780F000
07807800
07007800
0F003C00
0FFFFC00
1FFFFC00
1FFFFE00
1E001E00
3C001E00
3C000F00
38000F00
78000F80
78000780
F0000780
ENDCHAR
STARTCHAR 00C5
ENCODING 197
SWIDTH 642 0
DWIDTH 25 0
BBX 25 33 0 0
BITMAP
000C0000
003F0000
00730000
00618000
00618000
00618000
007F0000
003E0000
003F0000
003F0000
007F8000
00778000
00F3C000
00E3C000
01E1C000
01E1E000
01C1E000
03C0F000
0380F000
0780F000
07807800
07007800
0F003C00
0FFFFC00
1FFFFC00
1FFFFE00
1E001E00
3C001E00
3C000F00
38000F00
78000F80
78000780
F0000780
ENDCHAR
STARTCHAR 00C6
ENCODING 198
SWIDTH 925 0
DWIDTH 36 0
BBX 35 27 0 0
BITMAP
0000FFFFC0
0000FFFFC0
0001FFFFC0
0003DC0000
00039C0000
00079C0000
000F1C0000
000E1C0000
001E1C0000
003C1C0000
003C1C0000
00781FFF80
00F01FFF80
00F01FFF80
01E01C0000
01E01C0000
03C01C0000
07FFFC0000
07FFFC0000
0FFFFC0000
0F001C0000
1E001C0000
1E001C0000
3C001C0000
3C001FFFE0
78001FFFE0
F8001FFFE0
ENDCHAR
STARTCHAR 00C7
ENCODING 199
SWIDTH 617 0
DWIDTH 24 0
BBX 21 35 2 -7
BITMAP
000C00
00FFE0
03FFF8
07FFF8
0FC030
1F0000
3E0000
3C0000
7C0000
780000
780000
F80000
F00000
F00000
F00000
F00000
F00000
F00000
780000
780000
780000
3C0000
3E0000
1F0000
1F8030
0FFFF8
03FFF8
01FFF0
001C00
003800
003C00
001E00
000E00
00FE00
00FC00
ENDCHAR
STARTCHAR 00C8
ENCODING 200
SWIDTH 565 0
DWIDTH 22 0
BBX 18 36 3 0
BITMAP
030000
078000
078000
03C000
01E000
00F000
006000
000000
000000
FFFF80
FFFF80
FFFF80
F00000
F00000
F00000
F00000
F00000
F00000
F00000
F00000
FFFE00
FFFE00
FFFE00
F00000
F00000
F00000
F00000
F00000
F00000
F00000
F00000
F00000
F00000
FFFFC0
FFFFC0
FFFFC0
ENDCHAR
STARTCHAR 00C9
ENCODING 201
SWIDTH 565 0
DWIDTH 22 0
BBX 18 36 3 0
BITMAP
001800
003C00
003C00
007800
00F000
01E000
00C000
000000
000000
FFFF80
FFFF80
FFFF80
F00000
F00000
F00000
F00000
F00000
F00000
F00000
F00000
FFFE00
FFFE00
FFFE00
F00000
F00000
F00000
F00000
F00000
F00000
F00000
F00000
F00000
F00000
FFFFC0
FFFFC0
FFFFC0
ENDCHAR
STARTCHAR 00CA
ENCODING 202
SWIDTH 565 0
DWIDTH 22 0
BBX 18 36 3 0
BITMAP
008000
01C000
03E000
07F000
0F7800
1E3C00
0C1800
000000
000000
FFFF80
FFFF80
FFFF80
F00000
F00000
F00000
F00000
F00000
F00000
F00000
F00000
FFFE00
FFFE00
FFFE00
F00000
F00000
F00000
F00000
F00000
F00000
F00000
F00000
F00000
F00000
FFFFC0
FFFFC0
FFFFC0
ENDCHAR
STARTCHAR 00CB
ENCODING 203
SWIDTH 565 0
DWIDTH 22 0
BBX 18 35 3 0
BITMAP
0C0800
1E3C00
1E3C00
1E3C00
0C1C00
000000
000000
000000
FFFF80
FFFF80
FFFF80
F00000
F00000
F00000
F00000
F00000
F00000
F00000
F00000
FFFE00
FFFE00
FFFE00
F00000
F00000
F00000
F00000
F00000
F00000
F00000
F00000
F00000
F00000
FFFFC0
FFFFC0
FFFFC0
ENDCHAR
STARTCHAR 00CC
ENCODING 204
SWIDTH 257 0
DWIDTH 10 0
BBX 7 36 1 0
BITMAP
60
E0
F0
78
3C
1E
0C
00
00
3C
3C
3C
3C
3C
3C
3C
3C
3C
3C
3C
3C
3C
3C
3C
3C
3C
3C
3C
3C
3C
3C
3C
3C
3C
3C
3C
ENDCHAR
STARTCHAR 00CD
ENCODING 205
SWIDTH 257 0
DWIDTH 10 0
BBX 6 36 3 0
BITMAP
08
1C
3C
78
70
E0
C0
00
00
F0
F0
F0
F0
F0
F0
F0
F0
F0
F0
F0
F0
F0
F0
F0
F0
F0
F0
F0
F0
F0
F0
F0
F0
F0
F0
F0
ENDCHAR
STARTCHAR 00CE
ENCODING 206
SWIDTH 257 0
DWIDTH 10 0
BBX 10 36 0 0
BITMAP
0400
0E00
1F00
3F80
7BC0
E1C0
40C0
0000
0000
1E00
1E00
1E00
1E00
1E00
1E00
1E00
1E00
1E00
1E00
1E00
1E00
1E00
1E00
1E00
1E00
1E00
1E00
1E00
1E00
1E00
1E00
1E00
1E00
1E00
1E00
1E00
ENDCHAR
STARTCHAR 00CF
ENCODING 207
SWIDTH 257 0
DWIDTH 10 0
BBX 12 35 -1 0
BITMAP
2060
70F0
F8F0
F8F0
7060
0000
0000
0000
0F00
0F00
0F00
0F00
0F00
0F00
0F00
0F00
0F00
0F00
0F00
0F00
0F00
0F00
0F00
0F00
0F00
0F00
0F00
0F00
0F00
0F00
0F00
0F00
0F00
0F00
0F00
ENDCHAR
STARTCHAR 00D0
ENCODING 208
SWIDTH 720 0
DWIDTH 28 0
BBX 25 27 1 0
BITMAP
1FFF0000
1FFFC000
1FFFF000
1E03F800
1E007C00
1E003E00
1E001E00
1E000F00
1E000F00
1E000F80
1E000780
FFF00780
FFF00780
FFF00780
1E000780
1E000780
1E000780
1E000F80
1E000F00
1E000F00
1E001E00
1E003E00
1E007C00
1E03F800
1FFFF000
1FFFC000
1FFF0000
ENDCHAR
STARTCHAR 00D1
ENCODING 209
SWIDTH 720 0
DWIDTH 28 0
BBX 22 34 3 1
BITMAP
01F180
03FF80
073F00
020E00
000000
000000
000000
F0003C
F8003C
FC003C
FC003C
FE003C
FF003C
FF803C
F7C03C
F3C03C
F1E03C
F0F03C
F0F83C
F0783C
F03C3C
F01E3C
F01E3C
F00F3C
F007BC
F007BC
F003FC
F001FC
F001FC
F000FC
F0007C
F0007C
F0003C
F0003C
ENDCHAR
STARTCHAR 00D2
ENCODING 210
SWIDTH 771 0
DWIDTH 30 0
BBX 26 37 2 -1
BITMAP
00200000
00700000
00780000
003C0000
001E0000
000F0000
00060000
00000000
000C0000
00FFE000
03FFF000
07FFFC00
0F807E00
1F003E00
3E001F00
3C000F80
78000780
78000780
780007C0
F00003C0
F00003C0
F00003C0
F00003C0
F00003C0
F00003C0
F00003C0
780007C0
78000780
78000780
3C000F80
3E001F00
1F003E00
0F807E00
07FFFC00
03FFF000
00FFE000
001C0000
ENDCHAR
STARTCHAR 00D3
ENCODING 211
SWIDTH 771 0
DWIDTH 30 0
BBX 26 37 2 -1
BITMAP
00010000
00038000
00078000
000F0000
000E0000
001C0000
00180000
00000000
000C0000
00FFE000
03FFF000
07FFFC00
0F807E00
1F003E00
3E001F00
3C000F80
78000780
78000780
780007C0
F00003C0
F00003C0
F00003C0
F00003C0
F00003C0
F00003C0
F00003C0
780007C0
78000780
78000780
3C000F80
3E001F00
1F003E00
0F807E00
07FFFC00
03FFF000
00FFE000
001C0000
ENDCHAR
STARTCHAR 00D4
ENCODING 212
SWIDTH 771 0
DWIDTH 30 0
BBX 26 37 2 -1
BITMAP
00040000
000E0000
001E0000
003F0000
00738000
00E1C000
0040C000
00000000
000C0000
00FFE000
03FFF000
07FFFC00
0F807E00
1F003E00
3E001F00
3C000F80
78000780
78000780
780007C0
F00003C0
F00003C0
F00003C0
F00003C0
F00003C0
F00003C0
F00003C0
780007C0
78000780
78000780
3C000F80
3E001F00
1F003E00
0F807E00
07FFFC00
03FFF000
00FFE000
001C0000
ENDCHAR
STARTCHAR 00D5
ENCODING 213
SWIDTH 771 0
DWIDTH 30 0
BBX 26 35 2 0
BITMAP
00FC6000
00FFE000
01CFC000
00838000
00000000
00000000
000C0000
00FFE000
03FFF000
07FFFC00
0F807E00
1F003E00
3E001F00
3C000F80
78000780
78000780
780007C0
F00003C0
F00003C0
F00003C0
F00003C0
F00003C0
F00003C0
F00003C0
780007C0
78000780
78000780
3C000F80
3E001F00
1F003E00
0F807E00
07FFFC00
03FFF000
00FFE000
001C0000
ENDCHAR
STARTCHAR 00D6
ENCODING 214
SWIDTH 771 0
DWIDTH 30 0
BBX 26 36 2 -1
BITMAP
0040C000
01E1E000
01F1E000
01F1E000
00E1C000
00000000
00000000
000C0000
00FFE000
03FFF000
07FFFC00
0F807E00
1F003E00
3E001F00
3C000F80
78000780
78000780
780007C0
F00003C0
F00003C0
F00003C0
F00003C0
F00003C0
F00003C0
F00003C0
780007C0
78000780
78000780
3C000F80
3E001F00
1F003E00
0F807E00
07FFFC00
03FFF000
00FFE000
001C0000
ENDCHAR
STARTCHAR 00D7
ENCODING 215
SWIDTH 540 0
DWIDTH 21 0
BBX 16 15 3 4
BITMAP
6006
F00F
781E
3C3C
1E78
0FF0
07E0
03C0
07E0
0FF0
1E78
3C3C
781E
700E
2004
ENDCHAR
STARTCHAR 00D8
ENCODING 216
SWIDTH 771 0
DWIDTH 30 0
BBX 26 29 2 -1
BITMAP
000C0300
00FFE780
03FFF700
07FFFF00
0F807E00
1F003E00
3E007F00
3C007F80
7800F780
7801E780
7803C7C0
F00383C0
F00783C0
F00F03C0
F01E03C0
F01C03C0
F03C03C0
F07803C0
78F007C0
79E00780
79C00780
3FC00F80
3F801F00
1F003E00
0F807E00
1FFFFC00
3FFFF000
78FFE000
301C0000
ENDCHAR
STARTCHAR 00D9
ENCODING 217
SWIDTH 668 0
DWIDTH 26 0
BBX 21 37 3 -1
BITMAP
018000
03C000
03C000
01E000
00F000
007800
003000
000000
000000
F00078
F00078
F00078
F00078
F00078
F00078
F00078
F00078
F00078
F00078
F00078
F00078
F00078
F00078
F00078
F00078
F00078
F00078
F00078
F000F0
7800F0
7800F0
7C01E0
3E03E0
1FFFC0
0FFF80
07FE00
006000
ENDCHAR
STARTCHAR 00DA
ENCODING 218
SWIDTH 668 0
DWIDTH 26 0
BBX 21 37 3 -1
BITMAP
000C00
001E00
003E00
003C00
007800
00F000
006000
000000
000000
F00078
F00078
F00078
F00078
F00078
F00078
F00078
F00078
F00078
F00078
F00078
F00078
F00078
F00078
F00078
F00078
F00078
F00078
F00078
F000F0
7800F0
7800F0
7C01E0
3E03E0
1FFFC0
0FFF80
07FE00
006000
ENDCHAR
STARTCHAR 00DB
ENCODING 219
SWIDTH 668 0
DWIDTH 26 0
BBX 21 37 3 -1
BITMAP
002000
007000
00F800
01FC00
03DE00
078F00
020600
000000
000000
F00078
F00078
F00078
F00078
F00078
F00078
F00078
F00078
F00078
F00078
F00078
F00078
F00078
F00078
F00078
F00078
F00078
F00078
F00078
F000F0
7800F0
7800F0
7C01E0
3E03E0
1FFFC0
0FFF80
07FE00
006000
ENDCHAR
STARTCHAR 00DC
ENCODING 220
SWIDTH 668 0
DWIDTH 26 0
BBX 21 36 3 -1
BITMAP
020200
078F00
0F8F00
078F00
070600
000000
000000
000000
F00078
F00078
F00078
F00078
F00078
F00078
F00078
F00078
F00078
F00078
F00078
F00078
F00078
F00078
F00078
F00078
F00078
F00078
F00078
F000F0
7800F0
7800F0
7C01E0
3E03E0
1FFFC0
0FFF80
07FE00
006000
ENDCHAR
STARTCHAR 00DD
ENCODING 221
SWIDTH 591 0
DWIDTH 23 0
BBX 23 36 0 0
BITMAP
000600
000700
000F00
001E00
003C00
007800
003000
000000
000000
F8001E
78003C
3C003C
3C0078
1E0078
1E00F0
0F01E0
0F81E0
0783C0
03C3C0
03C780
01E700
01FF00
00FE00
007E00
007C00
003C00
003C00
003C00
003C00
003C00
003C00
003C00
003C00
003C00
003C00
003C00
ENDCHAR
STARTCHAR 00DE
ENCODING 222
SWIDTH 591 0
DWIDTH 23 0
BBX 19 27 3 0
BITMAP
F00000
F00000
F00000
F00000
FFC000
FFFE00
FFFF00
FFFF80
F007C0
F003E0
F001E0
F001E0
F001E0
F001E0
F001E0
F001E0
F003E0
F007C0
FFFF80
FFFF00
FFFC00
F00000
F00000
F00000
F00000
F00000
F00000
ENDCHAR
STARTCHAR 00DF
ENCODING 223
SWIDTH 617 0
DWIDTH 24 0
BBX 20 30 3 0
BITMAP
07F800
1FFC00
3FFE00
7C1F00
780F00
F00700
F00700
F00700
F00F00
F01E00
F03C00
F07C00
F07800
F0F000
F0E000
F0F000
F0F800
F07E00
F03F80
F01FC0
F007E0
F001E0
F000F0
F000F0
F000F0
F000F0
F101E0
F1FFE0
F1FFC0
F1FF80
ENDCHAR
STARTCHAR 00E0
ENCODING 224
SWIDTH 514 0
DWIDTH 20 0
BBX 15 30 2 0
BITMAP
0400
0E00
0F00
0780
03C0
01E0
00C0
0000
0000
0FC0
3FF8
3FFC
3CFC
001E
001E
000E
000E
000E
1FFE
3FFE
7FFE
F80E
F00E
E00E
E00E
F00E
F00E
7FFE
7FFE
1FFE
ENDCHAR
STARTCHAR 00E1
ENCODING 225
SWIDTH 514 0
DWIDTH 20 0
BBX 15 30 2 0
BITMAP
0020
0070
00F8
00F0
01C0
0380
0300
0000
0000
0FC0
3FF8
3FFC
3CFC
001E
001E
000E
000E
000E
1FFE
3FFE
7FFE
F80E
F00E
E00E
E00E
F00E
F00E
7FFE
7FFE
1FFE
ENDCHAR
STARTCHAR 00E2
ENCODING 226
SWIDTH 514 0
DWIDTH 20 0
BBX 15 30 2 0
BITMAP
0080
01C0
03E0
07E0
0F70
1E38
0818
0000
0000
0FC0
3FF8
3FFC
3CFC
001E
001E
000E
000E
000E
1FFE
3FFE
7FFE
F80E
F00E
E00E
E00E
F00E
F00E
7FFE
7FFE
1FFE
ENDCHAR
STARTCHAR 00E3
ENCODING 227
SWIDTH 514 0
DWIDTH 20 0
BBX 15 28 2 1
BITMAP
0F8E
1FFC
39F8
1070
0000
0000
0000
0FC0
3FF8
3FFC
3CFC
001E
001E
000E
000E
000E
1FFE
3FFE
7FFE
F80E
F00E
E00E
E00E
F00E
F00E
7FFE
7FFE
1FFE
ENDCHAR
STARTCHAR 00E4
ENCODING 228
SWIDTH 514 0
DWIDTH 20 0
BBX 15 29 2 0
BITMAP
0810
1C3C
3E3C
3E3C
1C38
0000
0000
0000
0FC0
3FF8
3FFC
3CFC
001E
001E
000E
000E
000E
1FFE
3FFE
7FFE
F80E
F00E
E00E
E00E
F00E
F00E
7FFE
7FFE
1FFE
ENDCHAR
STARTCHAR 00E5
ENCODING 229
SWIDTH 514 0
DWIDTH 20 0
BBX 15 30 2 0
BITMAP
03E0
07F0
0E30
0C30
0C30
0670
07E0
0180
0000
0FC0
3FF8
3FFC
3CFC
001E
001E
000E
000E
000E
1FFE
3FFE
7FFE
F80E
F00E
E00E
E00E
F00E
F00E
7FFE
7FFE
1FFE
ENDCHAR
STARTCHAR 00E6
ENCODING 230
SWIDTH 848 0
DWIDTH 33 0
BBX 29 21 2 0
BITMAP
0FC01E00
3FF07FC0
3FF9FFE0
3CFFF3F0
001FC0F0
001F8078
000F0078
000F0078
000F0038
0FFFFFF8
3FFFFFF8
7FFFFFF8
F80E0000
F00F0000
E00F0000
E00F0000
F0078000
F00FC000
7FFFFFF0
7FFFFFF0
1FF87FF0
ENDCHAR
STARTCHAR 00E7
ENCODING 231
SWIDTH 462 0
DWIDTH 18 0
BBX 15 28 2 -7
BITMAP
01F0
07FE
1FFE
3FFC
3C00
7800
7800
F000
F000
F000
F000
F000
F000
F000
F000
7800
7C00
3E00
3FFE
0FFE
07FE
00C0
01C0
01E0
0070
0070
07F0
07E0
ENDCHAR
STARTCHAR 00E8
ENCODING 232
SWIDTH 540 0
DWIDTH 21 0
BBX 18 30 2 0
BITMAP
020000
070000
078000
03C000
01E000
00F000
006000
000000
000000
01E000
07FC00
1FFE00
3F3F00
3C0F80
780780
700780
F00380
F003C0
FFFFC0
FFFFC0
FFFFC0
F00000
F00000
F00000
780000
780000
3E0100
3FFF00
1FFF00
07FF00
ENDCHAR
STARTCHAR 00E9
ENCODING 233
SWIDTH 540 0
DWIDTH 21 0
BBX 18 30 2 0
BITMAP
001000
003800
007800
00F000
00E000
01C000
018000
000000
000000
01E000
07FC00
1FFE00
3F3F00
3C0F80
780780
700780
F00380
F003C0
FFFFC0
FFFFC0
FFFFC0
F00000
F00000
F00000
780000
780000
3E0100
3FFF00
1FFF00
07FF00
ENDCHAR
STARTCHAR 00EA
ENCODING 234
SWIDTH 540 0
DWIDTH 21 0
BBX 18 30 2 0
BITMAP
004000
00C000
01E000
03F000
07B800
0E1C00
040C00
000000
000000
01E000
07FC00
1FFE00
3F3F00
3C0F80
780780
700780
F00380
F003C0
FFFFC0
FFFFC0
FFFFC0
F00000
F00000
F00000
780000
780000
3E0100
3FFF00
1FFF00
07FF00
ENDCHAR
STARTCHAR 00EB
ENCODING 235
SWIDTH 540 0
DWIDTH 21 0
BBX 18 29 2 0
BITMAP
040800
1E1E00
1F1E00
1F1E00
0E1C00
000000
000000
000000
01E000
07FC00
1FFE00
3F3F00
3C0F80
780780
700780
F00380
F003C0
FFFFC0
FFFFC0
FFFFC0
F00000
F00000
F00000
780000
780000
3E0100
3FFF00
1FFF00
07FF00
ENDCHAR
STARTCHAR 00EC
ENCODING 236
SWIDTH 231 0
DWIDTH 9 0
BBX 6 30 1 0
BITMAP
40
E0
F0
78
3C
1C
0C
00
00
00
3C
3C
3C
3C
3C
3C
3C
3C
3C
3C
3C
3C
3C
3C
3C
3C
3C
3C
3C
3C
ENDCHAR
STARTCHAR 00ED
ENCODING 237
SWIDTH 231 0
DWIDTH 9 0
BBX 6 30 3 0
BITMAP
08
1C
3C
78
F0
E0
C0
00
00
00
F0
F0
F0
F0
F0
F0
F0
F0
F0
F0
F0
F0
F0
F0
F0
F0
F0
F0
F0
F0
ENDCHAR
STARTCHAR 00EE
ENCODING 238
SWIDTH 231 0
DWIDTH 9 0
BBX 10 29 0 1
BITMAP
0C00
1E00
3F00
7380
E1C0
C080
0000
0000
0000
1E00
1E00
1E00
1E00
1E00
1E00
1E00
1E00
1E00
1E00
1E00
1E00
1E00
1E00
1E00
1E00
1E00
1E00
1E00
1E00
ENDCHAR
STARTCHAR 00EF
ENCODING 239
SWIDTH 231 0
DWIDTH 9 0
BBX 12 29 -1 0
BITMAP
0040
F0F0
F1F0
F1F0
70E0
0000
0000
0000
0000
0F00
0F00
0F00
0F00
0F00
0F00
0F00
0F00
0F00
0F00
0F00
0F00
0F00
0F00
0F00
0F00
0F00
0F00
0F00
0F00
ENDCHAR
STARTCHAR 00F0
ENCODING 240
SWIDTH 565 0
DWIDTH 22 0
BBX 20 31 2 -1
BITMAP
006000
00F000
007820
003DF0
001FF0
007F80
01FF00
00E780
000780
000380
0003C0
03F3C0
0FFDC0
3FFFC0
3E0FE0
7803E0
7801E0
F001E0
F001E0
F001E0
F001E0
F001C0
F003C0
F003C0
7803C0
780780
3C0F80
3FFF00
1FFE00
07FC00
00C000
ENDCHAR
STARTCHAR 00F1
ENCODING 241
SWIDTH 565 0
DWIDTH 22 0
BBX 16 28 3 1
BITMAP
0F8E
1FFC
39F8
1070
0000
0000
0000
03C0
FFF8
FFFC
FFFE
F01F
F00F
F00F
F007
F007
F007
F007
F007
F007
F007
F007
F007
F007
F007
F007
F007
F007
ENDCHAR
STARTCHAR 00F2
ENCODING 242
SWIDTH 565 0
DWIDTH 22 0
BBX 19 31 2 -1
BITMAP
030000
078000
078000
03C000
01E000
00F000
006000
000000
000000
01F000
07FC00
1FFF00
3FBF80
3C0780
7803C0
7803C0
F001E0
F001E0
F001E0
F001E0
F001E0
F001E0
F001E0
F001E0
7803C0
7807C0
3E0F80
1FFF00
0FFE00
07FC00
004000
ENDCHAR
STARTCHAR 00F3
ENCODING 243
SWIDTH 565 0
DWIDTH 22 0
BBX 19 31 2 -1
BITMAP
001800
003C00
003C00
007800
00F000
01E000
00C000
000000
000000
01F000
07FC00
1FFF00
3FBF80
3C0780
7803C0
7803C0
F001E0
F001E0
F001E0
F001E0
F001E0
F001E0
F001E0
F001E0
7803C0
7807C0
3E0F80
1FFF00
0FFE00
07FC00
004000
ENDCHAR
STARTCHAR 00F4
ENCODING 244
SWIDTH 565 0
DWIDTH 22 0
BBX 19 31 2 -1
BITMAP
004000
00E000
01F000
03F800
07BC00
0F1E00
060C00
000000
000000
01F000
07FC00
1FFF00
3FBF80
3C0780
7803C0
7803C0
F001E0
F001E0
F001E0
F001E0
F001E0
F001E0
F001E0
F001E0
7803C0
7807C0
3E0F80
1FFF00
0FFE00
07FC00
004000
ENDCHAR
STARTCHAR 00F5
ENCODING 245
SWIDTH 565 0
DWIDTH 22 0
BBX 19 29 2 0
BITMAP
07C700
0FFE00
1CFE00
083800
000000
000000
000000
01F000
07FC00
1FFF00
3FBF80
3C0780
7803C0
7803C0
F001E0
F001E0
F001E0
F001E0
F001E0
F001E0
F001E0
F001E0
7803C0
7807C0
3E0F80
1FFF00
0FFE00
07FC00
004000
ENDCHAR
STARTCHAR 00F6
ENCODING 246
SWIDTH 565 0
DWIDTH 22 0
BBX 19 29 2 0
BITMAP
0F1E00
0F1E00
0F1E00
0E0E00
000000
000000
000000
01F000
07FC00
1FFF00
3FBF80
3C0780
7803C0
7803C0
F001E0
F001E0
F001E0
F001E0
F001E0
F001E0
F001E0
F001E0
7803C0
7807C0
3E0F80
1FFF00
0FFE00
07FC00
004000
ENDCHAR
STARTCHAR 00F7
ENCODING 247
SWIDTH 540 0
DWIDTH 21 0
BBX 18 19 2 3
BITMAP
01E000
01E000
01E000
01E000
000000
000000
000000
000000
FFFFC0
FFFFC0
FFFFC0
000000
000000
000000
000000
01E000
01E000
01E000
01E000
ENDCHAR
STARTCHAR 00F8
ENCODING 248
SWIDTH 565 0
DWIDTH 22 0
BBX 19 22 2 0
BITMAP
01E0C0
07FDC0
1FFFC0
3FBF80
3C0780
780FC0
781FC0
F03DE0
F039E0
F071E0
F0E1E0
F1E1E0
F1C1E0
F381E0
F701E0
7F03C0
7E03C0
3C0F80
3FFF00
7FFE00
F7FC00
604000
ENDCHAR
STARTCHAR 00F9
ENCODING 249
SWIDTH 565 0
DWIDTH 22 0
BBX 16 30 3 0
BITMAP
0400
0E00
0F00
0780
03C0
01C0
00C0
0000
0000
0000
F007
F007
F007
F007
F007
F007
F007
F007
F007
F007
F007
F007
F007
F007
F007
F807
7C07
7FFF
3FFF
0FFF
ENDCHAR
STARTCHAR 00FA
ENCODING 250
SWIDTH 565 0
DWIDTH 22 0
BBX 16 30 3 0
BITMAP
0020
0070
00F0
01E0
01C0
0380
0300
0000
0000
0000
F007
F007
F007
F007
F007
F007
F007
F007
F007
F007
F007
F007
F007
F007
F007
F807
7C07
7FFF
3FFF
0FFF
ENDCHAR
STARTCHAR 00FB
ENCODING 251
SWIDTH 565 0
DWIDTH 22 0
BBX 16 29 3 1
BITMAP
0180
03C0
07E0
0E70
1C38
1818
0000
0000
0000
F007
F007
F007
F007
F007
F007
F007
F007
F007
F007
F007
F007
F007
F007
F007
F807
7C07
7FFF
3FFF
0FFF
ENDCHAR
STARTCHAR 00FC
ENCODING 252
SWIDTH 565 0
DWIDTH 22 0
BBX 16 29 3 0
BITMAP
0810
3C3C
3E7C
3E3C
1C38
0000
0000
0000
0000
F007
F007
F007
F007
F007
F007
F007
F007
F007
F007
F007
F007
F007
F007
F007
F807
7C07
7FFF
3FFF
0FFF
ENDCHAR
STARTCHAR 00FD
ENCODING 253
SWIDTH 488 0
DWIDTH 19 0
BBX 18 37 0 -7
BITMAP
000800
001C00
003C00
007800
007000
00E000
00C000
000000
000000
000000
7801C0
7803C0
7803C0
3C03C0
3C0380
3C0780
1C0780
1E0780
1E0700
0F0F00
0F0F00
070E00
079E00
079E00
03DC00
03FC00
01FC00
01F800
00F800
00F000
007000
00E000
01E000
03C000
7FC000
FF8000
FE0000
ENDCHAR
STARTCHAR 00FE
ENCODING 254
SWIDTH 565 0
DWIDTH 22 0
BBX 18 37 3 -7
BITMAP
F00000
F00000
F00000
F00000
F00000
F00000
F00000
F00000
F00000
F3C000
FFF800
FFFC00
FFFE00
F01F00
F00F80
F00780
F003C0
F003C0
F003C0
F003C0
F003C0
F003C0
F003C0
F00380
F00780
F00780
F81F00
FFFF00
FFFE00
FFF800
F00000
F00000
F00000
F00000
F00000
F00000
F00000
ENDCHAR
STARTCHAR 00FF
ENCODING 255
SWIDTH 488 0
DWIDTH 19 0
BBX 18 36 0 -7
BITMAP
020400
070F00
0F8F00
0F8F00
070E00
000000
000000
000000
000000
7801C0
7803C0
7803C0
3C03C0
3C0380
3C0780
1C0780
1E0780
1E0700
0F0F00
0F0F00
070E00
079E00
079E00
03DC00
03FC00
01FC00
01F800
00F800
00F000
007000
00E000
01E000
03C000
7FC000
FF8000
FE0000
ENDCHAR
STARTCHAR 0100
ENCODING 256
SWIDTH 642 0
DWIDTH 25 0
BBX 25 34 0 0
BITMAP
01FFC000
01FFC000
01FFC000
00000000
00000000
00000000
00000000
001E0000
003E0000
003F0000
003F0000
007F8000
00778000
00F3C000
00E3C000
01E1C000
01E1E000
01C1E000
03C0F000
0380F000
0780F000
07807800
07007800
0F003C00
0FFFFC00
1FFFFC00
1FFFFE00
1E001E00
3C001E00
3C000F00
38000F00
78000F80
78000780
F0000780
ENDCHAR
STARTCHAR 0101
ENCODING 257
SWIDTH 514 0
DWIDTH 20 0
BBX 15 28 2 0
BITMAP
1FFC
1FFC
1FFC
0000
0000
0000
0000
0FC0
3FF8
3FFC
3CFC
001E
001E
000E
000E
000E
1FFE
3FFE
7FFE
F80E
F00E
E00E
E00E
F00E
F00E
7FFE
7FFE
1FFE
ENDCHAR
STARTCHAR 0102
ENCODING 258
SWIDTH 642 0
DWIDTH 25 0
BBX 25 35 0 0
BITMAP
00C0C000
00E1C000
00F7C000
007F8000
003F0000
00000000
00000000
00000000
001E0000
003E0000
003F0000
003F0000
007F8000
00778000
00F3C000
00E3C000
01E1C000
01E1E000
01C1E000
03C0F000
0380F000
0780F000
07807800
07007800
0F003C00
0FFFFC00
1FFFFC00
1FFFFE00
1E001E00
3C001E00
3C000F00
38000F00
78000F80
78000780
F0000780
ENDCHAR
STARTCHAR 0103
ENCODING 259
SWIDTH 514 0
DWIDTH 20 0
BBX 15 29 2 0
BITMAP
1818
1C18
0E78
0FF0
07E0
0000
0000
0000
0FC0
3FF8
3FFC
3CFC
001E
001E
000E
000E
000E
1FFE
3FFE
7FFE
F80E
F00E
E00E
E00E
F00E
F00E
7FFE
7FFE
1FFE
ENDCHAR
STARTCHAR 0104
ENCODING 260
SWIDTH 642 0
DWIDTH 25 0
BBX 26 34 0 -7
BITMAP
001E0000
003E0000
003F0000
003F0000
007F8000
00778000
00F3C000
00E3C000
01E1C000
01E1E000
01C1E000
03C0F000
0380F000
0780F000
07807800
07007800
0F003C00
0FFFFC00
1FFFFC00
1FFFFE00
1E001E00
3C001E00
3C000F00
38000F00
78000F80
78000780
F0000780
00000780
00000E00
00001E00
00001C00
00001E00
00001F80
00000FC0
ENDCHAR
STARTCHAR 0105
ENCODING 261
SWIDTH 514 0
DWIDTH 20 0
BBX 15 28 2 -7
BITMAP
0FC0
3FF8
3FFC
3CFC
001E
001E
000E
000E
000E
1FFE
3FFE
7FFE
F80E
F00E
E00E
E00E
F00E
F00E
7FFE
7FFE
1FFE
001C
0038
0070
0070
0078
007E
003E
ENDCHAR
STARTCHAR 0106
ENCODING 262
SWIDTH 617 0
DWIDTH 24 0
BBX 21 37 2 -1
BITMAP
000200
000700
000F80
000F00
001C00
003800
003000
000000
000C00
00FFE0
03FFF8
07FFF8
0FC030
1F0000
3E0000
3C0000
7C0000
780000
780000
F80000
F00000
F00000
F00000
F00000
F00000
F00000
780000
780000
780000
3C0000
3E0000
1F0000
1F8030
0FFFF8
03FFF8
01FFF0
000C00
ENDCHAR
STARTCHAR 0107
ENCODING 263
SWIDTH 462 0
DWIDTH 18 0
BBX 15 30 2 0
BITMAP
0010
0038
0078
00F0
00E0
01C0
0180
0000
0000
01F0
07FE
1FFE
3FFC
3C00
7800
7800
F000
F000
F000
F000
F000
F000
F000
F000
7800
7C00
3E00
3FFE
1FFE
07FE
ENDCHAR
STARTCHAR 0108
ENCODING 264
SWIDTH 617 0
DWIDTH 24 0
BBX 21 37 2 -1
BITMAP
000800
001C00
003E00
007F00
00F780
01E380
008180
000000
000C00
00FFE0
03FFF8
07FFF8
0FC030
1F0000
3E0000
3C0000
7C0000
780000
780000
F80000
F00000
F00000
F00000
F00000
F00000
F00000
780000
780000
780000
3C0000
3E0000
1F0000
1F8030
0FFFF8
03FFF8
01FFF0
000C00
ENDCHAR
STARTCHAR 0109
ENCODING 265
SWIDTH 462 0
DWIDTH 18 0
BBX 15 30 2 0
BITMAP
0040
00E0
01E0
03F0
07B8
0E1C
040C
0000
0000
01F0
07FE
1FFE
3FFC
3C00
7800
7800
F000
F000
F000
F000
F000
F000
F000
F000
7800
7C00
3E00
3FFE
1FFE
07FE
ENDCHAR
STARTCHAR 010A
ENCODING 266
SWIDTH 617 0
DWIDTH 24 0
BBX 21 36 2 -1
BITMAP
001800
003C00
003E00
003C00
001C00
000000
000000
000C00
00FFE0
03FFF8
07FFF8
0FC030
1F0000
3E0000
3C0000
7C0000
780000
780000
F80000
F00000
F00000
F00000
F00000
F00000
F00000
780000
780000
780000
3C0000
3E0000
1F0000
1F8030
0FFFF8
03FFF8
01FFF0
000C00
ENDCHAR
STARTCHAR 010B
ENCODING 267
SWIDTH 462 0
DWIDTH 18 0
BBX 15 29 2 0
BITMAP
00C0
01E0
01E0
01E0
00E0
0000
0000
0000
01F0
07FE
1FFE
3FFC
3C00
7800
7800
F000
F000
F000
F000
F000
F000
F000
F000
7800
7C00
3E00
3FFE
1FFE
07FE
ENDCHAR
STARTCHAR 010C
ENCODING 268
SWIDTH 617 0
DWIDTH 24 0
BBX 21 37 2 -1
BITMAP
008180
01C380
00E780
007F00
003E00
001C00
000800
000000
000C00
00FFE0
03FFF8
07FFF8
0FC030
1F0000
3E0000
3C0000
7C0000
780000
780000
F80000
F00000
F00000
F00000
F00000
F00000
F00000
780000
780000
780000
3C0000
3E0000
1F0000
1F8030
0FFFF8
03FFF8
01FFF0
000C00
ENDCHAR
STARTCHAR 010D
ENCODING 269
SWIDTH 462 0
DWIDTH 18 0
BBX 15 30 2 0
BITMAP
0408
0E1C
073C
03F8
01F0
00E0
00C0
0000
0000
01F0
07FE
1FFE
3FFC
3C00
7800
7800
F000
F000
F000
F000
F000
F000
F000
F000
7800
7C00
3E00
3FFE
1FFE
07FE
ENDCHAR
STARTCHAR 010E
ENCODING 270
SWIDTH 694 0
DWIDTH 27 0
BBX 22 36 3 0
BITMAP
020400
070E00
079C00
03F800
01F000
00E000
006000
000000
000000
FFF800
FFFF00
FFFF80
F00FE0
F003F0
F001F0
F000F8
F00078
F0003C
F0003C
F0003C
F0003C
F0003C
F0003C
F0003C
F0003C
F0003C
F0003C
F0003C
F00078
F000F8
F001F0
F003F0
F00FE0
FFFFC0
FFFF00
FFF800
ENDCHAR
STARTCHAR 010F
ENCODING 271
SWIDTH 617 0
DWIDTH 24 0
BBX 24 30 2 0
BITMAP
0003C7
0003C7
0003C7
0003C7
0003C6
0003C6
0003C6
0003C6
0003C6
01C3C0
0FFFC0
1FFFC0
3FFFC0
7C07C0
7803C0
7803C0
F003C0
F003C0
F003C0
F003C0
F003C0
F003C0
F003C0
F003C0
7803C0
7C03C0
3E03C0
1FFFC0
0FFFC0
07FFC0
ENDCHAR
STARTCHAR 0110
ENCODING 272
SWIDTH 720 0
DWIDTH 28 0
BBX 25 27 1 0
BITMAP
1FFF0000
1FFFC000
1FFFF000
1E03F800
1E007C00
1E003E00
1E001E00
1E000F00
1E000F00
1E000F80
1E000780
FFF00780
FFF00780
FFF00780
1E000780
1E000780
1E000780
1E000F80
1E000F00
1E000F00
1E001E00
1E003E00
1E007C00
1E03F800
1FFFF000
1FFFC000
1FFF0000
ENDCHAR
STARTCHAR 0111
ENCODING 273
SWIDTH 565 0
DWIDTH 22 0
BBX 21 30 2 0
BITMAP
0003C0
0003C0
0003C0
01FFF8
01FFF8
01FFF8
0003C0
0003C0
0003C0
0083C0
07FFC0
1FFFC0
3FFFC0
3C07C0
7803C0
7803C0
F003C0
F003C0
F003C0
F003C0
F003C0
F003C0
F003C0
F003C0
7803C0
7C03C0
3E03C0
1FFFC0
0FFFC0
07FFC0
ENDCHAR
STARTCHAR 0112
ENCODING 274
SWIDTH 565 0
DWIDTH 22 0
BBX 18 34 3 0
BITMAP
1FFC00
1FFC00
1FFC00
000000
000000
000000
000000
FFFF80
FFFF80
FFFF80
F00000
F00000
F00000
F00000
F00000
F00000
F00000
F00000
FFFE00
FFFE00
FFFE00
F00000
F00000
F00000
F00000
F00000
F00000
F00000
F00000
F00000
F00000
FFFFC0
FFFFC0
FFFFC0
ENDCHAR
STARTCHAR 0113
ENCODING 275
SWIDTH 540 0
DWIDTH 21 0
BBX 18 28 2 0
BITMAP
1FFC00
1FFC00
1FFC00
000000
000000
000000
000000
01E000
07FC00
1FFE00
3F3F00
3C0F80
780780
700780
F00380
F003C0
FFFFC0
FFFFC0
FFFFC0
F00000
F00000
F00000
780000
780000
3E0100
3FFF00
1FFF00
07FF00
ENDCHAR
STARTCHAR 0114
ENCODING 276
SWIDTH 565 0
DWIDTH 22 0
BBX 18 35 3 0
BITMAP
181800
1C3800
0F7800
0FF000
07E000
000000
000000
000000
FFFF80
FFFF80
FFFF80
F00000
F00000
F00000
F00000
F00000
F00000
F00000
F00000
FFFE00
FFFE00
FFFE00
F00000
F00000
F00000
F00000
F00000
F00000
F00000
F00000
F00000
F00000
FFFFC0
FFFFC0
FFFFC0
ENDCHAR
STARTCHAR 0115
ENCODING 277
SWIDTH 540 0
DWIDTH 21 0
BBX 18 29 2 0
BITMAP
0C0C00
0E1C00
0F3C00
07F800
03F000
000000
000000
000000
01E000
07FC00
1FFE00
3F3F00
3C0F80
780780
700780
F00380
F003C0
FFFFC0
FFFFC0
FFFFC0
F00000
F00000
F00000
780000
780000
3E0100
3FFF00
1FFF00
07FF00
ENDCHAR
STARTCHAR 0116
ENCODING 278
SWIDTH 565 0
DWIDTH 22 0
BBX 18 35 3 0
BITMAP
008000
03E000
03E000
03E000
01C000
000000
000000
000000
FFFF80
FFFF80
FFFF80
F00000
F00000
F00000
F00000
F00000
F00000
F00000
F00000
FFFE00
FFFE00
FFFE00
F00000
F00000
F00000
F00000
F00000
F00000
F00000
F00000
F00000
F00000
FFFFC0
FFFFC0
FFFFC0
ENDCHAR
STARTCHAR 0117
ENCODING 279
SWIDTH 540 0
DWIDTH 21 0
BBX 18 29 2 0
BITMAP
00C000
01E000
01E000
01E000
01E000
000000
000000
000000
01E000
07FC00
1FFE00
3F3F00
3C0F80
780780
700780
F00380
F003C0
FFFFC0
FFFFC0
FFFFC0
F00000
F00000
F00000
780000
780000
3E0100
3FFF00
1FFF00
07FF00
ENDCHAR
STARTCHAR 0118
ENCODING 280
SWIDTH 565 0
DWIDTH 22 0
BBX 18 34 3 -7
BITMAP
FFFF80
FFFF80
FFFF80
F00000
F00000
F00000
F00000
F00000
F00000
F00000
F00000
FFFE00
FFFE00
FFFE00
F00000
F00000
F00000
F00000
F00000
F00000
F00000
F00000
F00000
F00000
FFFFC0
FFFFC0
FFFFC0
000780
000F00
000E00
001E00
001E00
001FC0
000FC0
ENDCHAR
STARTCHAR 0119
ENCODING 281
SWIDTH 540 0
DWIDTH 21 0
BBX 18 28 2 -7
BITMAP
01E000
07FC00
1FFE00
3F3F00
3C0F80
780780
700780
F00380
F003C0
FFFFC0
FFFFC0
FFFFC0
F00000
F00000
F00000
780000
780000
3E0100
3FFF00
1FFF00
07FF00
001E00
003C00
003800
007000
007900
007F00
003F00
ENDCHAR
STARTCHAR 011A
ENCODING 282
SWIDTH 565 0
DWIDTH 22 0
BBX 18 36 3 0
BITMAP
081800
1C3800
0E7800
07F000
03E000
01C000
008000
000000
000000
FFFF80
FFFF80
FFFF80
F00000
F00000
F00000
F00000
F00000
F00000
F00000
F00000
FFFE00
FFFE00
FFFE00
F00000
F00000
F00000
F00000
F00000
F00000
F00000
F00000
F00000
F00000
FFFFC0
FFFFC0
FFFFC0
ENDCHAR
STARTCHAR 011B
ENCODING 283
SWIDTH 540 0
DWIDTH 21 0
BBX 18 30 2 0
BITMAP
040800
0E1C00
073C00
03F800
01F000
01E000
00C000
000000
000000
01E000
07FC00
1FFE00
3F3F00
3C0F80
780780
700780
F00380
F003C0
FFFFC0
FFFFC0
FFFFC0
F00000
F00000
F00000
780000
780000
3E0100
3FFF00
1FFF00
07FF00
ENDCHAR
STARTCHAR 011C
ENCODING 284
SWIDTH 668 0
DWIDTH 26 0
BBX 22 37 2 -1
BITMAP
000800
001C00
003E00
007F00
00F780
01E3C0
00C180
000000
000C00
00FFF0
03FFF8
07FFF8
0FC038
1F0000
3E0000
3C0000
7C0000
780000
780000
F80000
F00000
F00000
F00000
F0003C
F0003C
F0003C
78003C
78003C
78003C
3C003C
3E003C
1F003C
1F803C
0FFFFC
03FFFC
01FFF8
001E00
ENDCHAR
STARTCHAR 011D
ENCODING 285
SWIDTH 565 0
DWIDTH 22 0
BBX 17 37 2 -7
BITMAP
004000
00E000
01F000
01F800
03BC00
071E00
060400
000000
000000
00F000
07FF80
1FFF80
3FFF80
3C0380
780380
780380
F00380
F00380
F00380
F00380
F00380
F00380
F00380
780380
780380
3E0F80
3FFF80
1FFF80
07FB80
000380
000380
000780
000780
201F00
7FFF00
7FFE00
3FF800
ENDCHAR
STARTCHAR 011E
ENCODING 286
SWIDTH 668 0
DWIDTH 26 0
BBX 22 36 2 -1
BITMAP
01C1C0
00C1C0
00F780
007F80
003E00
000000
000000
000C00
00FFF0
03FFF8
07FFF8
0FC038
1F0000
3E0000
3C0000
7C0000
780000
780000
F80000
F00000
F00000
F00000
F0003C
F0003C
F0003C
78003C
78003C
78003C
3C003C
3E003C
1F003C
1F803C
0FFFFC
03FFFC
01FFF8
001E00
ENDCHAR
STARTCHAR 011F
ENCODING 287
SWIDTH 565 0
DWIDTH 22 0
BBX 17 36 2 -7
BITMAP
060600
060E00
079C00
03FC00
01F800
000000
000000
000000
00F000
07FF80
1FFF80
3FFF80
3C0380
780380
780380
F00380
F00380
F00380
F00380
F00380
F00380
F00380
780380
780380
3E0F80
3FFF80
1FFF80
07FB80
000380
000380
000780
000780
201F00
7FFF00
7FFE00
3FF800
ENDCHAR
STARTCHAR 0120
ENCODING 288
SWIDTH 668 0
DWIDTH 26 0
BBX 22 36 2 -1
BITMAP
000C00
001E00
003E00
003E00
001C00
000000
000000
000C00
00FFF0
03FFF8
07FFF8
0FC038
1F0000
3E0000
3C0000
7C0000
780000
780000
F80000
F00000
F00000
F00000
F0003C
F0003C
F0003C
78003C
78003C
78003C
3C003C
3E003C
1F003C
1F803C
0FFFFC
03FFFC
01FFF8
001E00
ENDCHAR
STARTCHAR 0121
ENCODING 289
SWIDTH 565 0
DWIDTH 22 0
BBX 17 36 2 -7
BITMAP
004000
00F000
01F000
00F000
00E000
000000
000000
000000
00F000
07FF80
1FFF80
3FFF80
3C0380
780380
780380
F00380
F00380
F00380
F00380
F00380
F00380
F00380
780380
780380
3E0F80
3FFF80
1FFF80
07FB80
000380
000380
000780
000780
201F00
7FFF00
7FFE00
3FF800
ENDCHAR
STARTCHAR 0122
ENCODING 290
SWIDTH 668 0
DWIDTH 26 0
BBX 22 35 2 -7
BITMAP
000C00
00FFF0
03FFF8
07FFF8
0FC038
1F0000
3E0000
3C0000
7C0000
780000
780000
F80000
F00000
F00000
F00000
F0003C
F0003C
F0003C
78003C
78003C
78003C
3C003C
3E003C
1F003C
1F803C
0FFFFC
03FFFC
01FFF8
001E00
000000
001E00
001C00
003C00
00FC00
00F800
ENDCHAR
STARTCHAR 0123
ENCODING 291
SWIDTH 565 0
DWIDTH 22 0
BBX 17 37 2 -7
BITMAP
003800
007C00
007000
00F000
00F000
00E000
000000
000000
000000
00F000
07FF80
1FFF80
3FFF80
3C0380
780380
780380
F00380
F00380
F00380
F00380
F00380
F00380
F00380
780380
780380
3E0F80
3FFF80
1FFF80
07FB80
000380
000380
000780
000780
201F00
7FFF00
7FFE00
3FF800
ENDCHAR
STARTCHAR 0124
ENCODING 292
SWIDTH 694 0
DWIDTH 27 0
BBX 21 36 3 0
BITMAP
002000
007000
00F800
01FC00
03DE00
078F00
030200
000000
000000
F00078
F00078
F00078
F00078
F00078
F00078
F00078
F00078
F00078
F00078
F00078
FFFFF8
FFFFF8
FFFFF8
FFFFF8
F00078
F00078
F00078
F00078
F00078
F00078
F00078
F00078
F00078
F00078
F00078
F00078
ENDCHAR
STARTCHAR 0125
ENCODING 293
SWIDTH 565 0
DWIDTH 22 0
BBX 17 37 2 0
BITMAP
0C0000
3E0000
7F8000
F38000
408000
000000
000000
780000
780000
780000
780000
780000
780000
780000
780000
780000
78E000
7FFC00
7FFE00
7FFF00
780F80
780780
780780
780380
780380
780380
780380
780380
780380
780380
780380
780380
780380
780380
780380
780380
780380
ENDCHAR
STARTCHAR 0126
ENCODING 294
SWIDTH 720 0
DWIDTH 28 0
BBX 27 27 1 0
BITMAP
1E000F00
1E000F00
1E000F00
1E000F00
FFFFFFE0
FFFFFFE0
FFFFFFE0
1E000F00
1E000F00
1E000F00
1E000F00
1FFFFF00
1FFFFF00
1FFFFF00
1FFFFF00
1E000F00
1E000F00
1E000F00
1E000F00
1E000F00
1E000F00
1E000F00
1E000F00
1E000F00
1E000F00
1E000F00
1E000F00
ENDCHAR
STARTCHAR 0127
ENCODING 295
SWIDTH 565 0
DWIDTH 22 0
BBX 19 30 0 0
BITMAP
1E0000
1E0000
1E0000
FFFC00
FFFC00
FFFC00
1E0000
1E0000
1E0000
1E0000
1FFF00
1FFF80
1FFFC0
1E03E0
1E01E0
1E01E0
1E00E0
1E00E0
1E00E0
1E00E0
1E00E0
1E00E0
1E00E0
1E00E0
1E00E0
1E00E0
1E00E0
1E00E0
1E00E0
1E00E0
ENDCHAR
STARTCHAR 0128
ENCODING 296
SWIDTH 257 0
DWIDTH 10 0
BBX 13 34 -1 1
BITMAP
3E38
7FF0
E7E0
41C0
0000
0000
0000
0F00
0F00
0F00
0F00
0F00
0F00
0F00
0F00
0F00
0F00
0F00
0F00
0F00
0F00
0F00
0F00
0F00
0F00
0F00
0F00
0F00
0F00
0F00
0F00
0F00
0F00
0F00
ENDCHAR
STARTCHAR 0129
ENCODING 297
SWIDTH 231 0
DWIDTH 9 0
BBX 12 29 -1 0
BITMAP
0020
7C30
FFF0
EFE0
C1C0
0000
0000
0000
0000
0F00
0F00
0F00
0F00
0F00
0F00
0F00
0F00
0F00
0F00
0F00
0F00
0F00
0F00
0F00
0F00
0F00
0F00
0F00
0F00
ENDCHAR
STARTCHAR 012A
ENCODING 298
SWIDTH 257 0
DWIDTH 10 0
BBX 11 34 0 0
BITMAP
FFE0
FFE0
FFE0
0000
0000
0000
0000
1E00
1E00
1E00
1E00
1E00
1E00
1E00
1E00
1E00
1E00
1E00
1E00
1E00
1E00
1E00
1E00
1E00
1E00
1E00
1E00
1E00
1E00
1E00
1E00
1E00
1E00
1E00
ENDCHAR
STARTCHAR 012B
ENCODING 299
SWIDTH 231 0
DWIDTH 9 0
BBX 11 28 -1 0
BITMAP
FFE0
FFE0
FFE0
0000
0000
0000
0000
0000
0F00
0F00
0F00
0F00
0F00
0F00
0F00
0F00
0F00
0F00
0F00
0F00
0F00
0F00
0F00
0F00
0F00
0F00
0F00
0F00
ENDCHAR
STARTCHAR 012C
ENCODING 300
SWIDTH 257 0
DWIDTH 10 0
BBX 10 35 0 0
BITMAP
E0C0
E0C0
7BC0
7F80
3F00
0000
0000
0000
1E00
1E00
1E00
1E00
1E00
1E00
1E00
1E00
1E00
1E00
1E00
1E00
1E00
1E00
1E00
1E00
1E00
1E00
1E00
1E00
1E00
1E00
1E00
1E00
1E00
1E00
1E00
ENDCHAR
STARTCHAR 012D
ENCODING 301
SWIDTH 231 0
DWIDTH 9 0
BBX 10 29 0 0
BITMAP
C0C0
E1C0
F3C0
7F80
3F00
0000
0000
0000
0000
1E00
1E00
1E00
1E00
1E00
1E00
1E00
1E00
1E00
1E00
1E00
1E00
1E00
1E00
1E00
1E00
1E00
1E00
1E00
1E00
ENDCHAR
STARTCHAR 012E
ENCODING 302
SWIDTH 257 0
DWIDTH 10 0
BBX 6 34 1 -7
BITMAP
3C
3C
3C
3C
3C
3C
3C
3C
3C
3C
3C
3C
3C
3C
3C
3C
3C
3C
3C
3C
3C
3C
3C
3C
3C
3C
3C
38
70
F0
E0
F0
FC
7C
ENDCHAR
STARTCHAR 012F
ENCODING 303
SWIDTH 231 0
DWIDTH 9 0
BBX 7 36 0 -7
BITMAP
0C
1E
1E
1E
1E
00
00
00
00
1E
1E
1E
1E
1E
1E
1E
1E
1E
1E
1E
1E
1E
1E
1E
1E
1E
1E
1E
1E
1C
38
70
F0
F0
7E
7E
ENDCHAR
STARTCHAR 0130
ENCODING 304
SWIDTH 257 0
DWIDTH 10 0
BBX 5 35 3 0
BITMAP
60
F0
F8
F0
70
00
00
00
F0
F0
F0
F0
F0
F0
F0
F0
F0
F0
F0
F0
F0
F0
F0
F0
F0
F0
F0
F0
F0
F0
F0
F0
F0
F0
F0
ENDCHAR
STARTCHAR 0131
ENCODING 305
SWIDTH 231 0
DWIDTH 9 0
BBX 4 20 3 0
BITMAP
F0
F0
F0
F0
F0
F0
F0
F0
F0
F0
F0
F0
F0
F0
F0
F0
F0
F0
F0
F0
ENDCHAR
STARTCHAR 0132
ENCODING 306
SWIDTH 745 0
DWIDTH 29 0
BBX 24 28 3 -1
BITMAP
F0000F
F0000F
F0000F
F0000F
F0000F
F0000F
F0000F
F0000F
F0000F
F0000F
F0000F
F0000F
F0000F
F0000F
F0000F
F0000F
F0000F
F0000F
F0000F
F0000F
F0000F
F0000F
F0401E
F0603E
F0FFFC
F0FFF8
F03FF0
000300
ENDCHAR
STARTCHAR 0133
ENCODING 307
SWIDTH 488 0
DWIDTH 19 0
BBX 14 36 3 -7
BITMAP
6018
F03C
F03C
F03C
F03C
0000
0000
0000
0000
F03C
F03C
F03C
F03C
F03C
F03C
F03C
F03C
F03C
F03C
F03C
F03C
F03C
F03C
F03C
F03C
F03C
F03C
F03C
F03C
003C
003C
0038
0078
07F8
07F0
0FE0
ENDCHAR
STARTCHAR 0134
ENCODING 308
SWIDTH 488 0
DWIDTH 19 0
BBX 20 37 0 -1
BITMAP
000200
000700
000F80
001FC0
003DE0
0078F0
003060
000000
000000
000700
000700
000700
000700
000700
000700
000700
000700
000700
000700
000700
000700
000700
000700
000700
000700
000700
000700
000F00
000F00
000F00
000F00
001F00
703E00
7FFE00
FFFC00
3FF000
030000
ENDCHAR
STARTCHAR 0135
ENCODING 309
SWIDTH 231 0
DWIDTH 9 0
BBX 13 36 -3 -6
BITMAP
0180
03C0
07E0
0E70
1C38
1810
0000
0000
0000
03C0
03C0
03C0
03C0
03C0
03C0
03C0
03C0
03C0
03C0
03C0
03C0
03C0
03C0
03C0
03C0
03C0
03C0
03C0
03C0
03C0
03C0
0380
0780
7F80
7F00
FC00
ENDCHAR
STARTCHAR 0136
ENCODING 310
SWIDTH 617 0
DWIDTH 24 0
BBX 21 34 3 -7
BITMAP
F001F0
F003E0
F007C0
F00780
F00F00
F01E00
F03C00
F07800
F0F000
F1E000
F3C000
F78000
FF0000
FF8000
F7C000
F3F000
F1F800
F0FC00
F03E00
F01F00
F00F00
F00780
F007C0
F003E0
F001F0
F000F0
F000F8
000000
000000
00F000
00F000
00F000
03E000
03C000
ENDCHAR
STARTCHAR 0137
ENCODING 311
SWIDTH 514 0
DWIDTH 20 0
BBX 16 37 3 -7
BITMAP
F000
F000
F000
F000
F000
F000
F000
F000
F000
F000
F01E
F03C
F078
F0F8
F1F0
F3E0
F7C0
FF80
FF00
FF00
FF80
F7C0
F3E0
F1F0
F0F8
F07C
F03C
F01E
F00F
F00F
0000
0000
03C0
03C0
0780
0F80
0F00
ENDCHAR
STARTCHAR 0138
ENCODING 312
SWIDTH 514 0
DWIDTH 20 0
BBX 17 20 3 0
BITMAP
F00F00
F01E00
F03C00
F07800
F0F000
F1E000
F3C000
F78000
FF0000
FF0000
FF8000
F7C000
F3E000
F1F000
F07800
F07C00
F03E00
F01F00
F00F00
F00780
ENDCHAR
STARTCHAR 0139
ENCODING 313
SWIDTH 514 0
DWIDTH 20 0
BBX 17 36 3 0
BITMAP
040000
0E0000
1E0000
3C0000
380000
700000
600000
000000
000000
F00000
F00000
F00000
F00000
F00000
F00000
F00000
F00000
F00000
F00000
F00000
F00000
F00000
F00000
F00000
F00000
F00000
F00000
F00000
F00000
F00000
F00000
F00000
F00000
FFFF80
FFFF80
FFFF80
ENDCHAR
STARTCHAR 013A
ENCODING 314
SWIDTH 257 0
DWIDTH 10 0
BBX 8 37 2 0
BITMAP
06
1E
7F
FC
60
00
00
78
78
78
78
78
78
78
78
78
78
78
78
78
78
78
78
78
78
78
78
78
78
78
78
78
78
78
7F
3F
1E
ENDCHAR
STARTCHAR 013B
ENCODING 315
SWIDTH 514 0
DWIDTH 20 0
BBX 17 34 3 -7
BITMAP
F00000
F00000
F00000
F00000
F00000
F00000
F00000
F00000
F00000
F00000
F00000
F00000
F00000
F00000
F00000
F00000
F00000
F00000
F00000
F00000
F00000
F00000
F00000
F00000
FFFF80
FFFF80
FFFF80
000000
000000
01C000
01C000
03C000
0FC000
0F8000
ENDCHAR
STARTCHAR 013C
ENCODING 316
SWIDTH 257 0
DWIDTH 10 0
BBX 8 37 2 -7
BITMAP
78
78
78
78
78
78
78
78
78
78
78
78
78
78
78
78
78
78
78
78
78
78
78
78
78
78
78
7F
3F
1E
00
00
3C
3C
78
F8
F0
ENDCHAR
STARTCHAR 013D
ENCODING 317
SWIDTH 514 0
DWIDTH 20 0
BBX 17 27 3 0
BITMAP
F0E000
F0E000
F0E000
F0E000
F0E000
F0C000
F0C000
F0C000
F0C000
F00000
F00000
F00000
F00000
F00000
F00000
F00000
F00000
F00000
F00000
F00000
F00000
F00000
F00000
F00000
FFFF80
FFFF80
FFFF80
ENDCHAR
STARTCHAR 013E
ENCODING 318
SWIDTH 282 0
DWIDTH 11 0
BBX 10 30 3 0
BITMAP
F3C0
F3C0
F3C0
F380
F380
F380
F380
F380
F380
F000
F000
F000
F000
F000
F000
F000
F000
F000
F000
F000
F000
F000
F000
F000
F000
F000
F000
FE00
7E00
3C00
ENDCHAR
STARTCHAR 013F
ENCODING 319
SWIDTH 514 0
DWIDTH 20 0
BBX 17 27 3 0
BITMAP
F00000
F00000
F00000
F00000
F00000
F00000
F00000
F00000
F00000
F00000
F00000
F03C00
F03E00
F03E00
F01C00
F00000
F00000
F00000
F00000
F00000
F00000
F00000
F00000
F00000
FFFF80
FFFF80
FFFF80
ENDCHAR
STARTCHAR 0140
ENCODING 320
SWIDTH 360 0
DWIDTH 14 0
BBX 11 30 3 0
BITMAP
F000
F000
F000
F000
F000
F000
F000
F000
F000
F000
F000
F000
F000
F000
F1E0
F1E0
F1E0
F1E0
F000
F000
F000
F000
F000
F000
F000
F000
F000
FE00
7E00
3C00
ENDCHAR
STARTCHAR 0141
ENCODING 321
SWIDTH 514 0
DWIDTH 20 0
BBX 20 27 0 0
BITMAP
0F0000
0F0000
0F0000
0F0000
0F0000
0F0000
0F0000
0F0000
0F0000
0F3800
0FF800
0FF800
0FE000
3F8000
FF0000
FF0000
6F0000
0F0000
0F0000
0F0000
0F0000
0F0000
0F0000
0F0000
0FFFF0
0FFFF0
0FFFF0
ENDCHAR
STARTCHAR 0142
ENCODING 322
SWIDTH 282 0
DWIDTH 11 0
BBX 11 30 0 0
BITMAP
0E00
0E00
0E00
0E00
0E00
0E00
0E00
0E00
0E00
0E00
0E00
0EE0
0FE0
0FC0
3F00
FE00
7E00
4E00
0E00
0E00
0E00
0E00
0E00
0E00
0E00
0E00
0F00
0FC0
07C0
03C0
ENDCHAR
STARTCHAR 0143
ENCODING 323
SWIDTH 720 0
DWIDTH 28 0
BBX 22 36 3 0
BITMAP
000400
000E00
001E00
003C00
003800
007000
006000
000000
000000
F0003C
F8003C
FC003C
FC003C
FE003C
FF003C
FF803C
F7C03C
F3C03C
F1E03C
F0F03C
F0F83C
F0783C
F03C3C
F01E3C
F01E3C
F00F3C
F007BC
F007BC
F003FC
F001FC
F001FC
F000FC
F0007C
F0007C
F0003C
F0003C
ENDCHAR
STARTCHAR 0144
ENCODING 324
SWIDTH 565 0
DWIDTH 22 0
BBX 16 30 3 0
BITMAP
0020
0070
00F8
00F0
01E0
03C0
0300
0000
0000
03C0
FFF8
FFFC
FFFE
F01F
F00F
F00F
F007
F007
F007
F007
F007
F007
F007
F007
F007
F007
F007
F007
F007
F007
ENDCHAR
STARTCHAR 0145
ENCODING 325
SWIDTH 720 0
DWIDTH 28 0
BBX 22 34 3 -7
BITMAP
F0003C
F8003C
FC003C
FC003C
FE003C
FF003C
FF803C
F7C03C
F3C03C
F1E03C
F0F03C
F0F83C
F0783C
F03C3C
F01E3C
F01E3C
F00F3C
F007BC
F007BC
F003FC
F001FC
F001FC
F000FC
F0007C
F0007C
F0003C
F0003C
000000
000000
003800
007800
007800
01F000
01E000
ENDCHAR
STARTCHAR 0146
ENCODING 326
SWIDTH 565 0
DWIDTH 22 0
BBX 16 28 3 -7
BITMAP
03C0
FFF8
FFFC
FFFE
F01F
F00F
F00F
F007
F007
F007
F007
F007
F007
F007
F007
F007
F007
F007
F007
F007
F007
0000
0000
01C0
01C0
03C0
0F80
0F00
ENDCHAR
STARTCHAR 0147
ENCODING 327
SWIDTH 720 0
DWIDTH 28 0
BBX 22 36 3 0
BITMAP
010200
038700
01CF00
00FE00
007C00
003800
001000
000000
000000
F0003C
F8003C
FC003C
FC003C
FE003C
FF003C
FF803C
F7C03C
F3C03C
F1E03C
F0F03C
F0F83C
F0783C
F03C3C
F01E3C
F01E3C
F00F3C
F007BC
F007BC
F003FC
F001FC
F001FC
F000FC
F0007C
F0007C
F0003C
F0003C
ENDCHAR
STARTCHAR 0148
ENCODING 328
SWIDTH 565 0
DWIDTH 22 0
BBX 16 30 3 0
BITMAP
0818
1C38
0E78
07F0
03E0
01C0
0080
0000
0000
03C0
FFF8
FFFC
FFFE
F01F
F00F
F00F
F007
F007
F007
F007
F007
F007
F007
F007
F007
F007
F007
F007
F007
F007
ENDCHAR
STARTCHAR 0149
ENCODING 329
SWIDTH 565 0
DWIDTH 22 0
BBX 18 30 1 0
BITMAP
700000
700000
700000
F00000
F00000
E00000
E00000
C00000
000000
00F000
3FFE00
3FFF00
3FFF80
3C07C0
3C03C0
3C03C0
3C01C0
3C01C0
3C01C0
3C01C0
3C01C0
3C01C0
3C01C0
3C01C0
3C01C0
3C01C0
3C01C0
3C01C0
3C01C0
3C01C0
ENDCHAR
STARTCHAR 014A
ENCODING 330
SWIDTH 720 0
DWIDTH 28 0
BBX 22 34 3 -7
BITMAP
F0003C
F8003C
FC003C
FC003C
FE003C
FF003C
F7803C
F7C03C
F3C03C
F1E03C
F0F03C
F0F83C
F0783C
F03C3C
F01E3C
F01E3C
F00F3C
F007BC
F007BC
F003FC
F001FC
F001FC
F000FC
F0007C
F0007C
F0003C
F0003C
00003C
00003C
00003C
00003C
0003F8
0003F8
0003F0
ENDCHAR
STARTCHAR 014B
ENCODING 331
SWIDTH 565 0
DWIDTH 22 0
BBX 16 28 3 -7
BITMAP
03C0
FFF8
FFFC
FFFE
F01F
F00F
F00F
F007
F007
F007
F007
F007
F007
F007
F007
F007
F007
F007
F007
F007
F007
0007
0007
0007
000F
007F
00FE
00FC
ENDCHAR
STARTCHAR 014C
ENCODING 332
SWIDTH 771 0
DWIDTH 30 0
BBX 26 35 2 -1
BITMAP
00FFE000
00FFE000
00FFE000
00000000
00000000
00000000
000C0000
00FFE000
03FFF000
07FFFC00
0F807E00
1F003E00
3E001F00
3C000F80
78000780
78000780
780007C0
F00003C0
F00003C0
F00003C0
F00003C0
F00003C0
F00003C0
F00003C0
780007C0
78000780
78000780
3C000F80
3E001F00
1F003E00
0F807E00
07FFFC00
03FFF000
00FFE000
001C0000
ENDCHAR
STARTCHAR 014D
ENCODING 333
SWIDTH 565 0
DWIDTH 22 0
BBX 19 29 2 -1
BITMAP
0FFE00
0FFE00
0FFE00
000000
000000
000000
000000
01F000
07FC00
1FFF00
3FBF80
3C0780
7803C0
7803C0
F001E0
F001E0
F001E0
F001E0
F001E0
F001E0
F001E0
F001E0
7803C0
7807C0
3E0F80
1FFF00
0FFE00
07FC00
004000
ENDCHAR
STARTCHAR 014E
ENCODING 334
SWIDTH 771 0
DWIDTH 30 0
BBX 26 36 2 -1
BITMAP
00C0C000
00E1C000
00FBC000
007F8000
003F0000
00000000
00000000
000C0000
00FFE000
03FFF000
07FFFC00
0F807E00
1F003E00
3E001F00
3C000F80
78000780
78000780
780007C0
F00003C0
F00003C0
F00003C0
F00003C0
F00003C0
F00003C0
F00003C0
780007C0
78000780
78000780
3C000F80
3E001F00
1F003E00
0F807E00
07FFFC00
03FFF000
00FFE000
001C0000
ENDCHAR
STARTCHAR 014F
ENCODING 335
SWIDTH 565 0
DWIDTH 22 0
BBX 19 30 2 -1
BITMAP
0E0E00
0E0C00
07BC00
07FC00
01F000
000000
000000
000000
01F000
07FC00
1FFF00
3FBF80
3C0780
7803C0
7803C0
F001E0
F001E0
F001E0
F001E0
F001E0
F001E0
F001E0
F001E0
7803C0
7807C0
3E0F80
1FFF00
0FFE00
07FC00
004000
ENDCHAR
STARTCHAR 0150
ENCODING 336
SWIDTH 771 0
DWIDTH 30 0
BBX 26 37 2 -1
BITMAP
00081000
001C3800
001C7800
003CF000
0078E000
0071C000
00618000
00000000
000C0000
00FFE000
03FFF000
07FFFC00
0F807E00
1F003E00
3E001F00
3C000F80
78000780
78000780
780007C0
F00003C0
F00003C0
F00003C0
F00003C0
F00003C0
F00003C0
F00003C0
780007C0
78000780
78000780
3C000F80
3E001F00
1F003E00
0F807E00
07FFFC00
03FFF000
00FFE000
001C0000
ENDCHAR
STARTCHAR 0151
ENCODING 337
SWIDTH 565 0
DWIDTH 22 0
BBX 19 31 2 -1
BITMAP
004100
00E380
01E380
03C700
038E00
071E00
060C00
000000
000000
01F000
07FC00
1FFF00
3FBF80
3C0780
7803C0
7803C0
F001E0
F001E0
F001E0
F001E0
F001E0
F001E0
F001E0
F001E0
7803C0
7807C0
3E0F80
1FFF00
0FFE00
07FC00
004000
ENDCHAR
STARTCHAR 0152
ENCODING 338
SWIDTH 977 0
DWIDTH 38 0
BBX 35 27 2 0
BITMAP
003FFFFFC0
01FFFFFFC0
07FFFFFFC0
0FE03C0000
1F803C0000
3F003C0000
3E003C0000
7C003C0000
78003C0000
78003C0000
F8003C0000
F0003FFF80
F0003FFF80
F0003FFF80
F0003C0000
F0003C0000
F8003C0000
78003C0000
78003C0000
7C003C0000
3C003C0000
3E003C0000
1F803C0000
0FE03C0000
07FFFFFFE0
01FFFFFFE0
007FFFFFE0
ENDCHAR
STARTCHAR 0153
ENCODING 339
SWIDTH 925 0
DWIDTH 36 0
BBX 33 22 2 -1
BITMAP
01F003E000
07FC0FF800
1FFE1FFC00
3FBF3F7E00
3C07F81F00
7803F00F00
7803F00700
F001E00700
F001E00780
F001FFFF80
F001FFFF80
F001FFFF80
F001E00000
F001E00000
F001E00000
7803F00000
7807F80000
3E0FFC0200
1FFF3FFE00
0FFE1FFE00
07FC0FFE00
0040000000
ENDCHAR
STARTCHAR 0154
ENCODING 340
SWIDTH 617 0
DWIDTH 24 0
BBX 21 36 3 0
BITMAP
003000
007800
007800
00F000
01E000
03C000
018000
000000
000000
FFF800
FFFF00
FFFF80
F01FC0
F003C0
F003E0
F001E0
F001E0
F001E0
F001E0
F001E0
F003E0
F007C0
FFFF80
FFFF00
FFFC00
F03C00
F03E00
F01F00
F00F00
F00780
F007C0
F003C0
F001E0
F001E0
F000F0
F000F8
ENDCHAR
STARTCHAR 0155
ENCODING 341
SWIDTH 385 0
DWIDTH 15 0
BBX 12 30 3 0
BITMAP
0080
01C0
03C0
0780
0F00
0E00
0C00
0000
0000
0380
FFF0
FFE0
FFE0
F000
F000
F000
F000
F000
F000
F000
F000
F000
F000
F000
F000
F000
F000
F000
F000
F000
ENDCHAR
STARTCHAR 0156
ENCODING 342
SWIDTH 617 0
DWIDTH 24 0
BBX 21 34 3 -7
BITMAP
FFF800
FFFF00
FFFF80
F01FC0
F003C0
F003E0
F001E0
F001E0
F001E0
F001E0
F001E0
F003E0
F007C0
FFFF80
FFFF00
FFFC00
F03C00
F03E00
F01F00
F00F00
F00780
F007C0
F003C0
F001E0
F001E0
F000F0
F000F8
000000
000000
00F000
00F000
00E000
03E000
03C000
ENDCHAR
STARTCHAR 0157
ENCODING 343
SWIDTH 385 0
DWIDTH 15 0
BBX 14 28 1 -7
BITMAP
00E0
3FFC
3FF8
3FF8
3C00
3C00
3C00
3C00
3C00
3C00
3C00
3C00
3C00
3C00
3C00
3C00
3C00
3C00
3C00
3C00
3C00
0000
0000
3C00
3C00
3800
F800
F000
ENDCHAR
STARTCHAR 0158
ENCODING 344
SWIDTH 617 0
DWIDTH 24 0
BBX 21 36 3 0
BITMAP
081800
1C3C00
0F7800
07F000
03E000
01C000
008000
000000
000000
FFF800
FFFF00
FFFF80
F01FC0
F003C0
F003E0
F001E0
F001E0
F001E0
F001E0
F001E0
F003E0
F007C0
FFFF80
FFFF00
FFFC00
F03C00
F03E00
F01F00
F00F00
F00780
F007C0
F003C0
F001E0
F001E0
F000F0
F000F8
ENDCHAR
STARTCHAR 0159
ENCODING 345
SWIDTH 385 0
DWIDTH 15 0
BBX 12 30 3 0
BITMAP
2040
70E0
79C0
3F80
1F80
0F00
0600
0000
0000
0380
FFF0
FFE0
FFE0
F000
F000
F000
F000
F000
F000
F000
F000
F000
F000
F000
F000
F000
F000
F000
F000
F000
ENDCHAR
STARTCHAR 015A
ENCODING 346
SWIDTH 514 0
DWIDTH 20 0
BBX 18 37 1 -1
BITMAP
001800
001C00
003C00
007800
00F000
01E000
00C000
000000
00F000
07FF00
1FFF80
3FFF80
3E0100
780000
780000
780000
780000
780000
7C0000
3F0000
1FC000
0FF800
07FE00
00FF00
003F80
000FC0
0007C0
0003C0
0003C0
0003C0
0003C0
0003C0
7007C0
7FFF80
FFFF00
3FFE00
03A000
ENDCHAR
STARTCHAR 015B
ENCODING 347
SWIDTH 437 0
DWIDTH 17 0
BBX 14 30 2 0
BITMAP
0040
00E0
01E0
03C0
0780
0F00
0600
0000
0000
07C0
3FF8
7FF0
FC70
F000
F000
F000
F000
FC00
7F00
3FC0
0FF0
01F8
0078
003C
003C
003C
803C
FFF8
FFF0
FFE0
ENDCHAR
STARTCHAR 015C
ENCODING 348
SWIDTH 514 0
DWIDTH 20 0
BBX 18 37 1 -1
BITMAP
004000
00E000
01F000
03F800
07BC00
070E00
060400
000000
00F000
07FF00
1FFF80
3FFF80
3E0100
780000
780000
780000
780000
780000
7C0000
3F0000
1FC000
0FF800
07FE00
00FF00
003F80
000FC0
0007C0
0003C0
0003C0
0003C0
0003C0
0003C0
7007C0
7FFF80
FFFF00
3FFE00
03A000
ENDCHAR
STARTCHAR 015D
ENCODING 349
SWIDTH 437 0
DWIDTH 17 0
BBX 14 30 2 0
BITMAP
0200
0700
0780
0FC0
1DE0
3870
3020
0000
0000
07C0
3FF8
7FF0
FC70
F000
F000
F000
F000
FC00
7F00
3FC0
0FF0
01F8
0078
003C
003C
003C
803C
FFF8
FFF0
FFE0
ENDCHAR
STARTCHAR 015E
ENCODING 350
SWIDTH 514 0
DWIDTH 20 0
BBX 18 35 1 -7
BITMAP
00F000
07FF00
1FFF80
3FFF80
3E0100
780000
780000
780000
780000
780000
7C0000
3F0000
1FC000
0FF800
07FE00
00FF00
003F80
000FC0
0007C0
0003C0
0003C0
0003C0
0003C0
0003C0
7007C0
7FFF80
FFFF00
3FFE00
03C000
01C000
01F000
007000
007000
07F000
07E000
ENDCHAR
STARTCHAR 015F
ENCODING 351
SWIDTH 437 0
DWIDTH 17 0
BBX 14 28 2 -7
BITMAP
07C0
3FF8
7FF0
FC70
F000
F000
F000
F000
FC00
7F00
3FC0
0FF0
01F8
0078
003C
003C
003C
803C
FFF8
FFF0
FFE0
0700
0600
0F80
0380
0380
3F80
3F00
ENDCHAR
STARTCHAR 0160
ENCODING 352
SWIDTH 514 0
DWIDTH 20 0
BBX 18 37 1 -1
BITMAP
060400
070E00
079C00
03F800
01F000
00E000
004000
000000
00F000
07FF00
1FFF80
3FFF80
3E0100
780000
780000
780000
780000
780000
7C0000
3F0000
1FC000
0FF800
07FE00
00FF00
003F80
000FC0
0007C0
0003C0
0003C0
0003C0
0003C0
0003C0
7007C0
7FFF80
FFFF00
3FFE00
03A000
ENDCHAR
STARTCHAR 0161
ENCODING 353
SWIDTH 437 0
DWIDTH 17 0
BBX 14 30 2 0
BITMAP
3020
3870
3CE0
1FC0
0F80
0700
0200
0000
0000
07C0
3FF8
7FF0
FC70
F000
F000
F000
F000
FC00
7F00
3FC0
0FF0
01F8
0078
003C
003C
003C
803C
FFF8
FFF0
FFE0
ENDCHAR
STARTCHAR 0162
ENCODING 354
SWIDTH 540 0
DWIDTH 21 0
BBX 20 34 1 -7
BITMAP
FFFFF0
FFFFF0
FFFFF0
00F000
00F000
00F000
00F000
00F000
00F000
00F000
00F000
00F000
00F000
00F000
00F000
00F000
00F000
00F000
00F000
00F000
00F000
00F000
00F000
00F000
00F000
00F000
00F000
00E000
00E000
00F000
007000
007800
03F000
07F000
ENDCHAR
STARTCHAR 0163
ENCODING 355
SWIDTH 385 0
DWIDTH 15 0
BBX 12 33 3 -7
BITMAP
F000
F000
F000
F000
F000
F000
FFE0
FFE0
FFE0
F000
F000
F000
F000
F000
F000
F000
F000
F000
F000
F000
F000
F000
F800
7FF0
7FF0
1FF0
0700
0600
0F80
0380
0380
3F80
3F00
ENDCHAR
STARTCHAR 0164
ENCODING 356
SWIDTH 540 0
DWIDTH 21 0
BBX 20 36 1 0
BITMAP
020400
070E00
039C00
03F800
01F800
00F000
006000
000000
000000
FFFFF0
FFFFF0
FFFFF0
00F000
00F000
00F000
00F000
00F000
00F000
00F000
00F000
00F000
00F000
00F000
00F000
00F000
00F000
00F000
00F000
00F000
00F000
00F000
00F000
00F000
00F000
00F000
00F000
ENDCHAR
STARTCHAR 0165
ENCODING 357
SWIDTH 385 0
DWIDTH 15 0
BBX 12 30 3 0
BITMAP
03C0
0380
0380
0380
F380
F380
F380
F000
F000
F000
FFE0
FFE0
FFE0
F000
F000
F000
F000
F000
F000
F000
F000
F000
F000
F000
F000
F000
F800
7FF0
7FF0
1FF0
ENDCHAR
STARTCHAR 0166
ENCODING 358
SWIDTH 540 0
DWIDTH 21 0
BBX 20 27 1 0
BITMAP
FFFFF0
FFFFF0
FFFFF0
00F000
00F000
00F000
00F000
00F000
00F000
00F000
00F000
00F000
1FFF80
1FFF80
1FFF80
00F000
00F000
00F000
00F000
00F000
00F000
00F000
00F000
00F000
00F000
00F000
00F000
ENDCHAR
STARTCHAR 0167
ENCODING 359
SWIDTH 385 0
DWIDTH 15 0
BBX 12 26 3 0
BITMAP
F000
F000
F000
F000
F000
F000
FFE0
FFE0
FFE0
F000
F000
F000
F000
F000
FFE0
FFE0
FFE0
F000
F000
F000
F000
F000
F800
7FF0
7FF0
1FF0
ENDCHAR
STARTCHAR 0168
ENCODING 360
SWIDTH 668 0
DWIDTH 26 0
BBX 21 35 3 0
BITMAP
03E380
07FF00
0E7E00
041C00
000000
000000
000000
F00078
F00078
F00078
F00078
F00078
F00078
F00078
F00078
F00078
F00078
F00078
F00078
F00078
F00078
F00078
F00078
F00078
F00078
F00078
F000F0
7800F0
7800F0
7C01E0
3E03E0
1FFFC0
0FFF80
07FE00
006000
ENDCHAR
STARTCHAR 0169
ENCODING 361
SWIDTH 565 0
DWIDTH 22 0
BBX 16 28 3 1
BITMAP
0F8C
1FFC
3BF8
3070
0000
0000
0000
0000
F007
F007
F007
F007
F007
F007
F007
F007
F007
F007
F007
F007
F007
F007
F007
F807
7C07
7FFF
3FFF
0FFF
ENDCHAR
STARTCHAR 016A
ENCODING 362
SWIDTH 668 0
DWIDTH 26 0
BBX 21 35 3 -1
BITMAP
07FF00
07FF00
07FF00
000000
000000
000000
000000
F00078
F00078
F00078
F00078
F00078
F00078
F00078
F00078
F00078
F00078
F00078
F00078
F00078
F00078
F00078
F00078
F00078
F00078
F00078
F000F0
7800F0
7800F0
7C01E0
3E03E0
1FFFC0
0FFF80
07FE00
006000
ENDCHAR
STARTCHAR 016B
ENCODING 363
SWIDTH 565 0
DWIDTH 22 0
BBX 16 28 3 0
BITMAP
1FFC
1FFC
1FFC
0000
0000
0000
0000
0000
F007
F007
F007
F007
F007
F007
F007
F007
F007
F007
F007
F007
F007
F007
F007
F807
7C07
7FFF
3FFF
0FFF
ENDCHAR
STARTCHAR 016C
ENCODING 364
SWIDTH 668 0
DWIDTH 26 0
BBX 21 36 3 -1
BITMAP
070700
070600
03DE00
03FC00
00F800
000000
000000
000000
F00078
F00078
F00078
F00078
F00078
F00078
F00078
F00078
F00078
F00078
F00078
F00078
F00078
F00078
F00078
F00078
F00078
F00078
F00078
F000F0
7800F0
7800F0
7C01E0
3E03E0
1FFFC0
0FFF80
07FE00
006000
ENDCHAR
STARTCHAR 016D
ENCODING 365
SWIDTH 565 0
DWIDTH 22 0
BBX 16 29 3 0
BITMAP
1818
1C38
1E78
0FF0
07E0
0000
0000
0000
0000
F007
F007
F007
F007
F007
F007
F007
F007
F007
F007
F007
F007
F007
F007
F007
F807
7C07
7FFF
3FFF
0FFF
ENDCHAR
STARTCHAR 016E
ENCODING 366
SWIDTH 668 0
DWIDTH 26 0
BBX 21 37 3 -1
BITMAP
00F800
01DC00
038C00
030C00
030C00
019C00
00F800
006000
000000
F00078
F00078
F00078
F00078
F00078
F00078
F00078
F00078
F00078
F00078
F00078
F00078
F00078
F00078
F00078
F00078
F00078
F00078
F00078
F000F0
7800F0
7800F0
7C01E0
3E03E0
1FFFC0
0FFF80
07FE00
006000
ENDCHAR
STARTCHAR 016F
ENCODING 367
SWIDTH 565 0
DWIDTH 22 0
BBX 16 30 3 0
BITMAP
03E0
07E0
0C30
0C30
0C30
0E70
07E0
0180
0000
0000
F007
F007
F007
F007
F007
F007
F007
F007
F007
F007
F007
F007
F007
F007
F007
F807
7C07
7FFF
3FFF
0FFF
ENDCHAR
STARTCHAR 0170
ENCODING 368
SWIDTH 668 0
DWIDTH 26 0
BBX 21 37 3 -1
BITMAP
006080
0071C0
00F3C0
01E380
01C700
038E00
030600
000000
000000
F00078
F00078
F00078
F00078
F00078
F00078
F00078
F00078
F00078
F00078
F00078
F00078
F00078
F00078
F00078
F00078
F00078
F00078
F00078
F000F0
7800F0
7800F0
7C01E0
3E03E0
1FFFC0
0FFF80
07FE00
006000
ENDCHAR
STARTCHAR 0171
ENCODING 369
SWIDTH 565 0
DWIDTH 22 0
BBX 16 30 3 0
BITMAP
0102
0387
038F
071E
0F1C
0E38
0C30
0000
0000
0000
F007
F007
F007
F007
F007
F007
F007
F007
F007
F007
F007
F007
F007
F007
F007
F807
7C07
7FFF
3FFF
0FFF
ENDCHAR
STARTCHAR 0172
ENCODING 370
SWIDTH 668 0
DWIDTH 26 0
BBX 21 34 3 -7
BITMAP
F00078
F00078
F00078
F00078
F00078
F00078
F00078
F00078
F00078
F00078
F00078
F00078
F00078
F00078
F00078
F00078
F00078
F00078
F00078
F000F0
7800F0
7800F0
7C01E0
3E03E0
1FFFC0
0FFF80
07FF00
007C00
003800
007000
00F000
00F000
007E00
007E00
ENDCHAR
STARTCHAR 0173
ENCODING 371
SWIDTH 565 0
DWIDTH 22 0
BBX 16 27 3 -7
BITMAP
F007
F007
F007
F007
F007
F007
F007
F007
F007
F007
F007
F007
F007
F007
F007
F807
7C07
7FFF
3FFF
0FFF
000E
001C
0038
0078
0078
003F
003F
ENDCHAR
STARTCHAR 0174
ENCODING 372
SWIDTH 925 0
DWIDTH 36 0
BBX 34 35 1 1
BITMAP
0000C00000
0001E00000
0003F00000
0007380000
000E1C0000
00040C0000
0000000000
0000000000
F0000003C0
F0000003C0
70000003C0
7801E00380
7801E00780
7801E00780
7803F00780
7803F00780
3C03F00700
3C03F80F00
3C07B80F00
3C07380F00
1C0F3C0F00
1E0F1C0E00
1E0E1C1E00
1E1E1E1E00
1E1C0E1E00
0F1C0F1C00
0F3C0F3C00
0F38073C00
073807B800
07F803B800
07F003F800
07F003F800
03E001F000
03E001F000
03E001F000
ENDCHAR
STARTCHAR 0175
ENCODING 373
SWIDTH 771 0
DWIDTH 30 0
BBX 28 29 1 1
BITMAP
00060000
000F0000
001F8000
0039C000
0070E000
00206000
00000000
00000000
00000000
F0070070
F00F00F0
F00F00F0
700F80F0
780F80E0
781F81E0
381F81E0
3C1FC1C0
3C39C1C0
3C39C3C0
1C39E380
1E38E380
1E70E780
0E70E700
0F707700
07E07F00
07E07E00
07E03E00
03C03C00
03C03C00
ENDCHAR
STARTCHAR 0176
ENCODING 374
SWIDTH 591 0
DWIDTH 23 0
BBX 23 36 0 0
BITMAP
001000
003800
007C00
00FE00
01EF00
03C780
018100
000000
000000
F8001E
78003C
3C003C
3C0078
1E0078
1E00F0
0F01E0
0F81E0
0783C0
03C3C0
03C780
01E700
01FF00
00FE00
007E00
007C00
003C00
003C00
003C00
003C00
003C00
003C00
003C00
003C00
003C00
003C00
003C00
ENDCHAR
STARTCHAR 0177
ENCODING 375
SWIDTH 488 0
DWIDTH 19 0
BBX 18 37 0 -7
BITMAP
002000
007000
00F000
01F800
03DC00
070E00
020600
000000
000000
000000
7801C0
7803C0
7803C0
3C03C0
3C0380
3C0780
1C0780
1E0780
1E0700
0F0F00
0F0F00
070E00
079E00
079E00
03DC00
03FC00
01FC00
01F800
00F800
00F000
007000
00E000
01E000
03C000
7FC000
FF8000
FE0000
ENDCHAR
STARTCHAR 0178
ENCODING 376
SWIDTH 591 0
DWIDTH 23 0
BBX 23 35 0 0
BITMAP
018100
03C780
03C7C0
03C780
018380
000000
000000
000000
F8001E
78003C
3C003C
3C0078
1E0078
1E00F0
0F01E0
0F81E0
0783C0
03C3C0
03C780
01E700
01FF00
00FE00
007E00
007C00
003C00
003C00
003C00
003C00
003C00
003C00
003C00
003C00
003C00
003C00
003C00
ENDCHAR
STARTCHAR 0179
ENCODING 377
SWIDTH 565 0
DWIDTH 22 0
BBX 20 36 1 0
BITMAP
000800
001E00
003E00
003C00
007800
00F000
004000
000000
000000
7FFFE0
7FFFE0
7FFFE0
0001E0
0003C0
000780
000F80
001F00
001E00
003C00
007800
00F800
00F000
01E000
03E000
03C000
078000
0F8000
0F0000
1E0000
1E0000
3C0000
780000
780000
FFFFF0
FFFFF0
FFFFF0
ENDCHAR
STARTCHAR 017A
ENCODING 378
SWIDTH 462 0
DWIDTH 18 0
BBX 16 30 1 0
BITMAP
0020
0070
00F0
01E0
03C0
0380
0300
0000
0000
0000
7FFF
7FFF
7FFF
003E
003C
0078
00F0
01E0
03E0
03C0
0780
0F00
0F00
1E00
3C00
3C00
7800
FFFF
FFFF
FFFF
ENDCHAR
STARTCHAR 017B
ENCODING 379
SWIDTH 565 0
DWIDTH 22 0
BBX 20 35 1 0
BITMAP
006000
00F000
00F800
00F800
007000
000000
000000
000000
7FFFE0
7FFFE0
7FFFE0
0001E0
0003C0
000780
000F80
001F00
001E00
003C00
007800
00F800
00F000
01E000
03E000
03C000
078000
0F8000
0F0000
1E0000
1E0000
3C0000
780000
780000
FFFFF0
FFFFF0
FFFFF0
ENDCHAR
STARTCHAR 017C
ENCODING 380
SWIDTH 462 0
DWIDTH 18 0
BBX 16 29 1 0
BITMAP
0180
03C0
03C0
03C0
03C0
0000
0000
0000
0000
7FFF
7FFF
7FFF
003E
003C
0078
00F0
01E0
03E0
03C0
0780
0F00
0F00
1E00
3C00
3C00
7800
FFFF
FFFF
FFFF
ENDCHAR
STARTCHAR 017D
ENCODING 381
SWIDTH 565 0
DWIDTH 22 0
BBX 20 36 1 0
BITMAP
020600
070F00
03DE00
01FC00
00F800
007000
002000
000000
000000
7FFFE0
7FFFE0
7FFFE0
0001E0
0003C0
000780
000F80
001F00
001E00
003C00
007800
00F800
00F000
01E000
03E000
03C000
078000
0F8000
0F0000
1E0000
1E0000
3C0000
780000
780000
FFFFF0
FFFFF0
FFFFF0
ENDCHAR
STARTCHAR 017E
ENCODING 382
SWIDTH 462 0
DWIDTH 18 0
BBX 16 30 1 0
BITMAP
0810
1C38
1E70
0FF0
07E0
03C0
0180
0000
0000
0000
7FFF
7FFF
7FFF
003E
003C
0078
00F0
01E0
03E0
03C0
0780
0F00
0F00
1E00
3C00
3C00
7800
FFFF
FFFF
FFFF
ENDCHAR
STARTCHAR 017F
ENCODING 383
SWIDTH 257 0
DWIDTH 10 0
BBX 12 30 3 0
BITMAP
0FF0
3FF0
3FF0
7C10
7800
F000
F000
F000
F000
F000
F000
F000
F000
F000
F000
F000
F000
F000
F000
F000
F000
F000
F000
F000
F000
F000
F000
F000
F000
F000
ENDCHAR
STARTCHAR 0180
ENCODING 384
SWIDTH 565 0
DWIDTH 22 0
BBX 21 30 0 0
BITMAP
1E0000
1E0000
1E0000
FFFC00
FFFC00
FFFC00
1E0000
1E0000
1E0000
1E0800
1FFF00
1FFFC0
1FFFE0
1F01E0
1E00F0
1E00F0
1E0078
1E0078
1E0078
1E0078
1E0078
1E0078
1E0078
1E0070
1E00F0
1E01F0
1E03E0
1FFFC0
1FFF80
1FFF00
ENDCHAR
STARTCHAR 0181
ENCODING 385
SWIDTH 720 0
DWIDTH 28 0
BBX 26 27 1 0
BITMAP
0FFFE000
3FFFFC00
7FFFFE00
FBC03F00
E3C00F00
E3C00780
E3C00780
E3C00780
03C00780
03C00F00
03C01F00
03FFFE00
03FFF800
03FFFE00
03C0FF00
03C00F80
03C007C0
03C003C0
03C003C0
03C003C0
03C003C0
03C007C0
03C00780
03C01F80
03FFFF00
03FFFC00
03FFF000
ENDCHAR
STARTCHAR 0182
ENCODING 386
SWIDTH 617 0
DWIDTH 24 0
BBX 20 27 3 0
BITMAP
FFFF80
FFFF80
FFFF80
F00000
F00000
F00000
F00000
F00000
F00000
F00000
FFF000
FFFE00
FFFF80
F01FC0
F003E0
F001E0
F001E0
F001E0
F000F0
F001E0
F001E0
F001E0
F003E0
F00FC0
FFFF80
FFFF00
FFF800
ENDCHAR
STARTCHAR 0183
ENCODING 387
SWIDTH 565 0
DWIDTH 22 0
BBX 18 30 3 0
BITMAP
FFFF00
FFFF00
FFFF00
F00000
F00000
F00000
F00000
F00000
F00000
F04000
FFF800
FFFE00
FFFF00
F80F00
F00780
F00780
F003C0
F003C0
F003C0
F003C0
F003C0
F003C0
F003C0
F00380
F00780
F00F80
F01F00
FFFE00
FFFC00
FFF800
ENDCHAR
STARTCHAR 0184
ENCODING 388
SWIDTH 565 0
DWIDTH 22 0
BBX 21 30 0 0
BITMAP
060000
3E0000
FE0000
7E0000
3E0000
1E0000
1E0000
1E0000
1E0000
1E1C00
1FFF80
1FFFC0
1FFFE0
1F01E0
1E00F0
1E00F0
1E0078
1E0078
1E0078
1E0078
1E0078
1E0078
1E0078
1E0070
1E00F0
1E01F0
1E03E0
1FFFC0
1FFF80
1FFE00
ENDCHAR
STARTCHAR 0185
ENCODING 389
SWIDTH 617 0
DWIDTH 24 0
BBX 22 27 1 0
BITMAP
0C0000
3C0000
FC0000
7C0000
3C0000
3C0000
3C0000
3C0000
3C0000
3C0000
3FFF00
3FFFC0
3FFFE0
3C03F0
3C00F8
3C0078
3C0078
3C003C
3C003C
3C003C
3C0078
3C0078
3C00F8
3C03F0
3FFFE0
3FFFC0
3FFE00
ENDCHAR
STARTCHAR 0186
ENCODING 390
SWIDTH 617 0
DWIDTH 24 0
BBX 21 29 1 -1
BITMAP
038000
3FFC00
FFFE00
FFFF80
600FC0
0007C0
0003E0
0001F0
0000F0
0000F0
0000F0
000078
000078
000078
000078
000078
000078
000078
0000F0
0000F0
0000F0
0001F0
0003E0
0007C0
600FC0
FFFF80
FFFE00
7FFC00
018000
ENDCHAR
STARTCHAR 0187
ENCODING 391
SWIDTH 642 0
DWIDTH 25 0
BBX 26 32 2 -1
BITMAP
00000100
00001FC0
00001F80
000C3E80
00FFF800
03FFF800
07FFF000
0FC03000
1F000000
3E000000
3C000000
7C000000
78000000
78000000
F8000000
F0000000
F0000000
F0000000
F0000000
F0000000
F0000000
78000000
78000000
78000000
3C000000
3E000000
1F000000
1F803000
0FFFF800
03FFF800
01FFF000
000C0000
ENDCHAR
STARTCHAR 0188
ENCODING 392
SWIDTH 488 0
DWIDTH 19 0
BBX 20 24 2 0
BITMAP
0003F0
0007E0
000F80
01FE00
07FE00
1FFE00
3FDC00
3C0000
780000
780000
F00000
F00000
F00000
F00000
F00000
F00000
F00000
F00000
780000
7C0000
3E0000
3FFE00
1FFE00
07FE00
ENDCHAR
STARTCHAR 0189
ENCODING 393
SWIDTH 720 0
DWIDTH 28 0
BBX 25 27 1 0
BITMAP
1FFF0000
1FFFC000
1FFFF000
1E03F800
1E007C00
1E003E00
1E001E00
1E000F00
1E000F00
1E000F80
1E000780
FFF00780
FFF00780
FFF00780
1E000780
1E000780
1E000780
1E000F80
1E000F00
1E000F00
1E001E00
1E003E00
1E007C00
1E03F800
1FFFF000
1FFFC000
1FFF0000
ENDCHAR
STARTCHAR 018A
ENCODING 394
SWIDTH 797 0
DWIDTH 31 0
BBX 28 27 1 0
BITMAP
0FFFE000
3FFFFC00
7FFFFE00
FBC07F80
E3C00FC0
E3C007C0
E3C003E0
E3C001E0
03C001F0
03C000F0
03C000F0
03C000F0
03C000F0
03C000F0
03C000F0
03C000F0
03C000F0
03C000F0
03C001F0
03C001E0
03C003E0
03C007C0
03C00FC0
03C03F80
03FFFE00
03FFFC00
03FFE000
ENDCHAR
STARTCHAR 018B
ENCODING 395
SWIDTH 617 0
DWIDTH 24 0
BBX 19 27 2 0
BITMAP
3FFFE0
3FFFE0
3FFFE0
0001E0
0001E0
0001E0
0001E0
0001E0
0001E0
0001E0
00FFE0
0FFFE0
3FFFE0
7F01E0
7C01E0
F801E0
F001E0
F001E0
F001E0
F001E0
F001E0
F801E0
7801E0
7F01E0
3FFFE0
1FFFE0
03FFE0
ENDCHAR
STARTCHAR 018C
ENCODING 396
SWIDTH 565 0
DWIDTH 22 0
BBX 18 30 2 0
BITMAP
3FFFC0
3FFFC0
3FFFC0
0003C0
0003C0
0003C0
0003C0
0003C0
0003C0
0083C0
07FFC0
1FFFC0
3FFFC0
3C07C0
7803C0
7803C0
F003C0
F003C0
F003C0
F003C0
F003C0
F003C0
F003C0
F003C0
7803C0
7C03C0
3E03C0
1FFFC0
0FFFC0
07FFC0
ENDCHAR
STARTCHAR 018D
ENCODING 397
SWIDTH 565 0
DWIDTH 22 0
BBX 19 28 2 -7
BITMAP
01F000
0FFC00
1FFF00
3F1F80
7C0780
7803C0
F003C0
F001C0
F001E0
F001E0
F001E0
F001C0
F003C0
7803C0
780780
3E0F80
1F1F00
0FFE00
07F800
01F800
007C00
001E00
000E00
000E00
201E00
3FFE00
3FFC00
1FF000
ENDCHAR
STARTCHAR 018E
ENCODING 398
SWIDTH 565 0
DWIDTH 22 0
BBX 18 27 1 0
BITMAP
7FFFC0
7FFFC0
7FFFC0
0003C0
0003C0
0003C0
0003C0
0003C0
0003C0
0003C0
0003C0
1FFFC0
1FFFC0
1FFFC0
0003C0
0003C0
0003C0
0003C0
0003C0
0003C0
0003C0
0003C0
0003C0
0003C0
FFFFC0
FFFFC0
FFFFC0
ENDCHAR
STARTCHAR 018F
ENCODING 399
SWIDTH 694 0
DWIDTH 27 0
BBX 23 29 2 -1
BITMAP
006000
0FFF00
3FFFC0
3FFFE0
1803F0
0000F8
000078
00003C
00003C
00003E
00001E
00001E
00001E
00001E
FFFFFE
FFFFFE
FFFFFE
F0001E
F0001E
70001E
78003C
78003C
7C0078
3C00F8
1F01F0
1FFFE0
0FFFC0
03FF00
003000
ENDCHAR
STARTCHAR 0190
ENCODING 400
SWIDTH 565 0
DWIDTH 22 0
BBX 19 29 2 -1
BITMAP
003000
07FF80
1FFFC0
3FFFC0
3E0180
7C0000
780000
780000
780000
3C0000
3C0000
1F0000
0FFE00
03FE00
1FFE00
3FC000
7C0000
780000
F00000
F00000
F00000
F00000
F00000
F80000
7C00C0
3FFFE0
1FFFE0
0FFF80
003000
ENDCHAR
STARTCHAR 0191
ENCODING 401
SWIDTH 514 0
DWIDTH 20 0
BBX 21 34 -1 -7
BITMAP
0FFFF8
0FFFF8
0FFFF8
0F0000
0F0000
0F0000
0F0000
0F0000
0F0000
0F0000
0F0000
0FFFE0
0FFFE0
0FFFE0
0FFFE0
0F0000
0F0000
0F0000
0F0000
0F0000
0F0000
0F0000
0F0000
0F0000
0F0000
0F0000
0F0000
0F0000
0F0000
0F0000
0F0000
FE0000
FE0000
FC0000
ENDCHAR
STARTCHAR 0192
ENCODING 402
SWIDTH 385 0
DWIDTH 15 0
BBX 18 37 -3 -7
BITMAP
003FC0
00FFC0
00FFC0
01F040
01E000
03C000
03C000
03C000
03C000
03C000
03FFC0
03FFC0
03FFC0
03C000
03C000
03C000
03C000
03C000
03C000
03C000
03C000
03C000
03C000
03C000
03C000
03C000
03C000
03C000
03C000
03C000
03C000
03C000
038000
078000
7F8000
7F0000
FC0000
ENDCHAR
STARTCHAR 0193
ENCODING 403
SWIDTH 668 0
DWIDTH 26 0
BBX 26 32 2 -1
BITMAP
00000300
00000FC0
00001FC0
000C3E00
00FFF800
03FFF800
07FFF800
0F803000
1F000000
3E000000
3C000000
78000000
78000000
78000000
F8000000
F0000000
F0000000
F0000000
F0003C00
F0003C00
F0003C00
78003C00
78003C00
78003C00
3C003C00
3E003C00
1F003C00
1F803C00
0FFFFC00
03FFFC00
01FFF800
001E0000
ENDCHAR
STARTCHAR 0194
ENCODING 404
SWIDTH 642 0
DWIDTH 25 0
BBX 24 34 1 -7
BITMAP
E0000F
F0001E
F0001E
78003C
78003C
3C0038
3C0078
1E0078
1E00F0
0F00F0
0F01E0
0781E0
0783C0
03C3C0
03C780
01E780
01EF00
00FF00
00FE00
007C00
007C00
007C00
007E00
00FE00
01EF00
01E700
03C780
038380
038380
038380
03C780
01FF80
01FF00
007E00
ENDCHAR
STARTCHAR 0195
ENCODING 405
SWIDTH 874 0
DWIDTH 34 0
BBX 29 30 3 0
BITMAP
F0000000
F0000000
F0000000
F0000000
F0000000
F0000000
F0000000
F0000000
F0000000
F3C00000
FFF80078
FFFC0078
FFFE0078
F01E0078
F00F0078
F00F0078
F00F0078
F00F0078
F00F0078
F00F0078
F00F0078
F00F0078
F00F0078
F0070078
F0078070
F00780F0
F007C1F0
F003FFE0
F001FFC0
F000FF80
ENDCHAR
STARTCHAR 0196
ENCODING 406
SWIDTH 360 0
DWIDTH 14 0
BBX 11 28 3 -1
BITMAP
F000
F000
F000
F000
F000
F000
F000
F000
F000
F000
F000
F000
F000
F000
F000
F000
F000
F000
F000
F000
F000
F000
7800
7800
7FE0
3FE0
1FE0
0100
ENDCHAR
STARTCHAR 0197
ENCODING 407
SWIDTH 308 0
DWIDTH 12 0
BBX 11 27 1 0
BITMAP
1E00
1E00
1E00
1E00
1E00
1E00
1E00
1E00
1E00
1E00
1E00
FFE0
FFE0
FFE0
1E00
1E00
1E00
1E00
1E00
1E00
1E00
1E00
1E00
1E00
1E00
1E00
1E00
ENDCHAR
STARTCHAR 0198
ENCODING 408
SWIDTH 642 0
DWIDTH 25 0
BBX 22 27 3 1
BITMAP
F003F8
F007FC
F00FF8
F01F08
F03E00
F03C00
F07800
F0F000
F1E000
F3C000
F7C000
F78000
FF0000
FF8000
F7C000
F3F000
F1F800
F07C00
F03E00
F01F00
F00F80
F00780
F003C0
F003E0
F001F0
F000F8
F00078
ENDCHAR
STARTCHAR 0199
ENCODING 409
SWIDTH 514 0
DWIDTH 20 0
BBX 16 30 3 0
BITMAP
1F00
7F00
7F00
F000
F000
F000
F000
F000
F000
F000
F01E
F03C
F078
F0F8
F1F0
F3E0
F7C0
FF80
FF00
FF00
FF80
F7C0
F3E0
F1F0
F0F8
F07C
F03C
F01E
F00F
F00F
ENDCHAR
STARTCHAR 019A
ENCODING 410
SWIDTH 282 0
DWIDTH 11 0
BBX 10 30 1 0
BITMAP
1C00
1C00
1C00
1C00
1C00
1C00
1C00
1C00
1C00
1C00
1C00
1C00
1C00
FFC0
FFC0
FFC0
1C00
1C00
1C00
1C00
1C00
1C00
1C00
1C00
1C00
1C00
1E00
1F80
0F80
0780
ENDCHAR
STARTCHAR 019B
ENCODING 411
SWIDTH 488 0
DWIDTH 19 0
BBX 18 30 1 0
BITMAP
FC0000
7E0000
7F0400
0FBC00
07FE00
07F800
3FC000
3FE000
11E000
00E000
01F000
01F000
03F000
03F800
07B800
073C00
0F3C00
0E1C00
1E1E00
1E1E00
1C0E00
3C0F00
3C0F00
380F00
780780
780780
700780
F00380
F003C0
E003C0
ENDCHAR
STARTCHAR 019C
ENCODING 412
SWIDTH 951 0
DWIDTH 37 0
BBX 32 28 3 -1
BITMAP
F003C00F
F003C00F
F003C00F
F003C00F
F003C00F
F003C00F
F003C00F
F003C00F
F003C00F
F003C00F
F003C00F
F003C00F
F003C00F
F003C00F
F003C00F
F003C00F
F003C00F
F003C00F
F003C00F
F003C00F
7003C00F
7801E00F
7801E00F
7C07F00F
3FFFFFFF
1FFF7FFF
0FFC3FFF
00C00300
ENDCHAR
STARTCHAR 019D
ENCODING 413
SWIDTH 720 0
DWIDTH 28 0
BBX 26 34 -1 -7
BITMAP
0F0003C0
0F8003C0
0FC003C0
0FC003C0
0FE003C0
0FF003C0
0FF803C0
0F7C03C0
0F3C03C0
0F1E03C0
0F0F03C0
0F0F83C0
0F0783C0
0F03C3C0
0F01E3C0
0F01E3C0
0F00F3C0
0F007BC0
0F007BC0
0F003FC0
0F001FC0
0F001FC0
0F000FC0
0F0007C0
0F0007C0
0F0003C0
0F0003C0
0F000000
0F000000
0F000000
0F000000
FE000000
FE000000
FC000000
ENDCHAR
STARTCHAR 019E
ENCODING 414
SWIDTH 565 0
DWIDTH 22 0
BBX 16 28 3 -7
BITMAP
03C0
FFF8
FFFC
FFFE
F01F
F00F
F00F
F007
F007
F007
F007
F007
F007
F007
F007
F007
F007
F007
F007
F007
F007
0007
0007
0007
0007
0007
0007
0007
ENDCHAR
STARTCHAR 019F
ENCODING 415
SWIDTH 771 0
DWIDTH 30 0
BBX 26 29 2 -1
BITMAP
000C0000
00FFE000
03FFF000
07FFFC00
0F807E00
1F003E00
3E001F00
3C000F80
78000780
78000780
780007C0
F80003C0
F00003C0
FFFFFFC0
FFFFFFC0
FFFFFFC0
F00003C0
F00003C0
780007C0
78000780
78000780
3C000F80
3E001F00
1F003E00
0F807E00
07FFFC00
03FFF000
00FFE000
001C0000
ENDCHAR
STARTCHAR 01A0
ENCODING 416
SWIDTH 771 0
DWIDTH 30 0
BBX 26 32 2 -1
BITMAP
000003C0
000003C0
000003C0
000E03C0
00FFE380
03FFF780
07FFFF00
0F807E00
1F003E00
3E001F00
3C000F80
78000780
78000780
780007C0
F00003C0
F00003C0
F00003C0
F00003C0
F00003C0
F00003C0
F00003C0
780007C0
78000780
78000780
3C000F80
3E001F00
1F003E00
0F807E00
07FFFC00
03FFF000
00FFE000
001C0000
ENDCHAR
STARTCHAR 01A1
ENCODING 417
SWIDTH 565 0
DWIDTH 22 0
BBX 21 25 2 -1
BITMAP
000078
000078
000070
01F070
07FCF0
1FFFE0
3FBFE0
3C07C0
7803C0
7803C0
F001E0
F001E0
F001E0
F001E0
F001E0
F001E0
F001E0
F001E0
7803C0
7807C0
3E0F80
1FFF00
0FFE00
07FC00
004000
ENDCHAR
STARTCHAR 01A2
ENCODING 418
SWIDTH 1002 0
DWIDTH 39 0
BBX 34 29 2 -1
BITMAP
000C002000
01FFC3FE00
03FFEFFF00
0FFFFFFF80
1F80FE07C0
1F003C03C0
3E001E03C0
3C001F03C0
78000F01C0
78000F01C0
78000F01C0
F0000781C0
F0000781C0
F0000781C0
F0000781C0
F0000781C0
F0000781C0
F0000781C0
78000F81C0
78000F01C0
78000F01C0
3C001F01C0
3E001E01C0
1F003C01C0
1F80FC01C0
0FFFF801C0
03FFF001C0
01FFC001C0
0008000000
ENDCHAR
STARTCHAR 01A3
ENCODING 419
SWIDTH 797 0
DWIDTH 31 0
BBX 27 28 2 -7
BITMAP
01E03C00
07FCFF00
1FFFFF80
3FBFFFC0
3C0F83C0
780781E0
7803C1E0
F003C1E0
F003C1E0
F001C1E0
F001C1E0
F001C1E0
F001C1E0
F003C1E0
F003C1E0
7803C1E0
780781E0
3C0F81E0
1FFF01E0
0FFE01E0
07F801E0
004001E0
000001E0
000001E0
000001E0
000001E0
000001E0
000001E0
ENDCHAR
STARTCHAR 01A4
ENCODING 420
SWIDTH 694 0
DWIDTH 27 0
BBX 25 27 1 0
BITMAP
0FFFE000
3FFFFC00
7FFFFE00
FBC07F00
E3C00F00
E3C00F80
E3C00780
E3C00780
03C00780
03C00780
03C00780
03C00F80
03C01F00
03C07F00
03FFFE00
03FFF800
03FFC000
03C00000
03C00000
03C00000
03C00000
03C00000
03C00000
03C00000
03C00000
03C00000
03C00000
ENDCHAR
STARTCHAR 01A5
ENCODING 421
SWIDTH 565 0
DWIDTH 22 0
BBX 18 37 3 -7
BITMAP
1F0000
7F0000
7F0000
F00000
F00000
F00000
F00000
F00000
F00000
F3C000
FFF800
FFFC00
FFFE00
F01F00
F00F80
F00780
F003C0
F003C0
F003C0
F003C0
F003C0
F003C0
F003C0
F00380
F00780
F00780
F81F00
FFFF00
FFFE00
FFF800
F00000
F00000
F00000
F00000
F00000
F00000
F00000
ENDCHAR
STARTCHAR 01A6
ENCODING 422
SWIDTH 617 0
DWIDTH 24 0
BBX 22 34 3 -4
BITMAP
F00000
F00000
F00000
FFF800
FFFE00
FFFF80
F01FC0
F003C0
F003E0
F001E0
F001E0
F001E0
F001E0
F001E0
F003C0
F007C0
FFFF80
FFFF00
FFFC00
F03C00
F03E00
F01F00
F00F00
F00780
F007C0
F003C0
F003E0
F001E0
F000F0
F000F0
000078
000078
00003C
00003C
ENDCHAR
STARTCHAR 01A7
ENCODING 423
SWIDTH 514 0
DWIDTH 20 0
BBX 18 29 1 -1
BITMAP
018000
1FFC00
7FFE00
3FFF00
300F80
000780
0003C0
0003C0
0003C0
0007C0
000F80
001F80
00FF00
03FE00
0FF800
1FE000
3F0000
7C0000
780000
F80000
F00000
F00000
F00000
F80000
7C01C0
3FFFC0
1FFFC0
0FFF80
006000
ENDCHAR
STARTCHAR 01A8
ENCODING 424
SWIDTH 437 0
DWIDTH 17 0
BBX 14 21 2 0
BITMAP
1F00
7FE0
7FF0
70F8
0078
0038
0038
0078
00F8
07F0
1FE0
7F80
FE00
F800
F000
E000
E000
F008
FFF8
7FFC
3FF8
ENDCHAR
STARTCHAR 01A9
ENCODING 425
SWIDTH 540 0
DWIDTH 21 0
BBX 19 27 1 0
BITMAP
7FFFE0
7FFFE0
7FFFE0
3C0000
3E0000
1E0000
0F0000
078000
03C000
03E000
01F000
00F000
007800
007800
00F000
01E000
03E000
07C000
078000
0F0000
1E0000
3C0000
7C0000
780000
FFFFE0
FFFFE0
FFFFE0
ENDCHAR
STARTCHAR 01AA
ENCODING 426
SWIDTH 282 0
DWIDTH 11 0
BBX 15 37 -4 -7
BITMAP
1F80
3FE0
7FE0
70F0
E0F0
E0F0
70F0
79F0
3FF0
1FF0
00F0
00F0
00F0
00F0
00F0
00F0
00F0
00F0
00F0
00F0
00F0
00F0
00F0
00F0
00F0
00F0
00F0
00F0
00F0
00F0
00F0
00F0
00F0
0078
007E
007E
001E
ENDCHAR
STARTCHAR 01AB
ENCODING 427
SWIDTH 385 0
DWIDTH 15 0
BBX 12 33 3 -7
BITMAP
F000
F000
F000
F000
F000
F000
FFE0
FFE0
FFE0
F000
F000
F000
F000
F000
F000
F000
F000
F000
F000
F000
F000
F000
F800
7FF0
7FF0
1FF0
00F0
00F0
00F0
00E0
0FE0
0FE0
0FC0
ENDCHAR
STARTCHAR 01AC
ENCODING 428
SWIDTH 591 0
DWIDTH 23 0
BBX 21 27 1 0
BITMAP
1FFFF8
7FFFF8
7FFFF8
F87800
E07800
E07800
E07800
E07800
007800
007800
007800
007800
007800
007800
007800
007800
007800
007800
007800
007800
007800
007800
007800
007800
007800
007800
007800
ENDCHAR
STARTCHAR 01AD
ENCODING 429
SWIDTH 385 0
DWIDTH 15 0
BBX 12 30 3 0
BITMAP
0FF0
3FF0
7FF0
7810
F000
F000
F000
F000
F000
F000
FFE0
FFE0
FFE0
F000
F000
F000
F000
F000
F000
F000
F000
F000
F000
F000
F000
F000
F800
7FE0
7FF0
1FF0
ENDCHAR
STARTCHAR 01AE
ENCODING 430
SWIDTH 540 0
DWIDTH 21 0
BBX 20 34 1 -7
BITMAP
FFFFF0
FFFFF0
FFFFF0
00F000
00F000
00F000
00F000
00F000
00F000
00F000
00F000
00F000
00F000
00F000
00F000
00F000
00F000
00F000
00F000
00F000
00F000
00F000
00F000
00F000
00F000
00F000
00F000
00F000
00F000
00F000
00F000
007F00
007F00
003F00
ENDCHAR
STARTCHAR 01AF
ENCODING 431
SWIDTH 694 0
DWIDTH 27 0
BBX 26 32 3 -1
BITMAP
000003C0
000003C0
00000380
00000780
F0007F80
F0007F00
F0007800
F0007800
F0007800
F0007800
F0007800
F0007800
F0007800
F0007800
F0007800
F0007800
F0007800
F0007800
F0007800
F0007800
F0007800
F0007800
F0007800
F000F000
7800F000
7800F000
7C01E000
3E03E000
1FFFC000
0FFF8000
07FE0000
00600000
ENDCHAR
STARTCHAR 01B0
ENCODING 432
SWIDTH 591 0
DWIDTH 23 0
BBX 21 24 3 0
BITMAP
000038
000078
000078
0000F8
F007F0
F007E0
F00700
F00700
F00700
F00700
F00700
F00700
F00700
F00700
F00700
F00700
F00700
F00700
F00700
F80700
7C0700
7FFF00
3FFF00
0FFF00
ENDCHAR
STARTCHAR 01B1
ENCODING 433
SWIDTH 771 0
DWIDTH 30 0
BBX 26 28 2 -1
BITMAP
FFC0FFC0
FFC0FFC0
FFC0FFC0
07807800
0F003C00
0F001E00
1E000F00
3C000F00
3C000780
38000780
78000780
780003C0
780003C0
780003C0
780003C0
780003C0
780003C0
780003C0
78000780
7C000780
3C000F80
3E000F00
1F001F00
0F807E00
07FFFC00
03FFF800
00FFE000
000E0000
ENDCHAR
STARTCHAR 01B2
ENCODING 434
SWIDTH 668 0
DWIDTH 26 0
BBX 21 28 3 -1
BITMAP
F03F00
F01FC0
F01FE0
F003E0
F001F0
F000F0
F00078
F00078
F00078
F00078
F00078
F00078
F00078
F00038
F00078
F00078
F00078
F00078
F00078
F00078
7800F0
7800F0
7C01E0
3E07E0
3FFFC0
1FFF80
07FE00
006000
ENDCHAR
STARTCHAR 01B3
ENCODING 435
SWIDTH 668 0
DWIDTH 26 0
BBX 26 27 0 0
BITMAP
F8001F80
78003FC0
3C007FC0
3C007880
1E00F000
1E00E000
0F01E000
0F81C000
0783C000
03C78000
03C78000
01EF0000
01FE0000
00FE0000
007C0000
007C0000
003C0000
003C0000
003C0000
003C0000
003C0000
003C0000
003C0000
003C0000
003C0000
003C0000
003C0000
ENDCHAR
STARTCHAR 01B4
ENCODING 436
SWIDTH 565 0
DWIDTH 22 0
BBX 22 28 0 -7
BITMAP
000078
7801FC
7801FC
7803C4
3C0380
3C0380
3C0780
1C0780
1E0700
1E0700
0F0F00
0F0E00
070E00
079E00
079C00
03DC00
03DC00
01F800
01F800
00F800
00F000
007000
00E000
01E000
03C000
7FC000
FF8000
FE0000
ENDCHAR
STARTCHAR 01B5
ENCODING 437
SWIDTH 565 0
DWIDTH 22 0
BBX 20 27 1 0
BITMAP
7FFFE0
7FFFE0
7FFFE0
0001E0
0003C0
000780
000F80
001F00
001E00
003C00
007800
3FFFE0
3FFFE0
3FFFE0
03E000
03C000
078000
0F8000
0F0000
1E0000
1E0000
3C0000
780000
780000
FFFFF0
FFFFF0
FFFFF0
ENDCHAR
STARTCHAR 01B6
ENCODING 438
SWIDTH 462 0
DWIDTH 18 0
BBX 16 20 1 0
BITMAP
7FFF
7FFF
7FFF
003E
003C
0078
00F0
01E0
3FFE
3FFE
3FFE
0F00
0F00
1E00
3C00
3C00
7800
7FFF
FFFF
FFFF
ENDCHAR
STARTCHAR 01B7
ENCODING 439
SWIDTH 565 0
DWIDTH 22 0
BBX 19 28 1 -1
BITMAP
7FFFC0
7FFFC0
7FFFC0
0007C0
000780
000F00
001E00
003C00
007800
00F000
01E000
03E000
03FC00
03FF00
001F80
0007C0
0003E0
0001E0
0001E0
0001E0
0001E0
0001E0
0003E0
6007C0
FFFF80
FFFF00
3FFE00
018000
ENDCHAR
STARTCHAR 01B8
ENCODING 440
SWIDTH 565 0
DWIDTH 22 0
BBX 19 28 2 -1
BITMAP
7FFFC0
7FFFC0
7FFFC0
7C0000
3C0000
1E0000
0F0000
078000
03C000
01E000
00F000
007800
07F800
1FF800
3F0000
7C0000
F80000
F00000
F00000
F00000
F00000
F00000
F80000
7C00C0
3FFFE0
1FFFE0
0FFF80
003000
ENDCHAR
STARTCHAR 01B9
ENCODING 441
SWIDTH 462 0
DWIDTH 18 0
BBX 16 27 2 -7
BITMAP
FFFF
FFFF
7FFF
7800
3C00
1E00
0F00
0F00
0780
03C0
01E0
03F0
1FF0
3FF0
7C00
F800
F000
E000
E000
E000
E000
F000
F800
7E03
3FFF
1FFF
07FE
ENDCHAR
STARTCHAR 01BA
ENCODING 442
SWIDTH 462 0
DWIDTH 18 0
BBX 17 27 0 -7
BITMAP
7FFF00
7FFF00
7FFF00
001E00
003C00
007800
00F000
01E000
03C000
07F000
07FC00
01FE00
001F00
000F00
000780
000780
000780
000F00
003F00
03FE00
1FFC00
7FE000
7E0000
F00000
F00000
F00000
700000
ENDCHAR
STARTCHAR 01BB
ENCODING 443
SWIDTH 540 0
DWIDTH 21 0
BBX 17 28 2 0
BITMAP
010000
1FF800
7FFC00
FFFE00
F03E00
401F00
000F00
000F00
000F00
000F00
001E00
001E00
003C00
007800
7FFF00
7FFF00
7FFF00
07C000
0F8000
1F0000
3E0000
3C0000
780000
780000
F00000
FFFF80
FFFF80
FFFF80
ENDCHAR
STARTCHAR 01BC
ENCODING 444
SWIDTH 514 0
DWIDTH 20 0
BBX 19 28 1 -1
BITMAP
FFFFC0
FFFFC0
FFFFC0
0E0000
0E0000
0E0000
0E0000
1E0000
1E0000
1E0000
1F0000
1FF800
1FFE00
1FFF00
001F80
0007C0
0003C0
0003C0
0001E0
0001E0
0001E0
0003C0
0003C0
200FC0
7FFF80
7FFF00
3FFC00
018000
ENDCHAR
STARTCHAR 01BD
ENCODING 445
SWIDTH 488 0
DWIDTH 19 0
BBX 17 20 1 0
BITMAP
FFFF00
FFFF00
FFFF00
1C0000
1C0000
1C0000
1C0000
1F0000
1FF800
1FFE00
007E00
000F00
000700
000780
000780
000700
400F00
7FFF00
7FFE00
7FF800
ENDCHAR
STARTCHAR 01BE
ENCODING 446
SWIDTH 462 0
DWIDTH 18 0
BBX 14 26 2 0
BITMAP
7800
7800
7800
7800
7800
7800
7FF0
7FF0
7FF0
7800
7800
7800
7800
7C00
3F80
1FE0
07F8
01FC
007C
003C
001C
001C
803C
FFFC
FFF8
FFE0
ENDCHAR
STARTCHAR 01BF
ENCODING 447
SWIDTH 565 0
DWIDTH 22 0
BBX 17 28 3 -7
BITMAP
07C000
7FF800
FFFC00
FFFE00
F01F00
F00F80
F00780
F00780
F00780
F00780
F00780
F00780
F00780
F00780
F00F00
F01F00
F03E00
F07C00
F1F800
FFF000
FFC000
FF0000
FC0000
F00000
F00000
F00000
F00000
F00000
ENDCHAR
STARTCHAR 01C0
ENCODING 448
SWIDTH 257 0
DWIDTH 10 0
BBX 3 37 4 -7
BITMAP
E0
E0
E0
E0
E0
E0
E0
E0
E0
E0
E0
E0
E0
E0
E0
E0
E0
E0
E0
E0
E0
E0
E0
E0
E0
E0
E0
E0
E0
E0
E0
E0
E0
E0
E0
E0
E0
ENDCHAR
STARTCHAR 01C1
ENCODING 449
SWIDTH 462 0
DWIDTH 18 0
BBX 11 37 4 -7
BITMAP
E0E0
E0E0
E0E0
E0E0
E0E0
E0E0
E0E0
E0E0
E0E0
E0E0
E0E0
E0E0
E0E0
E0E0
E0E0
E0E0
E0E0
E0E0
E0E0
E0E0
E0E0
E0E0
E0E0
E0E0
E0E0
E0E0
E0E0
E0E0
E0E0
E0E0
E0E0
E0E0
E0E0
E0E0
E0E0
E0E0
E0E0
ENDCHAR
STARTCHAR 01C2
ENCODING 450
SWIDTH 565 0
DWIDTH 22 0
BBX 18 37 2 -7
BITMAP
01E000
01E000
01E000
01E000
01E000
01E000
01E000
01E000
01E000
01E000
01E000
01E000
01E000
FFFFC0
FFFFC0
FFFFC0
01E000
01E000
01E000
01E000
01E000
FFFFC0
FFFFC0
01E000
01E000
01E000
01E000
01E000
01E000
01E000
01E000
01E000
01E000
01E000
01E000
01E000
01E000
ENDCHAR
STARTCHAR 01C3
ENCODING 451
SWIDTH 257 0
DWIDTH 10 0
BBX 5 28 3 -1
BITMAP
F0
F0
F0
F0
F0
F0
F0
F0
F0
F0
F0
70
70
70
70
70
70
70
70
00
00
00
60
F8
F8
F8
F0
20
ENDCHAR
STARTCHAR 01C4
ENCODING 452
SWIDTH 1285 0
DWIDTH 50 0
BBX 46 36 3 0
BITMAP
000000008180
00000001C380
00000000E780
000000007F00
000000003E00
000000001C00
000000000800
000000000000
000000000000
FFF8001FFFF8
FFFF001FFFF8
FFFF801FFFF8
F00FE0000078
F003F00000F0
F001F00001E0
F000F80003C0
F000780007C0
F0003C000780
F0003C000F00
F0003C001E00
F0003C003E00
F0003C003C00
F0003C007800
F0003C00F000
F0003C00F000
F0003C01E000
F0003C03C000
F0003C03C000
F00078078000
F000F80F8000
F001F00F0000
F003F01E0000
F00FE01E0000
FFFFC03FFFFC
FFFF003FFFFC
FFF8003FFFFC
ENDCHAR
STARTCHAR 01C5
ENCODING 453
SWIDTH 1182 0
DWIDTH 46 0
BBX 42 30 3 0
BITMAP
000000020400
000000070E00
000000079C00
FFF80003F800
FFFF0001F000
FFFF8000F000
F00FE0006000
F003F0000000
F001F0000000
F000F8000000
F000781FFF80
F0003C1FFF80
F0003C1FFF80
F0003C000F80
F0003C001F00
F0003C001E00
F0003C003C00
F0003C007800
F0003C00F000
F0003C00F000
F0003C01E000
F0003C03C000
F0007807C000
F000F8078000
F001F00F0000
F003F01E0000
F00FE01E0000
FFFFC03FFFC0
FFFF003FFFC0
FFF8003FFFC0
ENDCHAR
STARTCHAR 01C6
ENCODING 454
SWIDTH 1054 0
DWIDTH 41 0
BBX 38 30 2 0
BITMAP
0003C02040
0003C070E0
0003C039E0
0003C01FC0
0003C01F80
0003C00F00
0003C00600
0003C00000
0003C00000
01C3C00000
0FFFC1FFFC
1FFFC1FFFC
3FFFC1FFFC
7C07C000F8
7803C000F0
7803C001E0
F003C003C0
F003C00780
F003C00F80
F003C00F00
F003C01E00
F003C03C00
F003C03C00
F003C07800
7803C0F000
7C03C0F000
3E03C1E000
1FFFC1FFFC
0FFFC3FFFC
07FFC3FFFC
ENDCHAR
STARTCHAR 01C7
ENCODING 455
SWIDTH 1002 0
DWIDTH 39 0
BBX 34 28 3 -1
BITMAP
F0000003C0
F0000003C0
F0000003C0
F0000003C0
F0000003C0
F0000003C0
F0000003C0
F0000003C0
F0000003C0
F0000003C0
F0000003C0
F0000003C0
F0000003C0
F0000003C0
F0000003C0
F0000003C0
F0000003C0
F0000003C0
F0000003C0
F0000003C0
F0000003C0
F000000780
F000000780
F000180F80
FFFFBFFF00
FFFFBFFE00
FFFF9FFC00
000000E000
ENDCHAR
STARTCHAR 01C8
ENCODING 456
SWIDTH 771 0
DWIDTH 30 0
BBX 25 36 3 -7
BITMAP
00000600
00000F00
F0000F80
F0000F00
F0000700
F0000000
F0000000
F0000000
F0000000
F0000F00
F0000F00
F0000F00
F0000F00
F0000F00
F0000F00
F0000F00
F0000F00
F0000F00
F0000F00
F0000F00
F0000F00
F0000F00
F0000F00
F0000F00
F0000F00
F0000F00
FFFF8F00
FFFF8F00
FFFF8F00
00000F00
00000F00
00000F00
00001E00
0001FE00
0001FC00
0001F800
ENDCHAR
STARTCHAR 01C9
ENCODING 457
SWIDTH 514 0
DWIDTH 20 0
BBX 15 37 3 -7
BITMAP
F000
F008
F01E
F03E
F03E
F01C
F000
F000
F000
F000
F01E
F01E
F01E
F01E
F01E
F01E
F01E
F01E
F01E
F01E
F01E
F01E
F01E
F01E
F01E
F01E
F01E
FE1E
7E1E
3C1E
001C
001C
003C
003C
07F8
07F8
07E0
ENDCHAR
STARTCHAR 01CA
ENCODING 458
SWIDTH 1208 0
DWIDTH 47 0
BBX 42 28 3 -1
BITMAP
F0003C0003C0
F8003C0003C0
FC003C0003C0
FC003C0003C0
FE003C0003C0
FF003C0003C0
FF803C0003C0
F7C03C0003C0
F3C03C0003C0
F1E03C0003C0
F0F03C0003C0
F0F83C0003C0
F0783C0003C0
F03C3C0003C0
F01E3C0003C0
F01E3C0003C0
F00F3C0003C0
F007BC0003C0
F007BC0003C0
F003FC0003C0
F001FC0003C0
F001FC000780
F000FC000780
F0007C180F80
F0007C3FFF00
F0003C3FFE00
F0003C0FFC00
00000000C000
ENDCHAR
STARTCHAR 01CB
ENCODING 459
SWIDTH 977 0
DWIDTH 38 0
BBX 33 36 3 -7
BITMAP
0000000200
0000000F00
F0003C0F80
F8003C0F80
FC003C0700
FC003C0000
FE003C0000
FF003C0000
FF803C0000
F7C03C0700
F3C03C0700
F1E03C0700
F0F03C0700
F0F83C0700
F0783C0700
F03C3C0700
F01E3C0700
F01E3C0700
F00F3C0700
F007BC0700
F007BC0700
F003FC0700
F001FC0700
F001FC0700
F000FC0700
F0007C0700
F0007C0700
F0003C0700
F0003C0700
0000000700
0000000F00
0000000F00
0000001F00
000001FE00
000001FC00
000001F800
ENDCHAR
STARTCHAR 01CC
ENCODING 460
SWIDTH 822 0
DWIDTH 32 0
BBX 27 36 3 -7
BITMAP
00000080
000003C0
000003E0
000003E0
000001C0
00000000
00000000
00000000
03C00000
FFF801C0
FFFC01C0
FFFE01C0
F01F01C0
F00F01C0
F00F01C0
F00701C0
F00701C0
F00701C0
F00701C0
F00701C0
F00701C0
F00701C0
F00701C0
F00701C0
F00701C0
F00701C0
F00701C0
F00701C0
F00701C0
000001C0
000003C0
000003C0
000007C0
00007F80
00007F00
00007E00
ENDCHAR
STARTCHAR 01CD
ENCODING 461
SWIDTH 642 0
DWIDTH 25 0
BBX 25 36 0 0
BITMAP
00408000
00E1C000
00F38000
007F0000
003E0000
001C0000
000C0000
00000000
00000000
001E0000
003E0000
003F0000
003F0000
007F8000
00778000
00F3C000
00E3C000
01E1C000
01E1E000
01C1E000
03C0F000
0380F000
0780F000
07807800
07007800
0F003C00
0FFFFC00
1FFFFC00
1FFFFE00
1E001E00
3C001E00
3C000F00
38000F00
78000F80
78000780
F0000780
ENDCHAR
STARTCHAR 01CE
ENCODING 462
SWIDTH 514 0
DWIDTH 20 0
BBX 15 30 2 0
BITMAP
0810
1C38
0E78
07F0
03E0
01C0
0180
0000
0000
0FC0
3FF8
3FFC
3CFC
001E
001E
000E
000E
000E
1FFE
3FFE
7FFE
F80E
F00E
E00E
E00E
F00E
F00E
7FFE
7FFE
1FFE
ENDCHAR
STARTCHAR 01CF
ENCODING 463
SWIDTH 257 0
DWIDTH 10 0
BBX 11 36 0 0
BITMAP
40C0
E1E0
73C0
3F80
1F00
0E00
0400
0000
0000
1E00
1E00
1E00
1E00
1E00
1E00
1E00
1E00
1E00
1E00
1E00
1E00
1E00
1E00
1E00
1E00
1E00
1E00
1E00
1E00
1E00
1E00
1E00
1E00
1E00
1E00
1E00
ENDCHAR
STARTCHAR 01D0
ENCODING 464
SWIDTH 231 0
DWIDTH 9 0
BBX 10 30 0 0
BITMAP
4080
E1C0
73C0
7F80
3F00
1E00
0C00
0000
0000
0000
1E00
1E00
1E00
1E00
1E00
1E00
1E00
1E00
1E00
1E00
1E00
1E00
1E00
1E00
1E00
1E00
1E00
1E00
1E00
1E00
ENDCHAR
STARTCHAR 01D1
ENCODING 465
SWIDTH 771 0
DWIDTH 30 0
BBX 26 37 2 -1
BITMAP
00408000
00E1C000
0073C000
003F8000
001F0000
000E0000
00040000
00000000
000C0000
00FFE000
03FFF000
07FFFC00
0F807E00
1F003E00
3E001F00
3C000F80
78000780
78000780
780007C0
F00003C0
F00003C0
F00003C0
F00003C0
F00003C0
F00003C0
F00003C0
780007C0
78000780
78000780
3C000F80
3E001F00
1F003E00
0F807E00
07FFFC00
03FFF000
00FFE000
001C0000
ENDCHAR
STARTCHAR 01D2
ENCODING 466
SWIDTH 565 0
DWIDTH 22 0
BBX 19 31 2 -1
BITMAP
040400
0E0E00
07BC00
03F800
01F000
00E000
004000
000000
000000
01F000
07FC00
1FFF00
3FBF80
3C0780
7803C0
7803C0
F001E0
F001E0
F001E0
F001E0
F001E0
F001E0
F001E0
F001E0
7803C0
7807C0
3E0F80
1FFF00
0FFE00
07FC00
004000
ENDCHAR
STARTCHAR 01D3
ENCODING 467
SWIDTH 668 0
DWIDTH 26 0
BBX 21 37 3 -1
BITMAP
020600
070F00
039E00
01FC00
00F800
007000
002000
000000
000000
F00078
F00078
F00078
F00078
F00078
F00078
F00078
F00078
F00078
F00078
F00078
F00078
F00078
F00078
F00078
F00078
F00078
F00078
F00078
F000F0
7800F0
7800F0
7C01E0
3E03E0
1FFFC0
0FFF80
07FE00
006000
ENDCHAR
STARTCHAR 01D4
ENCODING 468
SWIDTH 565 0
DWIDTH 22 0
BBX 16 30 3 0
BITMAP
0810
1C38
0E78
07F0
07E0
03C0
0180
0000
0000
0000
F007
F007
F007
F007
F007
F007
F007
F007
F007
F007
F007
F007
F007
F007
F007
F807
7C07
7FFF
3FFF
0FFF
ENDCHAR
STARTCHAR 01D5
ENCODING 469
SWIDTH 668 0
DWIDTH 26 0
BBX 21 38 3 -1
BITMAP
07FE00
07FE00
000000
000000
070700
0F8F00
0F0F00
070700
000000
000000
F00078
F00078
F00078
F00078
F00078
F00078
F00078
F00078
F00078
F00078
F00078
F00078
F00078
F00078
F00078
F00078
F00078
F00078
F00078
F000F0
7800F0
7800F0
7C01E0
3E03E0
1FFFC0
0FFF80
07FE00
006000
ENDCHAR
STARTCHAR 01D6
ENCODING 470
SWIDTH 565 0
DWIDTH 22 0
BBX 16 31 3 0
BITMAP
1FF8
1FF8
0000
0000
1C38
3C3C
3C3C
1C3C
0000
0000
0000
F007
F007
F007
F007
F007
F007
F007
F007
F007
F007
F007
F007
F007
F007
F007
F807
7C07
7FFF
3FFF
0FFF
ENDCHAR
STARTCHAR 01D7
ENCODING 471
SWIDTH 668 0
DWIDTH 26 0
BBX 21 38 3 -1
BITMAP
001800
001C00
003C00
007800
1E7380
1E63C0
1E03C0
0C0380
000000
000000
F00078
F00078
F00078
F00078
F00078
F00078
F00078
F00078
F00078
F00078
F00078
F00078
F00078
F00078
F00078
F00078
F00078
F00078
F00078
F000F0
7800F0
7800F0
7C01E0
3E03E0
1FFFC0
0FFF80
07FE00
006000
ENDCHAR
STARTCHAR 01D8
ENCODING 472
SWIDTH 565 0
DWIDTH 22 0
BBX 16 33 3 0
BITMAP
0020
0070
00F0
00E0
01C0
0180
381C
3C3C
3C3C
3C1C
0000
0000
0000
F007
F007
F007
F007
F007
F007
F007
F007
F007
F007
F007
F007
F007
F007
F007
F807
7C07
7FFF
3FFF
0FFF
ENDCHAR
STARTCHAR 01D9
ENCODING 473
SWIDTH 668 0
DWIDTH 26 0
BBX 21 38 3 -1
BITMAP
030600
03DE00
01FC00
00F000
1E2380
1E03C0
1E03C0
0C0380
000000
000000
F00078
F00078
F00078
F00078
F00078
F00078
F00078
F00078
F00078
F00078
F00078
F00078
F00078
F00078
F00078
F00078
F00078
F00078
F00078
F000F0
7800F0
7800F0
7C01E0
3E03E0
1FFFC0
0FFF80
07FE00
006000
ENDCHAR
STARTCHAR 01DA
ENCODING 474
SWIDTH 565 0
DWIDTH 22 0
BBX 16 32 3 0
BITMAP
0C30
1E78
07E0
03C0
0180
381C
3C3C
3C3C
3C1C
0000
0000
0000
F007
F007
F007
F007
F007
F007
F007
F007
F007
F007
F007
F007
F007
F007
F007
F807
7C07
7FFF
3FFF
0FFF
ENDCHAR
STARTCHAR 01DB
ENCODING 475
SWIDTH 668 0
DWIDTH 26 0
BBX 21 38 3 -1
BITMAP
008000
03C000
01E000
00E000
1E7380
1E33C0
1E03C0
0C0380
000000
000000
F00078
F00078
F00078
F00078
F00078
F00078
F00078
F00078
F00078
F00078
F00078
F00078
F00078
F00078
F00078
F00078
F00078
F00078
F00078
F000F0
7800F0
7800F0
7C01E0
3E03E0
1FFFC0
0FFF80
07FE00
006000
ENDCHAR
STARTCHAR 01DC
ENCODING 476
SWIDTH 565 0
DWIDTH 22 0
BBX 16 33 3 0
BITMAP
0400
0E00
0F00
0780
0380
0180
381C
3C3C
3C3C
3C1C
0000
0000
0000
F007
F007
F007
F007
F007
F007
F007
F007
F007
F007
F007
F007
F007
F007
F007
F807
7C07
7FFF
3FFF
0FFF
ENDCHAR
STARTCHAR 01DD
ENCODING 477
SWIDTH 540 0
DWIDTH 21 0
BBX 18 21 2 0
BITMAP
07C000
7FF800
3FFC00
3FFE00
001F00
000F80
000780
000780
000380
0003C0
FFFFC0
FFFFC0
FFFFC0
F00380
F00780
F00780
780F00
7C1F00
3FFE00
1FFC00
0FF000
ENDCHAR
STARTCHAR 01DE
ENCODING 478
SWIDTH 642 0
DWIDTH 25 0
BBX 25 37 0 0
BITMAP
00FFC000
00FFC000
00000000
00000000
01E1C000
01E1E000
01E1E000
00C1C000
00000000
00000000
001E0000
003E0000
003F0000
003F0000
007F8000
00778000
00F3C000
00E3C000
01E1C000
01E1E000
01C1E000
03C0F000
0380F000
0780F000
07807800
07007800
0F003C00
0FFFFC00
1FFFFC00
1FFFFE00
1E001E00
3C001E00
3C000F00
38000F00
78000F80
78000780
F0000780
ENDCHAR
STARTCHAR 01DF
ENCODING 479
SWIDTH 514 0
DWIDTH 20 0
BBX 15 31 2 0
BITMAP
1FF8
1FF8
0000
0000
1C1C
3C3C
3C3C
1C1C
0000
0000
0FC0
3FF8
3FFC
3CFC
001E
001E
000E
000E
000E
1FFE
3FFE
7FFE
F80E
F00E
E00E
E00E
F00E
F00E
7FFE
7FFE
1FFE
ENDCHAR
STARTCHAR 01E0
ENCODING 480
SWIDTH 642 0
DWIDTH 25 0
BBX 25 37 0 0
BITMAP
00FFC000
00FFC000
00000000
00000000
001E0000
001E0000
001E0000
000C0000
00000000
00000000
001E0000
003E0000
003F0000
003F0000
007F8000
00778000
00F3C000
00E3C000
01E1C000
01E1E000
01C1E000
03C0F000
0380F000
0780F000
07807800
07007800
0F003C00
0FFFFC00
1FFFFC00
1FFFFE00
1E001E00
3C001E00
3C000F00
38000F00
78000F80
78000780
F0000780
ENDCHAR
STARTCHAR 01E1
ENCODING 481
SWIDTH 514 0
DWIDTH 20 0
BBX 15 31 2 0
BITMAP
1FF8
1FF8
0000
0000
01C0
03C0
03C0
01C0
0000
0000
0FC0
3FF8
3FFC
3CFC
001E
001E
000E
000E
000E
1FFE
3FFE
7FFE
F80E
F00E
E00E
E00E
F00E
F00E
7FFE
7FFE
1FFE
ENDCHAR
STARTCHAR 01E2
ENCODING 482
SWIDTH 925 0
DWIDTH 36 0
BBX 35 34 0 0
BITMAP
00007FF000
00007FF000
00007FF000
0000000000
0000000000
0000000000
0000000000
0000FFFFC0
0000FFFFC0
0001FFFFC0
0003DC0000
00039C0000
00079C0000
000F1C0000
000E1C0000
001E1C0000
003C1C0000
003C1C0000
00781FFF80
00F01FFF80
00F01FFF80
01E01C0000
01E01C0000
03C01C0000
07FFFC0000
07FFFC0000
0FFFFC0000
0F001C0000
1E001C0000
1E001C0000
3C001C0000
3C001FFFE0
78001FFFE0
F8001FFFE0
ENDCHAR
STARTCHAR 01E3
ENCODING 483
SWIDTH 848 0
DWIDTH 33 0
BBX 29 28 2 0
BITMAP
007FF000
007FF000
007FF000
00000000
00000000
00000000
00000000
0FC01E00
3FF07FC0
3FF9FFE0
3CFFF3F0
001FC0F0
001F8078
000F0078
000F0078
000F0038
0FFFFFF8
3FFFFFF8
7FFFFFF8
F80E0000
F00F0000
E00F0000
E00F0000
F0078000
F00FC000
7FFFFFF0
7FFFFFF0
1FF87FF0
ENDCHAR
STARTCHAR 01E4
ENCODING 484
SWIDTH 694 0
DWIDTH 27 0
BBX 25 29 2 -1
BITMAP
000C0000
00FFF000
03FFF800
07FFF800
0F803800
1F000000
3E000000
3C000000
78000000
78000000
78000000
F8000000
F0000000
F0000000
F0003C00
F0003C00
F0003C00
F0003C00
7803FF80
7803FF80
78003C00
3C003C00
3E003C00
1F003C00
1F803C00
0FFFFC00
03FFFC00
01FFF800
001E0000
ENDCHAR
STARTCHAR 01E5
ENCODING 485
SWIDTH 565 0
DWIDTH 22 0
BBX 20 28 2 -7
BITMAP
00F000
07FF80
1FFF80
3FFF80
3C0380
780380
780380
F00380
F00380
F07FF0
F07FF0
F07FF0
F00380
F00380
780380
780380
3E0F80
3FFF80
1FFF80
07FB80
000380
000380
000780
000780
201F00
7FFF00
7FFC00
3FF800
ENDCHAR
STARTCHAR 01E6
ENCODING 486
SWIDTH 668 0
DWIDTH 26 0
BBX 22 37 2 -1
BITMAP
00C080
01E1C0
00F780
007F00
003E00
001C00
000800
000000
000C00
00FFF0
03FFF8
07FFF8
0FC038
1F0000
3E0000
3C0000
7C0000
780000
780000
F80000
F00000
F00000
F00000
F0003C
F0003C
F0003C
78003C
78003C
78003C
3C003C
3E003C
1F003C
1F803C
0FFFFC
03FFFC
01FFF8
001E00
ENDCHAR
STARTCHAR 01E7
ENCODING 487
SWIDTH 565 0
DWIDTH 22 0
BBX 17 37 2 -7
BITMAP
040C00
0E1C00
073C00
03F800
01F000
00E000
004000
000000
000000
00F000
07FF80
1FFF80
3FFF80
3C0380
780380
780380
F00380
F00380
F00380
F00380
F00380
F00380
F00380
780380
780380
3E0F80
3FFF80
1FFF80
07FB80
000380
000380
000780
000780
201F00
7FFF00
7FFE00
3FF800
ENDCHAR
STARTCHAR 01E8
ENCODING 488
SWIDTH 617 0
DWIDTH 24 0
BBX 21 36 3 0
BITMAP
040C00
0E1E00
07BC00
03F800
01F000
00E000
004000
000000
000000
F001F0
F003E0
F007C0
F00780
F00F00
F01E00
F03C00
F07800
F0F000
F1E000
F3C000
F78000
FF0000
FF8000
F7C000
F3F000
F1F800
F0FC00
F03E00
F01F00
F00F00
F00780
F007C0
F003E0
F001F0
F000F0
F000F8
ENDCHAR
STARTCHAR 01E9
ENCODING 489
SWIDTH 514 0
DWIDTH 20 0
BBX 17 37 2 0
BITMAP
618000
F38000
3F0000
1E0000
0C0000
000000
000000
780000
780000
780000
780000
780000
780000
780000
780000
780000
780000
780F00
781E00
783C00
787C00
78F800
79F000
7BE000
7FC000
7F8000
7F8000
7FC000
7BE000
79F000
78F800
787C00
783E00
781E00
780F00
780780
780780
ENDCHAR
STARTCHAR 01EA
ENCODING 490
SWIDTH 771 0
DWIDTH 30 0
BBX 26 35 2 -7
BITMAP
000C0000
00FFE000
03FFF000
07FFFC00
0F807E00
1F003E00
3E001F00
3C000F80
78000780
78000780
780007C0
F00003C0
F00003C0
F00003C0
F00003C0
F00003C0
F00003C0
F00003C0
780007C0
78000780
78000780
3C000F80
3E001F00
1F003E00
0F807E00
07FFFC00
03FFF000
00FFE000
001F8000
00070000
000E0000
001E0000
001E0000
000FC000
000FC000
ENDCHAR
STARTCHAR 01EB
ENCODING 491
SWIDTH 565 0
DWIDTH 22 0
BBX 19 28 2 -7
BITMAP
01F000
07FC00
1FFF00
3FBF80
3C0780
7803C0
7803C0
F001E0
F001E0
F001E0
F001E0
F001E0
F001E0
F001E0
F001C0
7803C0
7807C0
3E0F80
1FFF00
0FFE00
07FC00
007000
00E000
01C000
01C000
03C000
01F800
00F800
ENDCHAR
STARTCHAR 01EC
ENCODING 492
SWIDTH 771 0
DWIDTH 30 0
BBX 26 41 2 -7
BITMAP
00FFE000
00FFE000
00FFE000
00000000
00000000
00000000
000C0000
00FFE000
03FFF000
07FFFC00
0F807E00
1F003E00
3E001F00
3C000F80
78000780
78000780
780007C0
F00003C0
F00003C0
F00003C0
F00003C0
F00003C0
F00003C0
F00003C0
780007C0
78000780
78000780
3C000F80
3E001F00
1F003E00
0F807E00
07FFFC00
03FFF000
00FFE000
001F8000
00070000
000E0000
001E0000
001E0000
000FC000
000FC000
ENDCHAR
STARTCHAR 01ED
ENCODING 493
SWIDTH 565 0
DWIDTH 22 0
BBX 19 35 2 -7
BITMAP
0FFE00
0FFE00
0FFE00
000000
000000
000000
000000
01F000
07FC00
1FFF00
3FBF80
3C0780
7803C0
7803C0
F001E0
F001E0
F001E0
F001E0
F001E0
F001E0
F001E0
F001C0
7803C0
7807C0
3E0F80
1FFF00
0FFE00
07FC00
007000
00E000
01C000
01C000
03C000
01F800
00F800
ENDCHAR
STARTCHAR 01EE
ENCODING 494
SWIDTH 565 0
DWIDTH 22 0
BBX 19 37 1 -1
BITMAP
060400
070E00
079C00
03F800
01F000
00E000
004000
000000
000000
7FFFC0
7FFFC0
7FFFC0
0007C0
000780
000F00
001E00
003C00
007800
00F000
01E000
03E000
03FC00
03FF00
001F80
0007C0
0003E0
0001E0
0001E0
0001E0
0001E0
0001E0
0003E0
6007C0
FFFF80
FFFF00
3FFE00
018000
ENDCHAR
STARTCHAR 01EF
ENCODING 495
SWIDTH 462 0
DWIDTH 18 0
BBX 17 37 0 -7
BITMAP
081000
1C3800
1E7000
0FE000
07C000
03C000
018000
000000
000000
000000
7FFF00
7FFF00
7FFE00
001E00
003C00
007800
007800
00F000
01E000
03C000
078000
07C000
07F800
07FE00
003F00
000F00
000700
000780
000780
000780
000780
000F00
000F00
E03E00
FFFE00
FFF800
7FE000
ENDCHAR
STARTCHAR 01F0
ENCODING 496
SWIDTH 231 0
DWIDTH 9 0
BBX 13 37 -3 -7
BITMAP
0810
1C38
0E78
0FF0
07E0
03C0
0180
0000
0000
0000
03C0
03C0
03C0
03C0
03C0
03C0
03C0
03C0
03C0
03C0
03C0
03C0
03C0
03C0
03C0
03C0
03C0
03C0
03C0
03C0
03C0
03C0
0380
0780
7F80
7F00
FC00
ENDCHAR
STARTCHAR 01F1
ENCODING 497
SWIDTH 1285 0
DWIDTH 50 0
BBX 46 27 3 0
BITMAP
FFF8001FFFF8
FFFF001FFFF8
FFFF801FFFF8
F00FE0000078
F003F00000F0
F001F00001E0
F000F80003C0
F000780007C0
F0003C000780
F0003C000F00
F0003C001E00
F0003C003E00
F0003C003C00
F0003C007800
F0003C00F000
F0003C00F000
F0003C01E000
F0003C03C000
F0003C03C000
F00078078000
F000F80F8000
F001F00F0000
F003F01E0000
F00FE01E0000
FFFFC03FFFFC
FFFF003FFFFC
FFF8003FFFFC
ENDCHAR
STARTCHAR 01F2
ENCODING 498
SWIDTH 1182 0
DWIDTH 46 0
BBX 42 27 3 0
BITMAP
FFF800000000
FFFF00000000
FFFF80000000
F00FE0000000
F003F0000000
F001F0000000
F000F8000000
F000781FFF80
F0003C1FFF80
F0003C1FFF80
F0003C000F80
F0003C001F00
F0003C001E00
F0003C003C00
F0003C007800
F0003C00F000
F0003C00F000
F0003C01E000
F0003C03C000
F0007807C000
F000F8078000
F001F00F0000
F003F01E0000
F00FE01E0000
FFFFC03FFFC0
FFFF003FFFC0
FFF8003FFFC0
ENDCHAR
STARTCHAR 01F3
ENCODING 499
SWIDTH 1054 0
DWIDTH 41 0
BBX 38 30 2 0
BITMAP
0003C00000
0003C00000
0003C00000
0003C00000
0003C00000
0003C00000
0003C00000
0003C00000
0003C00000
01C3C00000
0FFFC1FFFC
1FFFC1FFFC
3FFFC1FFFC
7C07C000F8
7803C000F0
7803C001E0
F003C003C0
F003C00780
F003C00F80
F003C00F00
F003C01E00
F003C03C00
F003C03C00
F003C07800
7803C0F000
7C03C0F000
3E03C1E000
1FFFC1FFFC
0FFFC3FFFC
07FFC3FFFC
ENDCHAR
STARTCHAR 01F4
ENCODING 500
SWIDTH 668 0
DWIDTH 26 0
BBX 22 37 2 -1
BITMAP
000100
000380
000780
000F00
001E00
003C00
001800
000000
000C00
00FFF0
03FFF8
07FFF8
0FC038
1F0000
3E0000
3C0000
7C0000
780000
780000
F80000
F00000
F00000
F00000
F0003C
F0003C
F0003C
78003C
78003C
78003C
3C003C
3E003C
1F003C
1F803C
0FFFFC
03FFFC
01FFF8
001E00
ENDCHAR
STARTCHAR 01F5
ENCODING 501
SWIDTH 565 0
DWIDTH 22 0
BBX 17 37 2 -7
BITMAP
001800
003C00
003C00
007800
00F000
01E000
00C000
000000
000000
00F000
07FF80
1FFF80
3FFF80
3C0380
780380
780380
F00380
F00380
F00380
F00380
F00380
F00380
F00380
780380
780380
3E0F80
3FFF80
1FFF80
07FB80
000380
000380
000780
000780
201F00
7FFF00
7FFE00
3FF800
ENDCHAR
STARTCHAR 01F6
ENCODING 502
SWIDTH 1054 0
DWIDTH 41 0
BBX 35 28 3 -1
BITMAP
F000780000
F000780000
F000780000
F000780000
F000780000
F000780000
F000780000
F0007801E0
F0007801E0
F0007801E0
F0007801E0
FFFFF801E0
FFFFF801E0
FFFFF801E0
F0007801E0
F0007801E0
F0007801E0
F0007801E0
F0007801E0
F0007801E0
F0007801E0
F0003C01E0
F0003C03E0
F0003E07C0
F0001FFFC0
F0000FFF80
F00007FE00
0000006000
ENDCHAR
STARTCHAR 01F7
ENCODING 503
SWIDTH 642 0
DWIDTH 25 0
BBX 20 34 3 -7
BITMAP
0FFC00
FFFF00
FFFF80
F80FC0
F003E0
F001E0
F001F0
F000F0
F000F0
F000F0
F000F0
F000F0
F000F0
F000F0
F001E0
F001E0
F003E0
F007C0
F00F80
F01F00
F03E00
F0FC00
F3F800
FFF000
FFC000
FF0000
F80000
F00000
F00000
F00000
F00000
F00000
F00000
F00000
ENDCHAR
STARTCHAR 01F8
ENCODING 504
SWIDTH 720 0
DWIDTH 28 0
BBX 22 36 3 0
BITMAP
008000
01C000
01E000
00F000
007800
003C00
001800
000000
000000
F0003C
F8003C
FC003C
FC003C
FE003C
FF003C
FF803C
F7C03C
F3C03C
F1E03C
F0F03C
F0F83C
F0783C
F03C3C
F01E3C
F01E3C
F00F3C
F007BC
F007BC
F003FC
F001FC
F001FC
F000FC
F0007C
F0007C
F0003C
F0003C
ENDCHAR
STARTCHAR 01F9
ENCODING 505
SWIDTH 565 0
DWIDTH 22 0
BBX 16 30 3 0
BITMAP
0600
0E00
0F00
0780
03C0
01E0
00C0
0000
0000
03C0
FFF8
FFFC
FFFE
F01F
F00F
F00F
F007
F007
F007
F007
F007
F007
F007
F007
F007
F007
F007
F007
F007
F007
ENDCHAR
STARTCHAR 01FA
ENCODING 506
SWIDTH 642 0
DWIDTH 25 0
BBX 25 37 0 0
BITMAP
00030000
000F0000
003F0000
003C0000
00200000
001E0000
003F0000
00630000
00610000
00610000
00370000
003E0000
003F0000
003F0000
007F8000
00778000
00F3C000
00E3C000
01E1C000
01E1E000
01C1E000
03C0F000
0380F000
07807000
07807800
07007800
0F003C00
0FFFFC00
1FFFFC00
1FFFFE00
1E001E00
3C001E00
3C000F00
38000F00
78000F80
78000780
F0000780
ENDCHAR
STARTCHAR 01FB
ENCODING 507
SWIDTH 514 0
DWIDTH 20 0
BBX 15 35 2 0
BITMAP
0060
01E0
07F0
0780
0000
0000
03E0
0670
0430
0430
0630
07E0
0180
0000
0FC0
3FF8
3FFC
3CFC
001E
001E
000E
000E
000E
1FFE
3FFE
7FFE
F80E
F00E
E00E
E00E
F00E
F00E
7FFE
7FFE
1FFE
ENDCHAR
STARTCHAR 01FC
ENCODING 508
SWIDTH 925 0
DWIDTH 36 0
BBX 35 36 0 0
BITMAP
0000008000
000001C000
000003C000
0000078000
0000070000
00000E0000
00000C0000
0000000000
0000000000
0000FFFFC0
0000FFFFC0
0001FFFFC0
0003DC0000
00039C0000
00079C0000
000F1C0000
000E1C0000
001E1C0000
003C1C0000
003C1C0000
00781FFF80
00F01FFF80
00F01FFF80
01E01C0000
01E01C0000
03C01C0000
07FFFC0000
07FFFC0000
0FFFFC0000
0F001C0000
1E001C0000
1E001C0000
3C001C0000
3C001FFFE0
78001FFFE0
F8001FFFE0
ENDCHAR
STARTCHAR 01FD
ENCODING 509
SWIDTH 848 0
DWIDTH 33 0
BBX 29 30 2 0
BITMAP
0000C000
0001E000
0001E000
0003C000
00078000
000F0000
00060000
00000000
00000000
0FC01E00
3FF07FC0
3FF9FFE0
3CFFF3F0
001FC0F0
001F8078
000F0078
000F0078
000F0038
0FFFFFF8
3FFFFFF8
7FFFFFF8
F80E0000
F00F0000
E00F0000
E00F0000
F0078000
F00FC000
7FFFFFF0
7FFFFFF0
1FF87FF0
ENDCHAR
STARTCHAR 01FE
ENCODING 510
SWIDTH 771 0
DWIDTH 30 0
BBX 26 37 2 -1
BITMAP
00010000
00038000
00078000
000F0000
000E0000
001C0000
00180000
00000000
000C0300
00FFE780
03FFF700
07FFFF00
0F807E00
1F003E00
3E007F00
3C007F80
7800F780
7801E780
7803C7C0
F00383C0
F00783C0
F00F03C0
F01E03C0
F01C03C0
F03C03C0
F07803C0
78F007C0
79E00780
79C00780
3FC00F80
3F801F00
1F003E00
0F807E00
1FFFFC00
3FFFF000
78FFE000
301C0000
ENDCHAR
STARTCHAR 01FF
ENCODING 511
SWIDTH 565 0
DWIDTH 22 0
BBX 19 31 2 -1
BITMAP
001800
003C00
003C00
007800
00F000
01E000
00C000
000000
000000
01E0C0
07FDC0
1FFFC0
3FBF80
3C0780
780FC0
781FC0
F03DE0
F039E0
F071E0
F0E1E0
F1E1E0
F1C1E0
F381E0
F701E0
7F03C0
7E03C0
3C0F80
3FFF00
7FFE00
F7FC00
604000
ENDCHAR
STARTCHAR 0200
ENCODING 512
SWIDTH 642 0
DWIDTH 25 0
BBX 25 36 0 0
BITMAP
03040000
070E0000
078E0000
03C70000
01C38000
00E3C000
00618000
00000000
00000000
001E0000
003E0000
003F0000
003F0000
007F8000
00778000
00F3C000
00E3C000
01E1C000
01E1E000
01C1E000
03C0F000
0380F000
0780F000
07807800
07007800
0F003C00
0FFFFC00
1FFFFC00
1FFFFE00
1E001E00
3C001E00
3C000F00
38000F00
78000F80
78000780
F0000780
ENDCHAR
STARTCHAR 0201
ENCODING 513
SWIDTH 514 0
DWIDTH 20 0
BBX 15 30 2 0
BITMAP
2080
61C0
F1E0
78E0
3C70
1C38
0C38
0000
0000
0FC0
3FF8
3FFC
3CFC
001E
001E
000E
000E
000E
1FFE
3FFE
7FFE
F80E
F00E
E00E
E00E
F00E
F00E
7FFE
7FFE
1FFE
ENDCHAR
STARTCHAR 0202
ENCODING 514
SWIDTH 642 0
DWIDTH 25 0
BBX 25 35 0 0
BITMAP
003E0000
007F8000
00F78000
00C1C000
00C1C000
00000000
00000000
00000000
001E0000
003E0000
003F0000
003F0000
007F8000
00778000
00F3C000
00E3C000
01E1C000
01E1E000
01C1E000
03C0F000
0380F000
0780F000
07807800
07007800
0F003C00
0FFFFC00
1FFFFC00
1FFFFE00
1E001E00
3C001E00
3C000F00
38000F00
78000F80
78000780
F0000780
ENDCHAR
STARTCHAR 0203
ENCODING 515
SWIDTH 514 0
DWIDTH 20 0
BBX 15 29 2 0
BITMAP
03E0
0FF0
0FF8
1C38
1818
0000
0000
0000
0FC0
3FF8
3FFC
3CFC
001E
001E
000E
000E
000E
1FFE
3FFE
7FFE
F80E
F00E
E00E
E00E
F00E
F00E
7FFE
7FFE
1FFE
ENDCHAR
STARTCHAR 0204
ENCODING 516
SWIDTH 565 0
DWIDTH 22 0
BBX 18 36 3 0
BITMAP
104000
38E000
38F000
1C7800
0E3800
0F1C00
060C00
000000
000000
FFFF80
FFFF80
FFFF80
F00000
F00000
F00000
F00000
F00000
F00000
F00000
F00000
FFFE00
FFFE00
FFFE00
F00000
F00000
F00000
F00000
F00000
F00000
F00000
F00000
F00000
F00000
FFFFC0
FFFFC0
FFFFC0
ENDCHAR
STARTCHAR 0205
ENCODING 517
SWIDTH 540 0
DWIDTH 21 0
BBX 18 30 2 0
BITMAP
304000
70E000
78E000
3C7000
1C3800
0E3C00
061800
000000
000000
01E000
07FC00
1FFE00
3F3F00
3C0F80
780780
700780
F00380
F003C0
FFFFC0
FFFFC0
FFFFC0
F00000
F00000
F00000
780000
780000
3E0100
3FFF00
1FFF00
07FF00
ENDCHAR
STARTCHAR 0206
ENCODING 518
SWIDTH 565 0
DWIDTH 22 0
BBX 18 35 3 0
BITMAP
03E000
07F800
0F7800
0C1C00
1C1C00
000000
000000
000000
FFFF80
FFFF80
FFFF80
F00000
F00000
F00000
F00000
F00000
F00000
F00000
F00000
FFFE00
FFFE00
FFFE00
F00000
F00000
F00000
F00000
F00000
F00000
F00000
F00000
F00000
F00000
FFFFC0
FFFFC0
FFFFC0
ENDCHAR
STARTCHAR 0207
ENCODING 519
SWIDTH 540 0
DWIDTH 21 0
BBX 18 29 2 0
BITMAP
01F000
07F800
0FFC00
0E1C00
0C0C00
000000
000000
000000
01E000
07FC00
1FFE00
3F3F00
3C0F80
780780
700780
F00380
F003C0
FFFFC0
FFFFC0
FFFFC0
F00000
F00000
F00000
780000
780000
3E0100
3FFF00
1FFF00
07FF00
ENDCHAR
STARTCHAR 0208
ENCODING 520
SWIDTH 257 0
DWIDTH 10 0
BBX 12 36 -2 0
BITMAP
4100
E380
E3C0
F1C0
78E0
3870
1830
0000
0000
0780
0780
0780
0780
0780
0780
0780
0780
0780
0780
0780
0780
0780
0780
0780
0780
0780
0780
0780
0780
0780
0780
0780
0780
0780
0780
0780
ENDCHAR
STARTCHAR 0209
ENCODING 521
SWIDTH 231 0
DWIDTH 9 0
BBX 12 30 -3 0
BITMAP
4080
E1C0
F1C0
78E0
38F0
1C70
0C30
0000
0000
0000
03C0
03C0
03C0
03C0
03C0
03C0
03C0
03C0
03C0
03C0
03C0
03C0
03C0
03C0
03C0
03C0
03C0
03C0
03C0
03C0
ENDCHAR
STARTCHAR 020A
ENCODING 522
SWIDTH 257 0
DWIDTH 10 0
BBX 10 35 0 0
BITMAP
1F00
7F80
7BC0
E0C0
E0C0
0000
0000
0000
1E00
1E00
1E00
1E00
1E00
1E00
1E00
1E00
1E00
1E00
1E00
1E00
1E00
1E00
1E00
1E00
1E00
1E00
1E00
1E00
1E00
1E00
1E00
1E00
1E00
1E00
1E00
ENDCHAR
STARTCHAR 020B
ENCODING 523
SWIDTH 231 0
DWIDTH 9 0
BBX 10 29 0 0
BITMAP
3F00
7F80
FFC0
E1C0
C0C0
0000
0000
0000
0000
1E00
1E00
1E00
1E00
1E00
1E00
1E00
1E00
1E00
1E00
1E00
1E00
1E00
1E00
1E00
1E00
1E00
1E00
1E00
1E00
ENDCHAR
STARTCHAR 020C
ENCODING 524
SWIDTH 771 0
DWIDTH 30 0
BBX 26 37 2 -1
BITMAP
03040000
070E0000
078F0000
03C70000
01E38000
00E1C000
00618000
00000000
000C0000
00FFE000
03FFF000
07FFFC00
0F807E00
1F003E00
3E001F00
3C000F80
78000780
78000780
780007C0
F00003C0
F00003C0
F00003C0
F00003C0
F00003C0
F00003C0
F00003C0
780007C0
78000780
78000780
3C000F80
3E001F00
1F003E00
0F807E00
07FFFC00
03FFF000
00FFE000
001C0000
ENDCHAR
STARTCHAR 020D
ENCODING 525
SWIDTH 565 0
DWIDTH 22 0
BBX 19 31 2 -1
BITMAP
104000
38E000
38F000
1C7800
1E3800
0F1C00
060C00
000000
000000
01F000
07FC00
1FFF00
3FBF80
3C0780
7803C0
7803C0
F001E0
F001E0
F001E0
F001E0
F001E0
F001E0
F001E0
F001E0
7803C0
7807C0
3E0F80
1FFF00
0FFE00
07FC00
004000
ENDCHAR
STARTCHAR 020E
ENCODING 526
SWIDTH 771 0
DWIDTH 30 0
BBX 26 36 2 -1
BITMAP
003F0000
007F8000
00FBC000
00E1C000
00C0C000
00000000
00000000
000C0000
00FFE000
03FFF000
07FFFC00
0F807E00
1F003E00
3E001F00
3C000F80
78000780
78000780
780007C0
F00003C0
F00003C0
F00003C0
F00003C0
F00003C0
F00003C0
F00003C0
780007C0
78000780
78000780
3C000F80
3E001F00
1F003E00
0F807E00
07FFFC00
03FFF000
00FFE000
001C0000
ENDCHAR
STARTCHAR 020F
ENCODING 527
SWIDTH 565 0
DWIDTH 22 0
BBX 19 30 2 -1
BITMAP
01F000
03F800
07FC00
0E0C00
0E0E00
000000
000000
000000
01F000
07FC00
1FFF00
3FBF80
3C0780
7803C0
7803C0
F001E0
F001E0
F001E0
F001E0
F001E0
F001E0
F001E0
F001E0
7803C0
7807C0
3E0F80
1FFF00
0FFE00
07FC00
004000
ENDCHAR
STARTCHAR 0210
ENCODING 528
SWIDTH 617 0
DWIDTH 24 0
BBX 21 36 3 0
BITMAP
208000
71C000
71E000
38F000
1C7000
1E3800
0C1800
000000
000000
FFF800
FFFF00
FFFF80
F01FC0
F003C0
F003E0
F001E0
F001E0
F001E0
F001E0
F001E0
F003E0
F007C0
FFFF80
FFFF00
FFFC00
F03C00
F03E00
F01F00
F00F00
F00780
F007C0
F003C0
F001E0
F001E0
F000F0
F000F8
ENDCHAR
STARTCHAR 0211
ENCODING 529
SWIDTH 385 0
DWIDTH 15 0
BBX 14 30 1 0
BITMAP
4080
E1C0
F1C0
79E0
38F0
1C70
0C30
0000
0000
00E0
3FFC
3FF8
3FF8
3C00
3C00
3C00
3C00
3C00
3C00
3C00
3C00
3C00
3C00
3C00
3C00
3C00
3C00
3C00
3C00
3C00
ENDCHAR
STARTCHAR 0212
ENCODING 530
SWIDTH 617 0
DWIDTH 24 0
BBX 21 35 3 0
BITMAP
03E000
0FF000
0F7800
1C1800
1C1C00
000000
000000
000000
FFF800
FFFF00
FFFF80
F01FC0
F003C0
F003E0
F001E0
F001E0
F001E0
F001E0
F001E0
F003E0
F007C0
FFFF80
FFFF00
FFFC00
F03C00
F03E00
F01F00
F00F00
F00780
F007C0
F003C0
F001E0
F001E0
F000F0
F000F8
ENDCHAR
STARTCHAR 0213
ENCODING 531
SWIDTH 385 0
DWIDTH 15 0
BBX 12 29 3 0
BITMAP
1F00
3FC0
7FE0
70E0
6060
0000
0000
0000
0380
FFF0
FFE0
FFE0
F000
F000
F000
F000
F000
F000
F000
F000
F000
F000
F000
F000
F000
F000
F000
F000
F000
ENDCHAR
STARTCHAR 0214
ENCODING 532
SWIDTH 668 0
DWIDTH 26 0
BBX 21 37 3 -1
BITMAP
082000
1C7000
1C7800
0E3C00
0F1C00
078E00
030600
000000
000000
F00078
F00078
F00078
F00078
F00078
F00078
F00078
F00078
F00078
F00078
F00078
F00078
F00078
F00078
F00078
F00078
F00078
F00078
F00078
F000F0
7800F0
7800F0
7C01E0
3E03E0
1FFFC0
0FFF80
07FE00
006000
ENDCHAR
STARTCHAR 0215
ENCODING 533
SWIDTH 565 0
DWIDTH 22 0
BBX 16 30 3 0
BITMAP
6080
E1C0
F1C0
78E0
38F0
1C78
0C30
0000
0000
0000
F007
F007
F007
F007
F007
F007
F007
F007
F007
F007
F007
F007
F007
F007
F007
F807
7C07
7FFF
3FFF
0FFF
ENDCHAR
STARTCHAR 0216
ENCODING 534
SWIDTH 668 0
DWIDTH 26 0
BBX 21 36 3 -1
BITMAP
00F800
03FC00
03DE00
070600
070700
000000
000000
000000
F00078
F00078
F00078
F00078
F00078
F00078
F00078
F00078
F00078
F00078
F00078
F00078
F00078
F00078
F00078
F00078
F00078
F00078
F00078
F000F0
7800F0
7800F0
7C01E0
3E03E0
1FFFC0
0FFF80
07FE00
006000
ENDCHAR
STARTCHAR 0217
ENCODING 535
SWIDTH 565 0
DWIDTH 22 0
BBX 16 29 3 0
BITMAP
07E0
0FF0
1FF8
1C38
1818
0000
0000
0000
0000
F007
F007
F007
F007
F007
F007
F007
F007
F007
F007
F007
F007
F007
F007
F007
F807
7C07
7FFF
3FFF
0FFF
ENDCHAR
STARTCHAR 0218
ENCODING 536
SWIDTH 514 0
DWIDTH 20 0
BBX 18 35 1 -7
BITMAP
00F000
07FF00
1FFF80
3FFF80
3E0100
780000
780000
780000
780000
780000
7C0000
3F0000
1FC000
0FF800
07FE00
00FF00
003F80
000FC0
0007C0
0003C0
0003C0
0003C0
0003C0
0003C0
7007C0
7FFF80
FFFF00
3FFE00
03A000
000000
00E000
00E000
01E000
07C000
078000
ENDCHAR
STARTCHAR 0219
ENCODING 537
SWIDTH 437 0
DWIDTH 17 0
BBX 14 28 2 -7
BITMAP
07C0
3FF8
7FF0
FC70
F000
F000
F000
F000
FC00
7F00
3FC0
0FF0
01F8
0078
003C
003C
003C
803C
FFF8
FFF0
FFE0
0000
0000
0700
0700
0F00
3E00
3E00
ENDCHAR
STARTCHAR 021A
ENCODING 538
SWIDTH 540 0
DWIDTH 21 0
BBX 20 34 1 -7
BITMAP
FFFFF0
FFFFF0
FFFFF0
00F000
00F000
00F000
00F000
00F000
00F000
00F000
00F000
00F000
00F000
00F000
00F000
00F000
00F000
00F000
00F000
00F000
00F000
00F000
00F000
00F000
00F000
00F000
00F000
000000
000000
00F000
00F000
00F000
03E000
03C000
ENDCHAR
STARTCHAR 021B
ENCODING 539
SWIDTH 385 0
DWIDTH 15 0
BBX 12 33 3 -7
BITMAP
F000
F000
F000
F000
F000
F000
FFE0
FFE0
FFE0
F000
F000
F000
F000
F000
F000
F000
F000
F000
F000
F000
F000
F000
F800
7FF0
7FF0
1FF0
0000
0000
0F00
0F00
0F00
3E00
3C00
ENDCHAR
STARTCHAR 021C
ENCODING 540
SWIDTH 514 0
DWIDTH 20 0
BBX 18 34 1 -6
BITMAP
7FF000
FFFC00
FFFE00
403F00
000F00
000F00
000780
000780
000780
000F00
000F00
001F00
003E00
00FC00
0FF800
0FF800
0FFC00
007E00
001F00
000F80
000780
0007C0
0003C0
0003C0
0003C0
0007C0
000780
000F80
001F00
003F00
01FE00
FFFC00
FFF000
FF8000
ENDCHAR
STARTCHAR 021D
ENCODING 541
SWIDTH 411 0
DWIDTH 16 0
BBX 15 28 0 -7
BITMAP
0F00
FFF0
7FF8
78F8
003C
003C
001C
001C
001C
003C
0078
03F0
0FE0
0FF0
0FF8
007C
001E
001E
000E
000E
001E
001E
003E
007C
03F8
7FF0
7FC0
7E00
ENDCHAR
STARTCHAR 021E
ENCODING 542
SWIDTH 694 0
DWIDTH 27 0
BBX 21 36 3 0
BITMAP
030200
078700
03CE00
01FC00
00F800
007000
002000
000000
000000
F00078
F00078
F00078
F00078
F00078
F00078
F00078
F00078
F00078
F00078
F00078
FFFFF8
FFFFF8
FFFFF8
FFFFF8
F00078
F00078
F00078
F00078
F00078
F00078
F00078
F00078
F00078
F00078
F00078
F00078
ENDCHAR
STARTCHAR 021F
ENCODING 543
SWIDTH 565 0
DWIDTH 22 0
BBX 17 37 2 0
BITMAP
618000
F38000
3F0000
1E0000
0C0000
000000
000000
780000
780000
780000
780000
780000
780000
780000
780000
780000
78E000
7FFC00
7FFE00
7FFF00
780F80
780780
780780
780380
780380
780380
780380
780380
780380
780380
780380
780380
780380
780380
780380
780380
780380
ENDCHAR
STARTCHAR 0220
ENCODING 544
SWIDTH 668 0
DWIDTH 26 0
BBX 20 35 3 -7
BITMAP
004000
7FFE00
FFFF80
FFFFC0
F007E0
F003E0
F001E0
F000F0
F000F0
F000F0
F000F0
F000F0
F000F0
F000F0
F000F0
F000F0
F000F0
F000F0
F000F0
F000F0
F000F0
F000F0
F000F0
F000F0
F000F0
F000F0
F000F0
F000F0
0000F0
0000F0
0000F0
0000F0
0000F0
0000F0
0000F0
ENDCHAR
STARTCHAR 0221
ENCODING 545
SWIDTH 720 0
DWIDTH 28 0
BBX 26 37 2 -7
BITMAP
0003C000
0003C000
0003C000
0003C000
0003C000
0003C000
0003C000
0003C000
0003C000
01C3C000
0FFFC000
1FFFC000
3FFFC000
7C07C000
7803C000
7803C000
F003C000
F003C000
F003C000
F003C000
F003C000
F003C000
F003C000
F003C000
7803C000
7C03C000
3E03DE00
1FFFFF80
0FFFFFC0
03FFE1C0
0003C1C0
0003C1C0
0007C1C0
000FE1C0
001DFFC0
003CFF80
00187F00
ENDCHAR
STARTCHAR 0222
ENCODING 546
SWIDTH 668 0
DWIDTH 26 0
BBX 22 27 2 0
BITMAP
3C00F0
3C00F0
3C00F0
380070
380070
380070
380070
3C00F0
3C00F0
3E01F0
1F03E0
0FFFC0
0FFFC0
1FFFE0
3E01F8
780078
F8003C
F0003C
F0003C
F0003C
F0003C
F8003C
780078
7E01F8
3FFFF0
1FFFE0
07FF80
ENDCHAR
STARTCHAR 0223
ENCODING 547
SWIDTH 565 0
DWIDTH 22 0
BBX 19 31 2 -1
BITMAP
380380
380380
380380
7803C0
7803C0
7803C0
7803C0
7803C0
380380
3C0780
3E0F80
1FFF00
07FC00
1FFF00
3FBF80
7C0780
7803C0
7001C0
F001E0
F001E0
F001E0
F001E0
F001E0
F001E0
7803C0
7803C0
3C0780
3FFF80
1FFF00
07FC00
004000
ENDCHAR
STARTCHAR 0224
ENCODING 548
SWIDTH 565 0
DWIDTH 22 0
BBX 20 34 1 -7
BITMAP
7FFFE0
7FFFE0
7FFFE0
0001E0
0003C0
000780
000F80
001F00
001E00
003C00
007800
00F800
00F000
01E000
03E000
03C000
078000
0F8000
0F0000
1E0000
1E0000
3C0000
7C0000
780000
FFFFF0
FFFFF0
FFFFF0
0000F0
0000F0
0000F0
0000F0
000FE0
000FE0
000FC0
ENDCHAR
STARTCHAR 0225
ENCODING 549
SWIDTH 462 0
DWIDTH 18 0
BBX 16 27 1 -7
BITMAP
7FFF
7FFF
7FFF
003E
003C
0078
00F0
01E0
03E0
03C0
0780
0F00
0F00
1E00
3C00
3C00
7800
FFFF
FFFF
FFFF
0007
0007
000F
000F
00FE
00FE
00FC
ENDCHAR
STARTCHAR 0226
ENCODING 550
SWIDTH 642 0
DWIDTH 25 0
BBX 25 35 0 0
BITMAP
000C0000
001E0000
001E0000
001E0000
001C0000
00000000
00000000
00000000
001E0000
003E0000
003F0000
003F0000
007F8000
00778000
00F3C000
00E3C000
01E1C000
01E1E000
01C1E000
03C0F000
0380F000
0780F000
07807800
07007800
0F003C00
0FFFFC00
1FFFFC00
1FFFFE00
1E001E00
3C001E00
3C000F00
38000F00
78000F80
78000780
F0000780
ENDCHAR
STARTCHAR 0227
ENCODING 551
SWIDTH 514 0
DWIDTH 20 0
BBX 15 29 2 0
BITMAP
0180
03C0
03E0
03C0
01C0
0000
0000
0000
0FC0
3FF8
3FFC
3CFC
001E
001E
000E
000E
000E
1FFE
3FFE
7FFE
F80E
F00E
E00E
E00E
F00E
F00E
7FFE
7FFE
1FFE
ENDCHAR
STARTCHAR 0228
ENCODING 552
SWIDTH 565 0
DWIDTH 22 0
BBX 18 34 3 -7
BITMAP
FFFF80
FFFF80
FFFF80
F00000
F00000
F00000
F00000
F00000
F00000
F00000
F00000
FFFE00
FFFE00
FFFE00
F00000
F00000
F00000
F00000
F00000
F00000
F00000
F00000
F00000
F00000
FFFFC0
FFFFC0
FFFFC0
00C000
01C000
01F000
007000
007000
07F000
07E000
ENDCHAR
STARTCHAR 0229
ENCODING 553
SWIDTH 540 0
DWIDTH 21 0
BBX 18 28 2 -7
BITMAP
01E000
07FC00
1FFE00
3F3F00
3C0F00
780780
780780
F00380
F003C0
FFFFC0
FFFFC0
FFFFC0
F00000
F00000
F00000
780000
780000
3E0100
3FFF00
1FFF00
07FF00
00E000
00C000
01F000
007000
007000
07F000
07E000
ENDCHAR
STARTCHAR 022A
ENCODING 554
SWIDTH 771 0
DWIDTH 30 0
BBX 26 38 2 -1
BITMAP
00FFC000
00FFC000
00000000
00000000
01E1E000
01E1E000
01E1E000
00E0C000
00000000
000C0000
00FFE000
03FFF000
07FFFC00
0F807E00
1F003E00
3E001F00
3C000F80
78000780
78000780
780007C0
F00003C0
F00003C0
F00003C0
F00003C0
F00003C0
F00003C0
F00003C0
780007C0
78000780
78000780
3C000F80
3E001F00
1F003E00
0F807E00
07FFFC00
03FFF000
00FFE000
001C0000
ENDCHAR
STARTCHAR 022B
ENCODING 555
SWIDTH 565 0
DWIDTH 22 0
BBX 19 32 2 -1
BITMAP
07FC00
07FC00
000000
000000
0E0E00
1F1E00
1F1E00
0E0E00
000000
000000
01F000
07FC00
1FFF00
3FBF80
3C0780
7803C0
7803C0
F001E0
F001E0
F001E0
F001E0
F001E0
F001E0
F001E0
F001E0
7803C0
7807C0
3E0F80
1FFF00
0FFE00
07FC00
004000
ENDCHAR
STARTCHAR 022C
ENCODING 556
SWIDTH 771 0
DWIDTH 30 0
BBX 26 38 2 -1
BITMAP
00FFC000
00FFC000
00000000
00000000
00786000
00FFE000
01CFC000
00830000
00000000
000C0000
00FFE000
03FFF000
07FFFC00
0F807E00
1F003E00
3E001F00
3C000F80
78000780
78000780
780007C0
F00003C0
F00003C0
F00003C0
F00003C0
F00003C0
F00003C0
F00003C0
780007C0
78000780
78000780
3C000F80
3E001F00
1F003E00
0F807E00
07FFFC00
03FFF000
00FFE000
001C0000
ENDCHAR
STARTCHAR 022D
ENCODING 557
SWIDTH 565 0
DWIDTH 22 0
BBX 19 32 2 -1
BITMAP
07FC00
07FC00
000000
000000
038600
07FE00
0FFC00
0C3800
000000
000000
01F000
07FC00
1FFF00
3FBF80
3C0780
7803C0
7803C0
F001E0
F001E0
F001E0
F001E0
F001E0
F001E0
F001E0
F001E0
7803C0
7807C0
3E0F80
1FFF00
0FFE00
07FC00
004000
ENDCHAR
STARTCHAR 022E
ENCODING 558
SWIDTH 771 0
DWIDTH 30 0
BBX 26 36 2 -1
BITMAP
001E0000
001E0000
001E0000
001E0000
00000000
00000000
00000000
000C0000
00FFE000
03FFF000
07FFFC00
0F807E00
1F003E00
3E001F00
3C000F80
78000780
78000780
780007C0
F00003C0
F00003C0
F00003C0
F00003C0
F00003C0
F00003C0
F00003C0
780007C0
78000780
78000780
3C000F80
3E001F00
1F003E00
0F807E00
07FFFC00
03FFF000
00FFE000
001C0000
ENDCHAR
STARTCHAR 022F
ENCODING 559
SWIDTH 565 0
DWIDTH 22 0
BBX 19 30 2 -1
BITMAP
004000
01E000
01F000
01F000
00E000
000000
000000
000000
01F000
07FC00
1FFF00
3FBF80
3C0780
7803C0
7803C0
F001E0
F001E0
F001E0
F001E0
F001E0
F001E0
F001E0
F001E0
7803C0
7807C0
3E0F80
1FFF00
0FFE00
07FC00
004000
ENDCHAR
STARTCHAR 0230
ENCODING 560
SWIDTH 771 0
DWIDTH 30 0
BBX 26 38 2 -1
BITMAP
00FFC000
00FFC000
00000000
00000000
001E0000
001E0000
001E0000
000C0000
00000000
000C0000
00FFE000
03FFF000
07FFFC00
0F807E00
1F003E00
3E001F00
3C000F80
78000780
78000780
780007C0
F00003C0
F00003C0
F00003C0
F00003C0
F00003C0
F00003C0
F00003C0
780007C0
78000780
78000780
3C000F80
3E001F00
1F003E00
0F807E00
07FFFC00
03FFF000
00FFE000
001C0000
ENDCHAR
STARTCHAR 0231
ENCODING 561
SWIDTH 565 0
DWIDTH 22 0
BBX 19 32 2 -1
BITMAP
07FC00
07FC00
000000
000000
00E000
01F000
01F000
00E000
000000
000000
01F000
07FC00
1FFF00
3FBF80
3C0780
7803C0
7803C0
F001E0
F001E0
F001E0
F001E0
F001E0
F001E0
F001E0
F001E0
7803C0
7807C0
3E0F80
1FFF00
0FFE00
07FC00
004000
ENDCHAR
STARTCHAR 0232
ENCODING 562
SWIDTH 591 0
DWIDTH 23 0
BBX 23 34 0 0
BITMAP
03FF80
03FF80
03FF80
000000
000000
000000
000000
F8001E
78003C
3C003C
3C0078
1E0078
1E00F0
0F01E0
0F81E0
0783C0
03C3C0
03C780
01E700
01FF00
00FE00
007E00
007C00
003C00
003C00
003C00
003C00
003C00
003C00
003C00
003C00
003C00
003C00
003C00
ENDCHAR
STARTCHAR 0233
ENCODING 563
SWIDTH 488 0
DWIDTH 19 0
BBX 18 35 0 -7
BITMAP
07FF00
07FF00
07FF00
000000
000000
000000
000000
000000
7801C0
7803C0
7803C0
3C03C0
3C0380
3C0780
1C0780
1E0780
1E0700
0F0F00
0F0F00
070E00
079E00
079E00
03DC00
03FC00
01FC00
01F800
00F800
00F000
007000
00E000
01E000
03C000
7FC000
FF8000
FE0000
ENDCHAR
STARTCHAR 0234
ENCODING 564
SWIDTH 385 0
DWIDTH 15 0
BBX 16 37 0 -7
BITMAP
0E00
0E00
0E00
0E00
0E00
0E00
0E00
0E00
0E00
0E00
0E00
0E00
0E00
0E00
0E00
0E00
0E00
0E00
0E00
0E00
0E00
0E00
0E00
0E00
0E00
0E00
0E78
0FFC
0FFE
0F0F
0E07
1E07
3F07
3F07
77FE
E3FE
41F8
ENDCHAR
STARTCHAR 0235
ENCODING 565
SWIDTH 694 0
DWIDTH 27 0
BBX 25 28 3 -7
BITMAP
03C00000
FFF80000
FFFC0000
FFFE0000
F01F0000
F00F0000
F00F0000
F0070000
F0070000
F0070000
F0070000
F0070000
F0070000
F0070000
F0070000
F0070000
F0070000
F0073C00
F007FE00
F007FF00
F0078780
00070380
000F0380
001F8380
001F8380
003BFF00
0071FF00
0020FC00
ENDCHAR
STARTCHAR 0236
ENCODING 566
SWIDTH 385 0
DWIDTH 15 0
BBX 16 33 0 -7
BITMAP
0E00
0E00
0E00
0E00
0E00
0E00
0FFE
0FFE
0FFE
0E00
0E00
0E00
0E00
0E00
0E00
0E00
0E00
0E00
0E00
0E00
0E00
0E00
0E78
0FFC
0FFE
0F0F
0E07
1E07
3F07
3F07
77FE
E3FE
41F8
ENDCHAR
STARTCHAR 0237
ENCODING 567
SWIDTH 231 0
DWIDTH 9 0
BBX 10 27 -3 -7
BITMAP
03C0
03C0
03C0
03C0
03C0
03C0
03C0
03C0
03C0
03C0
03C0
03C0
03C0
03C0
03C0
03C0
03C0
03C0
03C0
03C0
03C0
03C0
0380
0780
7F80
7F00
FC00
ENDCHAR
STARTCHAR 0238
ENCODING 568
SWIDTH 900 0
DWIDTH 35 0
BBX 32 30 2 0
BITMAP
0003C000
0003C000
0003C000
0003C000
0003C000
0003C000
0003C000
0003C000
0003C000
01C3C380
0FFFFFF0
1FFFFFF8
3FFFFFFC
7C07E03C
7803C01E
7803C01E
F003C00F
F003C00F
F003C00F
F003C00F
F003C00F
F003C00F
F003C00F
F003C00F
7803C01E
7C03C03E
3E03C07C
1FFFFFF8
0FFFFFF0
07FFFFE0
ENDCHAR
STARTCHAR 0239
ENCODING 569
SWIDTH 900 0
DWIDTH 35 0
BBX 32 28 2 -7
BITMAP
00F00F00
07FFFFE0
1FFFFFF0
3FFFFFFC
3E03C07C
7C03C03E
7803C01E
F003C00F
F003C00F
F003C00F
F003C00F
F003C00F
F003C00F
F003C00F
F003C00F
7803C01E
7803C01E
3E07E07C
3FFFFFFC
1FFFFFF8
07FBFFE0
0003C000
0003C000
0003C000
0003C000
0003C000
0003C000
0003C000
ENDCHAR
STARTCHAR 023A
ENCODING 570
SWIDTH 642 0
DWIDTH 25 0
BBX 24 34 1 -4
BITMAP
000030
000078
000070
003C70
003CE0
007EE0
007EE0
00FFC0
00EFC0
01E7C0
01C780
03C380
03C7C0
0387C0
0787E0
070FE0
0F0EE0
0F1CF0
0E1CF0
1E1C78
1FFFF8
3FFFF8
3FFFFC
3C703C
78701C
78E01E
70E01E
F0E00F
F1C00F
E1C00F
01C000
038000
038000
018000
ENDCHAR
STARTCHAR 023B
ENCODING 571
SWIDTH 617 0
DWIDTH 24 0
BBX 22 34 2 -4
BITMAP
000070
000070
000E70
00FFF0
03FFFC
07FFF8
0F81F8
1F01C8
3E0380
3C0380
780780
780700
780F00
F80E00
F00E00
F01C00
F01C00
F03C00
F03800
F03800
787000
787000
78F000
3CE000
3FE000
1FC000
1FC038
0FFFF8
03FFF8
07FFF0
070C00
0F0000
0E0000
020000
ENDCHAR
STARTCHAR 023C
ENCODING 572
SWIDTH 462 0
DWIDTH 18 0
BBX 16 27 2 -3
BITMAP
0008
000C
001C
01FC
07FF
1FFE
3FFE
3C32
7870
7870
F060
F0E0
F0E0
F0E0
F0C0
F1C0
F1C0
F180
7B80
7B80
3F00
3FFE
1FFE
07FE
0E00
0E00
0C00
ENDCHAR
STARTCHAR 023D
ENCODING 573
SWIDTH 514 0
DWIDTH 20 0
BBX 19 27 1 0
BITMAP
1E0000
1E0000
1E0000
1E0000
1E0000
1E0000
1E0000
1E0000
1E0000
1E0000
1E0000
FFF800
FFF800
FFF800
1E0000
1E0000
1E0000
1E0000
1E0000
1E0000
1E0000
1E0000
1E0000
1E0000
1FFFE0
1FFFE0
1FFFE0
ENDCHAR
STARTCHAR 023E
ENCODING 574
SWIDTH 617 0
DWIDTH 24 0
BBX 23 31 1 -1
BITMAP
00000C
00001E
FFFFFC
FFFFFC
FFFFF8
00F070
00F0F0
00F1E0
00F1C0
00F380
00F780
00F700
00FE00
00FE00
00FC00
00F800
00F800
00F000
01F000
01F000
03F000
07F000
07F000
0EF000
1EF000
3CF000
38F000
78F000
F0F000
600000
200000
ENDCHAR
STARTCHAR 023F
ENCODING 575
SWIDTH 437 0
DWIDTH 17 0
BBX 14 28 2 -7
BITMAP
07C0
3FF8
7FF0
FC70
F000
F000
F000
F000
FC00
7F00
3FC0
0FF0
01F8
0078
003C
003C
003C
807C
FFF8
FFF0
FFC0
7800
3C00
1E00
0F00
07F8
03F8
01F8
ENDCHAR
STARTCHAR 0240
ENCODING 576
SWIDTH 462 0
DWIDTH 18 0
BBX 17 27 1 -7
BITMAP
7FFF00
7FFF00
7FFF00
003E00
003C00
007800
00F000
01E000
03E000
03C000
078000
0F0000
0F0000
1E0000
3C0000
3C0000
780000
7C0000
FF0000
FF8000
0FC000
03E000
01F000
00F800
007F80
003F80
000F80
ENDCHAR
STARTCHAR 0241
ENCODING 577
SWIDTH 462 0
DWIDTH 18 0
BBX 16 28 1 0
BITMAP
0300
7FF8
FFFC
FFFE
E01F
000F
000F
000F
000F
000F
001F
003E
00FC
01F8
03E0
07C0
0F80
0F00
0F00
0F00
0F00
0F00
0F00
0F00
0F00
0F00
0F00
0F00
ENDCHAR
STARTCHAR 0242
ENCODING 578
SWIDTH 411 0
DWIDTH 16 0
BBX 14 21 1 0
BITMAP
0F00
FFF0
FFF8
F8FC
803C
001C
001C
003C
007C
00F8
03F0
07E0
0F80
0F00
1E00
1E00
1E00
1E00
1E00
1E00
1E00
ENDCHAR
STARTCHAR 0243
ENCODING 579
SWIDTH 642 0
DWIDTH 25 0
BBX 23 27 1 0
BITMAP
1FFF00
1FFFC0
1FFFF0
1E03F0
1E00F8
1E0078
1E0078
1E0078
1E0078
1E0078
1E00F0
1FFFE0
1FFF80
1FFFF0
1E07F8
1E007C
1E003C
1E003C
FFE01E
FFE01E
FFE03C
1E003C
1E007C
1E01F8
1FFFF0
1FFFE0
1FFF80
ENDCHAR
STARTCHAR 0244
ENCODING 580
SWIDTH 694 0
DWIDTH 27 0
BBX 26 28 1 -1
BITMAP
1C001E00
1C001E00
1C001E00
1C001E00
1C001E00
1C001E00
1C001E00
1C001E00
1C001E00
1C001E00
1C001E00
FFFFFFC0
FFFFFFC0
FFFFFFC0
1C001E00
1C001E00
1C001E00
1C001E00
1E001E00
1E001E00
1E001E00
1F003C00
0F007C00
0FC0F800
07FFF800
03FFF000
00FFC000
000E0000
ENDCHAR
STARTCHAR 0245
ENCODING 581
SWIDTH 642 0
DWIDTH 25 0
BBX 25 27 0 0
BITMAP
001E0000
003E0000
003F0000
007F0000
007F0000
00F78000
00F78000
00E3C000
01E3C000
01E1C000
03C1E000
03C1E000
0380F000
0780F000
0780F000
0F007800
0F007800
0F003C00
1E003C00
1E003C00
1E001E00
3C001E00
3C001E00
7C000F00
78000F00
78000F80
F8000780
ENDCHAR
STARTCHAR 0246
ENCODING 582
SWIDTH 591 0
DWIDTH 23 0
BBX 19 34 3 -5
BITMAP
000080
0000E0
0001C0
FFFFC0
FFFFC0
FFFF80
F00380
F00700
F00700
F00F00
F00E00
F01E00
F01C00
F01C00
FFFF00
FFFF00
FFFF00
F07000
F07000
F0E000
F0E000
F1C000
F1C000
F3C000
F38000
F38000
F70000
FFFFC0
FFFFC0
FFFFC0
0E0000
1C0000
1C0000
380000
ENDCHAR
STARTCHAR 0247
ENCODING 583
SWIDTH 565 0
DWIDTH 22 0
BBX 18 27 2 -3
BITMAP
000800
000C00
001C00
01FC00
07FC00
1FFF00
3F3F00
3C3780
787380
7073C0
F063C0
F0E3C0
FFFFC0
FFFFC0
FFFFC0
F1C000
F18000
F38000
7B8000
7B0000
3F0000
3FFF80
0FFF80
0FFF80
0E0000
0E0000
0C0000
ENDCHAR
STARTCHAR 0248
ENCODING 584
SWIDTH 514 0
DWIDTH 20 0
BBX 19 28 0 -1
BITMAP
000F00
000F00
000F00
000F00
000F00
000F00
000F00
000F00
000F00
000F00
000F00
01FFE0
01FFE0
01FFE0
000F00
000F00
000F00
000F00
000F00
000F00
000F00
000F00
001F00
703E00
7FFE00
FFFC00
3FF000
070000
ENDCHAR
STARTCHAR 0249
ENCODING 585
SWIDTH 282 0
DWIDTH 11 0
BBX 13 36 -2 -7
BITMAP
0180
03C0
03C0
03C0
03C0
0000
0000
0000
0000
03C0
03C0
03C0
03C0
03C0
03C0
03C0
03C0
1FF8
1FF8
1FF8
03C0
03C0
03C0
03C0
03C0
03C0
03C0
03C0
03C0
03C0
03C0
0380
0780
7F80
7F00
FC00
ENDCHAR
STARTCHAR 024A
ENCODING 586
SWIDTH 771 0
DWIDTH 30 0
BBX 30 35 2 -7
BITMAP
000C0000
00FFE000
03FFF000
07FFFC00
0F807E00
1F003E00
3E001F00
3C000F00
78000780
78000780
78000780
F00003C0
F00003C0
F00003C0
F00003C0
F00003C0
F00003C0
F00003C0
780007C0
780007C0
780007C0
3C000FC0
3E001FC0
1F003FC0
0F807FC0
07FFFBC0
03FFF3C0
00FFC3C0
001C03C0
000003C0
000003C0
000003C0
000001FC
000001FC
000000FC
ENDCHAR
STARTCHAR 024B
ENCODING 587
SWIDTH 565 0
DWIDTH 22 0
BBX 22 28 2 -7
BITMAP
00F000
07FFC0
1FFFC0
3FFFC0
3E03C0
7C03C0
7803C0
F003C0
F003C0
F003C0
F003C0
F003C0
F003C0
F003C0
F003C0
7803C0
7803C0
3E07C0
3FFFC0
1FFFC0
07FBC0
0003C0
0003C0
0003C0
0003C0
0001FC
0001FC
0000FC
ENDCHAR
STARTCHAR 024C
ENCODING 588
SWIDTH 617 0
DWIDTH 24 0
BBX 23 27 1 0
BITMAP
1FFF00
1FFFC0
1FFFE0
1E03F0
1E00F8
1E0078
1E0078
1E003C
1E003C
1E003C
1E0078
1E0078
1E01F0
FFFFF0
FFFFC0
FFFF00
1E0F80
1E0780
1E03C0
1E01E0
1E01F0
1E00F0
1E0078
1E0078
1E003C
1E003E
1E001E
ENDCHAR
STARTCHAR 024D
ENCODING 589
SWIDTH 385 0
DWIDTH 15 0
BBX 14 21 1 0
BITMAP
00F0
1FFC
3FFC
3FF8
3C00
3C00
3C00
3C00
3C00
3C00
FFF0
FFF0
FFF0
3C00
3C00
3C00
3C00
3C00
3C00
3C00
3C00
ENDCHAR
STARTCHAR 024E
ENCODING 590
SWIDTH 617 0
DWIDTH 24 0
BBX 22 27 1 0
BITMAP
F0003C
F8003C
780078
3C0070
3C00F0
1E00E0
FFFFFC
FFFFFC
FFFFFC
078780
038700
03CF00
01EE00
01FE00
00FC00
007800
007800
007800
007800
007800
007800
007800
007800
007800
007800
007800
007800
ENDCHAR
STARTCHAR 024F
ENCODING 591
SWIDTH 514 0
DWIDTH 20 0
BBX 18 27 1 -7
BITMAP
F003C0
7003C0
780380
780380
780780
380780
3C0700
3C0700
FFFFC0
FFFFC0
0E0E00
0F1E00
0F1C00
071C00
07BC00
03B800
03F800
01F800
01F000
00F000
00E000
01E000
01C000
03C000
FF8000
FF0000
FC0000
ENDCHAR
STARTCHAR 0292
ENCODING 658
SWIDTH 462 0
DWIDTH 18 0
BBX 17 27 0 -7
BITMAP
7FFF00
7FFF00
7FFE00
001E00
003C00
007800
007800
00F000
01E000
03C000
078000
07C000
07F800
07FE00
003F00
000F00
000700
000780
000780
000780
000780
000F00
000F00
E03E00
FFFE00
FFF800
7FE000
ENDCHAR
STARTCHAR 02BC
ENCODING 700
SWIDTH 360 0
DWIDTH 14 0
BBX 5 8 5 22
BITMAP
78
78
70
70
F0
E0
E0
40
ENDCHAR
STARTCHAR 02C6
ENCODING 710
SWIDTH 360 0
DWIDTH 14 0
BBX 10 7 2 23
BITMAP
0400
0E00
1F00
3F80
7BC0
F1C0
40C0
ENDCHAR
STARTCHAR 02C7
ENCODING 711
SWIDTH 360 0
DWIDTH 14 0
BBX 10 7 2 23
BITMAP
40C0
E1C0
73C0
3F80
1F00
0E00
0400
ENDCHAR
STARTCHAR 02C9
ENCODING 713
SWIDTH 360 0
DWIDTH 14 0
BBX 11 3 2 25
BITMAP
FFE0
FFE0
FFE0
ENDCHAR
STARTCHAR 02D8
ENCODING 728
SWIDTH 360 0
DWIDTH 14 0
BBX 11 5 2 24
BITMAP
E0E0
E0C0
7BC0
7F80
1F00
ENDCHAR
STARTCHAR 02D9
ENCODING 729
SWIDTH 360 0
DWIDTH 14 0
BBX 5 5 5 24
BITMAP
20
F0
F8
F8
70
ENDCHAR
STARTCHAR 02DA
ENCODING 730
SWIDTH 360 0
DWIDTH 14 0
BBX 8 8 3 22
BITMAP
3E
7F
E3
C3
C3
67
7E
08
ENDCHAR
STARTCHAR 02DB
ENCODING 731
SWIDTH 360 0
DWIDTH 14 0
BBX 7 7 3 -7
BITMAP
3C
70
F0
E0
F0
FC
7E
ENDCHAR
STARTCHAR 02DC
ENCODING 732
SWIDTH 360 0
DWIDTH 14 0
BBX 13 4 1 25
BITMAP
3E38
7FF0
E7E0
41C0
ENDCHAR
STARTCHAR 02DD
ENCODING 733
SWIDTH 360 0
DWIDTH 14 0
BBX 12 7 2 23
BITMAP
1820
1C70
3CF0
78E0
F1C0
E380
C380
ENDCHAR
STARTCHAR 0311
ENCODING 785
SWIDTH 360 0
DWIDTH 14 0
BBX 10 5 2 24
BITMAP
1F00
7F80
7FC0
E0C0
E0C0
ENDCHAR
STARTCHAR 0384
ENCODING 900
SWIDTH 360 0
DWIDTH 14 0
BBX 7 8 6 22
BITMAP
18
1E
3C
78
70
E0
E0
40
ENDCHAR
STARTCHAR 0385
ENCODING 901
SWIDTH 360 0
DWIDTH 14 0
BBX 15 7 0 22
BITMAP
0180
01C0
E3DE
F39E
F71E
670C
0600
ENDCHAR
STARTCHAR 0386
ENCODING 902
SWIDTH 642 0
DWIDTH 25 0
BBX 25 28 0 0
BITMAP
08000000
0F1E0000
0E3E0000
1E3F0000
1E3F0000
1C7F8000
1C778000
1CF3C000
18E3C000
01E1C000
01E1E000
01C1E000
03C0F000
0380F000
0780F000
07807800
07007800
0F003C00
0FFFFC00
1FFFFC00
1FFFFE00
1E001E00
3C001E00
3C000F00
38000F00
78000F80
78000780
F0000780
ENDCHAR
STARTCHAR 0388
ENCODING 904
SWIDTH 617 0
DWIDTH 24 0
BBX 24 27 -1 1
BITMAP
79FFFE
79FFFE
71FFFE
71E000
F1E000
E1E000
E1E000
61E000
01E000
01E000
01E000
01FFFC
01FFFC
01FFFC
01E000
01E000
01E000
01E000
01E000
01E000
01E000
01E000
01E000
01E000
01FFFF
01FFFF
01FFFF
ENDCHAR
STARTCHAR 0389
ENCODING 905
SWIDTH 771 0
DWIDTH 30 0
BBX 28 27 -1 1
BITMAP
79E000F0
79E000F0
71E000F0
71E000F0
F1E000F0
E1E000F0
E1E000F0
61E000F0
01E000F0
01E000F0
01E000F0
01FFFFF0
01FFFFF0
01FFFFF0
01FFFFF0
01E000F0
01E000F0
01E000F0
01E000F0
01E000F0
01E000F0
01E000F0
01E000F0
01E000F0
01E000F0
01E000F0
01E000F0
ENDCHAR
STARTCHAR 038A
ENCODING 906
SWIDTH 334 0
DWIDTH 13 0
BBX 11 27 -1 1
BITMAP
79E0
79E0
71E0
71E0
F1E0
E1E0
E1E0
61E0
01E0
01E0
01E0
01E0
01E0
01E0
01E0
01E0
01E0
01E0
01E0
01E0
01E0
01E0
01E0
01E0
01E0
01E0
01E0
ENDCHAR
STARTCHAR 038C
ENCODING 908
SWIDTH 797 0
DWIDTH 31 0
BBX 30 29 -1 -1
BITMAP
0000C000
780FFE00
783FFF00
707FFFC0
70F807E0
F1F003E0
E3E001F0
E3C000F8
67800078
07800078
0780007C
0F00003C
0F00003C
0F00003C
0F00003C
0F00003C
0F00003C
0F00003C
0780007C
07800078
07800078
03C000F8
03E001F0
01F003E0
00F807E0
007FFFC0
003FFF00
000FFE00
0001C000
ENDCHAR
STARTCHAR 038E
ENCODING 910
SWIDTH 720 0
DWIDTH 28 0
BBX 29 27 -1 1
BITMAP
7BE000F8
79E000F0
71F000F0
70F001E0
F07803C0
E07803C0
E03C0780
603C0780
001E0F00
001F0F00
000F1E00
0007BC00
0007BC00
0003F800
0001F000
0001F000
0000E000
0000E000
0000E000
0000E000
0000E000
0000E000
0000E000
0000E000
0000E000
0000E000
0000E000
ENDCHAR
STARTCHAR 038F
ENCODING 911
SWIDTH 797 0
DWIDTH 31 0
BBX 30 28 -1 0
BITMAP
0000E000
780FFC00
783FFF00
707FFFC0
70F807E0
F1F003E0
E3E000F0
E3C000F8
67800078
07800078
07800078
0780003C
0780003C
0F00003C
0700003C
0780003C
07800078
07800078
07800078
03C00070
03C000F0
01E001E0
01E001E0
00F003C0
00780780
0FFC0FFC
0FFC0FFC
0FFC0FFC
ENDCHAR
STARTCHAR 0390
ENCODING 912
SWIDTH 257 0
DWIDTH 10 0
BBX 16 30 -3 0
BITMAP
00C0
01E0
71CE
F3DF
F38F
670E
0700
0000
0000
0000
03C0
03C0
03C0
03C0
03C0
03C0
03C0
03C0
03C0
03C0
03C0
03C0
03C0
03C0
03C0
03C0
03C0
03F8
01F8
00F0
ENDCHAR
STARTCHAR 0391
ENCODING 913
SWIDTH 642 0
DWIDTH 25 0
BBX 25 27 0 0
BITMAP
001E0000
003E0000
003F0000
003F0000
007F8000
00778000
00F3C000
00E3C000
01E1C000
01E1E000
01C1E000
03C0F000
0380F000
0780F000
07807800
07007800
0F003C00
0FFFFC00
1FFFFC00
1FFFFE00
1E001E00
3C001E00
3C000F00
38000F00
78000F80
78000780
F0000780
ENDCHAR
STARTCHAR 0392
ENCODING 914
SWIDTH 642 0
DWIDTH 25 0
BBX 20 27 3 0
BITMAP
FFFC00
FFFF00
FFFF80
F00FC0
F003C0
F003E0
F001E0
F001E0
F001E0
F003C0
F007C0
FFFF80
FFFE00
FFFF80
F03FC0
F003E0
F001F0
F000F0
F000F0
F000F0
F000F0
F000F0
F001E0
F007E0
FFFFC0
FFFF80
FFFC00
ENDCHAR
STARTCHAR 0393
ENCODING 915
SWIDTH 488 0
DWIDTH 19 0
BBX 16 27 3 0
BITMAP
FFFF
FFFF
FFFF
F000
F000
F000
F000
F000
F000
F000
F000
F000
F000
F000
F000
F000
F000
F000
F000
F000
F000
F000
F000
F000
F000
F000
F000
ENDCHAR
STARTCHAR 0394
ENCODING 916
SWIDTH 642 0
DWIDTH 25 0
BBX 25 27 0 0
BITMAP
001E0000
003E0000
003F0000
007F0000
007F0000
00F78000
00F78000
00E3C000
01E3C000
01C1E000
03C1E000
0380E000
0780F000
0780F000
07007800
0F007800
0F007800
0E003C00
1E003C00
1E001E00
3C001E00
3C001E00
3C000F00
78000F00
7FFFFF00
7FFFFF80
FFFFFF80
ENDCHAR
STARTCHAR 0395
ENCODING 917
SWIDTH 565 0
DWIDTH 22 0
BBX 18 27 3 0
BITMAP
FFFF80
FFFF80
FFFF80
F00000
F00000
F00000
F00000
F00000
F00000
F00000
F00000
FFFE00
FFFE00
FFFE00
F00000
F00000
F00000
F00000
F00000
F00000
F00000
F00000
F00000
F00000
FFFFC0
FFFFC0
FFFFC0
ENDCHAR
STARTCHAR 0396
ENCODING 918
SWIDTH 565 0
DWIDTH 22 0
BBX 20 27 1 0
BITMAP
7FFFE0
7FFFE0
7FFFE0
0001E0
0003C0
000780
000F80
001F00
001E00
003C00
007800
00F800
00F000
01E000
03E000
03C000
078000
0F8000
0F0000
1E0000
1E0000
3C0000
780000
780000
FFFFF0
FFFFF0
FFFFF0
ENDCHAR
STARTCHAR 0397
ENCODING 919
SWIDTH 694 0
DWIDTH 27 0
BBX 21 27 3 0
BITMAP
F00078
F00078
F00078
F00078
F00078
F00078
F00078
F00078
F00078
F00078
F00078
FFFFF8
FFFFF8
FFFFF8
FFFFF8
F00078
F00078
F00078
F00078
F00078
F00078
F00078
F00078
F00078
F00078
F00078
F00078
ENDCHAR
STARTCHAR 0398
ENCODING 920
SWIDTH 771 0
DWIDTH 30 0
BBX 26 29 2 -1
BITMAP
000C0000
00FFE000
03FFF000
07FFFC00
0F807E00
1F003E00
3E001F00
3C000F80
78000780
78000780
780007C0
F00003C0
F00003C0
F1FFE3C0
F1FFE3C0
F1FFE3C0
F00003C0
F00003C0
780007C0
78000780
78000780
3C000F80
3E001F00
1F003E00
0F807E00
07FFFC00
03FFF000
00FFE000
001C0000
ENDCHAR
STARTCHAR 0399
ENCODING 921
SWIDTH 257 0
DWIDTH 10 0
BBX 4 27 3 0
BITMAP
F0
F0
F0
F0
F0
F0
F0
F0
F0
F0
F0
F0
F0
F0
F0
F0
F0
F0
F0
F0
F0
F0
F0
F0
F0
F0
F0
ENDCHAR
STARTCHAR 039A
ENCODING 922
SWIDTH 617 0
DWIDTH 24 0
BBX 21 27 3 0
BITMAP
F001F0
F003E0
F007C0
F00780
F00F00
F01E00
F03C00
F07800
F0F000
F1E000
F3C000
F78000
FF0000
FF8000
F7C000
F3F000
F1F800
F0FC00
F03E00
F01F00
F00F00
F00780
F007C0
F003E0
F001F0
F000F0
F000F8
ENDCHAR
STARTCHAR 039B
ENCODING 923
SWIDTH 642 0
DWIDTH 25 0
BBX 25 27 0 0
BITMAP
001E0000
003E0000
003F0000
007F0000
007F0000
00F78000
00F78000
00E3C000
01E3C000
01E1C000
03C1E000
03C1E000
0380F000
0780F000
0780F000
0F007800
0F007800
0F003C00
1E003C00
1E003C00
1E001E00
3C001E00
3C001E00
7C000F00
78000F00
78000F80
F8000780
ENDCHAR
STARTCHAR 039C
ENCODING 924
SWIDTH 848 0
DWIDTH 33 0
BBX 28 27 3 0
BITMAP
380001C0
7C0003C0
7C0003E0
7E0007E0
7E0007E0
7F000FE0
77000FE0
77801EE0
73801CE0
73C03CE0
71C038E0
F1E078E0
F0E070E0
F0F0F0E0
F070E0F0
F079E0F0
F079C0F0
F03BC0F0
F03FC0F0
F01F80F0
F01F80F0
F00F00F0
E00F00F0
E00000F0
E00000F0
E0000070
E0000070
ENDCHAR
STARTCHAR 039D
ENCODING 925
SWIDTH 720 0
DWIDTH 28 0
BBX 22 27 3 0
BITMAP
F0003C
F8003C
FC003C
FC003C
FE003C
FF003C
FF803C
F7C03C
F3C03C
F1E03C
F0F03C
F0F83C
F0783C
F03C3C
F01E3C
F01E3C
F00F3C
F007BC
F007BC
F003FC
F001FC
F001FC
F000FC
F0007C
F0007C
F0003C
F0003C
ENDCHAR
STARTCHAR 039E
ENCODING 926
SWIDTH 540 0
DWIDTH 21 0
BBX 19 27 1 0
BITMAP
7FFFE0
7FFFE0
7FFFE0
000000
000000
000000
000000
000000
000000
000000
000000
1FFF80
1FFF80
1FFF80
1FFF80
000000
000000
000000
000000
000000
000000
000000
000000
000000
FFFFE0
FFFFE0
FFFFE0
ENDCHAR
STARTCHAR 039F
ENCODING 927
SWIDTH 771 0
DWIDTH 30 0
BBX 26 29 2 -1
BITMAP
000C0000
00FFE000
03FFF000
07FFFC00
0F807E00
1F003E00
3E001F00
3C000F80
78000780
78000780
780007C0
F00003C0
F00003C0
F00003C0
F00003C0
F00003C0
F00003C0
F00003C0
780007C0
78000780
78000780
3C000F80
3E001F00
1F003E00
0F807E00
07FFFC00
03FFF000
00FFE000
001C0000
ENDCHAR
STARTCHAR 03A0
ENCODING 928
SWIDTH 694 0
DWIDTH 27 0
BBX 21 27 3 0
BITMAP
FFFFF8
FFFFF8
FFFFF8
F00078
F00078
F00078
F00078
F00078
F00078
F00078
F00078
F00078
F00078
F00078
F00078
F00078
F00078
F00078
F00078
F00078
F00078
F00078
F00078
F00078
F00078
F00078
F00078
ENDCHAR
STARTCHAR 03A1
ENCODING 929
SWIDTH 591 0
DWIDTH 23 0
BBX 19 27 3 0
BITMAP
FFF800
FFFF00
FFFF80
F01FC0
F003C0
F001E0
F001E0
F001E0
F001E0
F001E0
F001E0
F003E0
F007C0
F01FC0
FFFF80
FFFE00
FFF800
F00000
F00000
F00000
F00000
F00000
F00000
F00000
F00000
F00000
F00000
ENDCHAR
STARTCHAR 03A3
ENCODING 931
SWIDTH 540 0
DWIDTH 21 0
BBX 19 27 1 0
BITMAP
7FFFE0
7FFFE0
7FFFE0
3C0000
3E0000
1E0000
0F0000
078000
03C000
03E000
01F000
00F000
007800
007800
00F000
01E000
03E000
07C000
078000
0F0000
1E0000
3C0000
7C0000
780000
FFFFE0
FFFFE0
FFFFE0
ENDCHAR
STARTCHAR 03A4
ENCODING 932
SWIDTH 540 0
DWIDTH 21 0
BBX 20 27 1 0
BITMAP
FFFFF0
FFFFF0
FFFFF0
00F000
00F000
00F000
00F000
00F000
00F000
00F000
00F000
00F000
00F000
00F000
00F000
00F000
00F000
00F000
00F000
00F000
00F000
00F000
00F000
00F000
00F000
00F000
00F000
ENDCHAR
STARTCHAR 03A5
ENCODING 933
SWIDTH 591 0
DWIDTH 23 0
BBX 23 27 0 0
BITMAP
F8001E
78003C
3C003C
3C0078
1E0078
1E00F0
0F01E0
0F81E0
0783C0
03C3C0
03C780
01E700
01FF00
00FE00
007E00
007C00
003C00
003C00
003C00
003C00
003C00
003C00
003C00
003C00
003C00
003C00
003C00
ENDCHAR
STARTCHAR 03A6
ENCODING 934
SWIDTH 848 0
DWIDTH 33 0
BBX 29 29 2 0
BITMAP
00078000
00078000
00078000
000FC000
01FFFC00
07FFFF00
0FFFFFC0
1F0787E0
3E0781F0
7C0780F0
780780F8
78078078
F0078078
F0078078
F0078078
F0078078
F0078078
78078078
78078078
7C0780F0
3E0781F0
1F0787E0
0FE7BFC0
07FFFF80
01FFFE00
003FE000
00078000
00078000
00078000
ENDCHAR
STARTCHAR 03A7
ENCODING 935
SWIDTH 617 0
DWIDTH 24 0
BBX 23 27 1 0
BITMAP
78003C
7C0078
3C00F0
1E00F0
1F01E0
0F03C0
0783C0
07C780
03CF00
01EF00
01FE00
00FC00
007C00
00FC00
00FE00
01FF00
03EF00
03C780
0787C0
0F83C0
0F01E0
1E01F0
3E00F0
3C0078
780078
78003C
F0003E
ENDCHAR
STARTCHAR 03A8
ENCODING 936
SWIDTH 797 0
DWIDTH 31 0
BBX 26 27 3 0
BITMAP
E01E01C0
E01E01C0
E01E01C0
E01E01C0
E01E01C0
E01E01C0
E01E01C0
E01E01C0
E01E01C0
E01E03C0
E01E03C0
F01E03C0
F01E03C0
F01E07C0
F81E0780
7C1E0F80
3F9E7F00
1FFFFE00
0FFFFC00
03FFE000
001E0000
001E0000
001E0000
001E0000
001E0000
001E0000
001E0000
ENDCHAR
STARTCHAR 03A9
ENCODING 937
SWIDTH 771 0
DWIDTH 30 0
BBX 26 28 2 0
BITMAP
000C0000
00FFE000
03FFF000
07FFFC00
0F807E00
1F001F00
3E000F00
3C000F80
7C000780
78000780
780003C0
780003C0
780003C0
780003C0
780003C0
780003C0
780003C0
78000780
38000780
3C000780
3C000F00
1E000F00
0F001E00
0F003C00
07807800
FFC0FFC0
FFC0FFC0
FFC0FFC0
ENDCHAR
STARTCHAR 03AA
ENCODING 938
SWIDTH 257 0
DWIDTH 10 0
BBX 12 35 -1 0
BITMAP
2060
70F0
F8F0
F8F0
7060
0000
0000
0000
0F00
0F00
0F00
0F00
0F00
0F00
0F00
0F00
0F00
0F00
0F00
0F00
0F00
0F00
0F00
0F00
0F00
0F00
0F00
0F00
0F00
0F00
0F00
0F00
0F00
0F00
0F00
ENDCHAR
STARTCHAR 03AB
ENCODING 939
SWIDTH 591 0
DWIDTH 23 0
BBX 23 35 0 0
BITMAP
018100
03C780
03C7C0
03C780
018380
000000
000000
000000
F8001E
78003C
3C003C
3C0078
1E0078
1E00F0
0F01E0
0F81E0
0783C0
03C3C0
03C780
01E700
01FF00
00FE00
007E00
007C00
003C00
003C00
003C00
003C00
003C00
003C00
003C00
003C00
003C00
003C00
003C00
ENDCHAR
STARTCHAR 03AC
ENCODING 940
SWIDTH 591 0
DWIDTH 23 0
BBX 21 30 2 0
BITMAP
001800
003C00
007800
007800
00F000
01E000
00C000
000000
000000
00F800
07FF80
0FFFC0
3FFFC0
3E03C0
7C03C0
7803C0
F003C0
F003C0
F003C0
F003C0
F003C0
F003C0
F003C0
F003C0
7803C0
7803C0
3E07C0
3FFFF8
1FFFF8
07F870
ENDCHAR
STARTCHAR 03AD
ENCODING 941
SWIDTH 488 0
DWIDTH 19 0
BBX 17 30 2 0
BITMAP
006000
007800
00F000
01E000
01C000
03C000
038000
000000
000000
01F000
0FFE00
3FFE00
7E1E00
780000
780000
700000
780000
3C0000
3FF000
1FF000
3FF000
780000
F00000
F00000
F00000
F00000
F80300
7FFF00
3FFF80
1FFE00
ENDCHAR
STARTCHAR 03AE
ENCODING 942
SWIDTH 565 0
DWIDTH 22 0
BBX 16 37 3 -7
BITMAP
0060
00F8
00F0
01E0
03C0
0380
0300
0100
0000
03C0
FFF8
FFFC
FFFE
F01F
F00F
F00F
F007
F007
F007
F007
F007
F007
F007
F007
F007
F007
F007
F007
F007
F007
0007
0007
0007
0007
0007
0007
0007
ENDCHAR
STARTCHAR 03AF
ENCODING 943
SWIDTH 257 0
DWIDTH 10 0
BBX 7 30 3 0
BITMAP
18
3C
3C
78
F0
E0
C0
00
00
00
F0
F0
F0
F0
F0
F0
F0
F0
F0
F0
F0
F0
F0
F0
F0
F0
F0
FE
7E
3C
ENDCHAR
STARTCHAR 03B0
ENCODING 944
SWIDTH 565 0
DWIDTH 22 0
BBX 17 30 3 0
BITMAP
00C000
00E000
71CF00
F9CF00
7B8F00
738600
070000
000000
000000
000000
F00780
F00780
F00780
F00780
F00780
F00780
F00780
F00780
F00780
F00780
F00780
F00780
F00700
F00700
F00F00
F00F00
7C1F00
7FFE00
3FFC00
0FF800
ENDCHAR
STARTCHAR 03B1
ENCODING 945
SWIDTH 591 0
DWIDTH 23 0
BBX 21 21 2 0
BITMAP
00F800
07FF80
0FFFC0
3FFFC0
3E03C0
7C03C0
7803C0
F003C0
F003C0
F003C0
F003C0
F003C0
F003C0
F003C0
F003C0
7803C0
7803C0
3E07C0
3FFFF8
1FFFF8
07F870
ENDCHAR
STARTCHAR 03B2
ENCODING 946
SWIDTH 591 0
DWIDTH 23 0
BBX 19 37 3 -7
BITMAP
07F800
1FFC00
3FFE00
7C1F00
780F00
700780
F00780
F00780
F00780
F00700
F00F00
F01E00
F1FC00
F1FC00
F1FF00
F01F80
F00780
F003C0
F003C0
F001E0
F001E0
F001E0
F001E0
F001E0
F003C0
F007C0
F80F80
FFFF80
FFFE00
F7FC00
F00000
F00000
F00000
F00000
F00000
F00000
F00000
ENDCHAR
STARTCHAR 03B3
ENCODING 947
SWIDTH 488 0
DWIDTH 19 0
BBX 17 27 1 -7
BITMAP
F00380
F00380
780780
780780
780700
3C0700
3C0F00
3C0E00
1E0E00
1E1E00
1E1C00
0E1C00
0F3C00
0F3800
077800
077000
07F000
07E000
03E000
03C000
038000
03C000
03C000
03C000
01C000
01C000
01C000
ENDCHAR
STARTCHAR 03B4
ENCODING 948
SWIDTH 565 0
DWIDTH 22 0
BBX 19 31 2 -1
BITMAP
01FE00
07FF80
0FFF80
0F0100
0E0000
0E0000
0F0000
0F8000
07C000
03F000
01F800
07FC00
1FBF00
3E0F00
3C0780
7803C0
7003C0
F001E0
F001E0
F001E0
F001E0
F001E0
F001E0
F001E0
7803C0
7803C0
3C0F80
3FFF80
1FFF00
07FC00
004000
ENDCHAR
STARTCHAR 03B5
ENCODING 949
SWIDTH 488 0
DWIDTH 19 0
BBX 17 21 2 0
BITMAP
01F000
0FFE00
3FFE00
7E1E00
780000
780000
700000
780000
3C0000
3FF000
1FF000
3FF000
780000
F00000
F00000
F00000
F00000
F80300
7FFF00
3FFF80
1FFE00
ENDCHAR
STARTCHAR 03B6
ENCODING 950
SWIDTH 437 0
DWIDTH 17 0
BBX 16 37 2 -7
BITMAP
7FFE
7FFE
7FFE
003C
0078
00F0
01E0
03C0
07C0
0780
0F00
1E00
1E00
3C00
3800
7800
7800
F000
F000
F000
F000
F000
F000
F000
F800
7C00
7F80
3FF8
0FFC
01FE
001F
000F
000F
000F
000E
001E
001C
ENDCHAR
STARTCHAR 03B7
ENCODING 951
SWIDTH 565 0
DWIDTH 22 0
BBX 16 28 3 -7
BITMAP
03C0
FFF8
FFFC
FFFE
F01F
F00F
F00F
F007
F007
F007
F007
F007
F007
F007
F007
F007
F007
F007
F007
F007
F007
0007
0007
0007
0007
0007
0007
0007
ENDCHAR
STARTCHAR 03B8
ENCODING 952
SWIDTH 591 0
DWIDTH 23 0
BBX 19 31 2 -1
BITMAP
03F800
07FE00
0FFF00
1F0F80
3C0780
3C03C0
7803C0
7801C0
7001E0
7001E0
F001E0
F001E0
F001E0
FFFFE0
FFFFE0
FFFFE0
F000E0
F001E0
F001E0
F001E0
7001E0
7001E0
7801C0
7803C0
3803C0
3C0780
1E0F80
1FFF00
0FFE00
07FC00
006000
ENDCHAR
STARTCHAR 03B9
ENCODING 953
SWIDTH 257 0
DWIDTH 10 0
BBX 7 20 3 0
BITMAP
F0
F0
F0
F0
F0
F0
F0
F0
F0
F0
F0
F0
F0
F0
F0
F0
F0
FE
7E
3C
ENDCHAR
STARTCHAR 03BA
ENCODING 954
SWIDTH 514 0
DWIDTH 20 0
BBX 17 20 3 0
BITMAP
F00F00
F01E00
F03C00
F07800
F0F000
F1E000
F3C000
F78000
FF0000
FF0000
FF8000
F7C000
F3E000
F1F000
F07800
F07C00
F03E00
F01F00
F00F00
F00780
ENDCHAR
STARTCHAR 03BB
ENCODING 955
SWIDTH 488 0
DWIDTH 19 0
BBX 18 30 1 0
BITMAP
FC0000
7E0000
7F0000
0F8000
078000
03C000
03C000
01E000
01E000
00E000
01F000
01F000
03F000
03F800
07B800
073C00
0F3C00
0E1C00
0E1E00
1E1E00
1C0E00
3C0F00
3C0F00
380F00
780780
780780
700780
F00380
F003C0
E003C0
ENDCHAR
STARTCHAR 03BC
ENCODING 956
SWIDTH 565 0
DWIDTH 22 0
BBX 16 27 3 -7
BITMAP
F007
F007
F007
F007
F007
F007
F007
F007
F007
F007
F007
F007
F007
F007
F007
F807
FC07
FFFF
FFFF
FFFF
F000
F000
F000
F000
F000
F000
F000
ENDCHAR
STARTCHAR 03BD
ENCODING 957
SWIDTH 488 0
DWIDTH 19 0
BBX 18 20 1 0
BITMAP
F003C0
F00380
F00780
780780
780780
780700
380F00
3C0F00
3C0E00
1C1E00
1E1C00
1E3C00
0F3C00
0F3800
077800
07F000
03F000
03F000
03E000
01E000
ENDCHAR
STARTCHAR 03BE
ENCODING 958
SWIDTH 462 0
DWIDTH 18 0
BBX 16 37 2 -7
BITMAP
03FE
0FFE
1FFE
3E02
3C00
7800
7800
7800
7800
3800
3C00
1E00
1FFC
07FC
0FFC
1FE0
3E00
7800
7000
F000
F000
F000
F000
F000
F800
7C00
7F80
3FF8
0FFE
01FE
001F
000F
000F
000F
000F
001E
001E
ENDCHAR
STARTCHAR 03BF
ENCODING 959
SWIDTH 565 0
DWIDTH 22 0
BBX 19 22 2 -1
BITMAP
01F000
07FC00
1FFF00
3FBF80
3C0780
7803C0
7803C0
F001E0
F001E0
F001E0
F001E0
F001E0
F001E0
F001E0
F001E0
7803C0
7807C0
3E0F80
1FFF00
0FFE00
07FC00
004000
ENDCHAR
STARTCHAR 03C0
ENCODING 960
SWIDTH 565 0
DWIDTH 22 0
BBX 16 20 3 0
BITMAP
FFFF
FFFF
FFFF
F007
F007
F007
F007
F007
F007
F007
F007
F007
F007
F007
F007
F007
F007
F007
F007
F007
ENDCHAR
STARTCHAR 03C1
ENCODING 961
SWIDTH 591 0
DWIDTH 23 0
BBX 18 28 3 -7
BITMAP
01E000
0FFC00
1FFE00
3FFF00
7C0F80
780780
F003C0
F003C0
F003C0
F003C0
F003C0
F003C0
F003C0
F003C0
F003C0
F00780
F00780
F80F00
FFFF00
FFFE00
FFF800
F00000
F00000
F00000
F00000
F00000
F00000
F00000
ENDCHAR
STARTCHAR 03C2
ENCODING 962
SWIDTH 437 0
DWIDTH 17 0
BBX 15 28 2 -7
BITMAP
01F8
07FE
1FFE
3FDC
3C00
7800
7800
F000
F000
F000
F000
F000
F000
F000
F000
7800
7C00
3F00
1FF0
0FFC
01FE
003E
001E
000E
001E
001E
001C
001C
ENDCHAR
STARTCHAR 03C3
ENCODING 963
SWIDTH 591 0
DWIDTH 23 0
BBX 21 21 2 -1
BITMAP
03FFF8
0FFFF8
1FFFF8
3E0F00
7C0780
780380
F003C0
F001C0
F001E0
F001E0
F001E0
F001E0
F001E0
F001C0
7803C0
7803C0
3C0F80
3FFF00
1FFE00
07FC00
004000
ENDCHAR
STARTCHAR 03C4
ENCODING 964
SWIDTH 437 0
DWIDTH 17 0
BBX 15 20 1 0
BITMAP
FFFE
FFFE
FFFE
0780
0780
0780
0780
0780
0780
0780
0780
0780
0780
0780
0780
0780
07C0
03FC
03FC
00FE
ENDCHAR
STARTCHAR 03C5
ENCODING 965
SWIDTH 565 0
DWIDTH 22 0
BBX 17 20 3 0
BITMAP
F00780
F00780
F00780
F00780
F00780
F00780
F00780
F00780
F00780
F00780
F00780
F00780
F00700
F00700
F00F00
F00F00
7C1F00
7FFE00
3FFC00
0FF800
ENDCHAR
STARTCHAR 03C6
ENCODING 966
SWIDTH 745 0
DWIDTH 29 0
BBX 26 28 2 -7
BITMAP
003F0000
03FFF000
0FFFFC00
1FDEFE00
3E1E1F00
7C1E0F80
781E0780
F01E0380
F01E03C0
F01E03C0
F01E03C0
F01E03C0
F01E03C0
F01E03C0
701E0780
781E0780
3C1E0F00
3F1E3F00
1FFFFE00
07FFF800
01FFE000
001E0000
001E0000
001E0000
001E0000
001E0000
001E0000
001E0000
ENDCHAR
STARTCHAR 03C7
ENCODING 967
SWIDTH 488 0
DWIDTH 19 0
BBX 18 20 1 0
BITMAP
F80780
780700
3C0F00
1E1E00
1E3C00
0F3C00
07F800
07F000
03E000
01E000
03F000
07F800
0F7800
0E3C00
1E1E00
3C1F00
380F00
780780
F00780
F003C0
ENDCHAR
STARTCHAR 03C8
ENCODING 968
SWIDTH 771 0
DWIDTH 30 0
BBX 24 27 3 -7
BITMAP
F03C07
F03C07
F03C07
F03C07
F03C07
F03C07
F03C07
F03C07
F03C07
F03C07
F03C07
F03C07
F03C0F
F03C0F
783C1E
7C3C1E
3E3C7C
1FFFFC
0FFFF0
03FFE0
003C00
003C00
003C00
003C00
003C00
003C00
003C00
ENDCHAR
STARTCHAR 03C9
ENCODING 969
SWIDTH 822 0
DWIDTH 32 0
BBX 28 21 2 0
BITMAP
08000080
1E000780
1E0003C0
3C0001C0
3C0001E0
780F01E0
780F00F0
700F00F0
F00F00F0
F00F0070
F00F0070
F00F0070
F00F0070
F00F00F0
F00F00F0
780F80F0
781F81F0
7C3FC3E0
3FFDFFE0
1FF9FFC0
0FF07F00
ENDCHAR
STARTCHAR 03CA
ENCODING 970
SWIDTH 257 0
DWIDTH 10 0
BBX 12 29 -1 0
BITMAP
0040
F0F0
F1F0
F1F0
70E0
0000
0000
0000
0000
0F00
0F00
0F00
0F00
0F00
0F00
0F00
0F00
0F00
0F00
0F00
0F00
0F00
0F00
0F00
0F00
0F00
0FE0
07E0
03C0
ENDCHAR
STARTCHAR 03CB
ENCODING 971
SWIDTH 565 0
DWIDTH 22 0
BBX 17 29 3 0
BITMAP
081000
1C3C00
3E3C00
3E3C00
1C3800
000000
000000
000000
000000
F00780
F00780
F00780
F00780
F00780
F00780
F00780
F00780
F00780
F00780
F00780
F00780
F00700
F00700
F00F00
F00F00
7C1F00
7FFE00
3FFC00
0FF800
ENDCHAR
STARTCHAR 03CC
ENCODING 972
SWIDTH 565 0
DWIDTH 22 0
BBX 19 31 2 -1
BITMAP
001800
003C00
007800
007000
00E000
01E000
01C000
000000
000000
01F000
07FC00
1FFF00
3FBF80
3C0780
7803C0
7803C0
F001E0
F001E0
F001E0
F001E0
F001E0
F001E0
F001E0
F001E0
7803C0
7807C0
3E0F80
1FFF00
0FFE00
07FC00
004000
ENDCHAR
STARTCHAR 03CD
ENCODING 973
SWIDTH 565 0
DWIDTH 22 0
BBX 17 30 3 0
BITMAP
006000
007800
00F000
01E000
01C000
038000
038000
010000
000000
000000
F00780
F00780
F00780
F00780
F00780
F00780
F00780
F00780
F00780
F00780
F00780
F00780
F00700
F00700
F00F00
F00F00
7C1F00
7FFE00
3FFC00
0FF800
ENDCHAR
STARTCHAR 03CE
ENCODING 974
SWIDTH 822 0
DWIDTH 32 0
BBX 28 30 2 0
BITMAP
00018000
0001E000
0003C000
00078000
00070000
000E0000
000E0000
00040000
00000000
08000080
1E000780
1E0003C0
3C0001C0
3C0001E0
780F01E0
780F00F0
700F00F0
F00F00F0
F00F0070
F00F0070
F00F0070
F00F0070
F00F00F0
F00F00F0
780F80F0
781F81F0
7C3FC3E0
3FFDFFE0
1FF9FFC0
0FF07F00
ENDCHAR
STARTCHAR 0400
ENCODING 1024
SWIDTH 565 0
DWIDTH 22 0
BBX 18 36 3 0
BITMAP
030000
078000
078000
03C000
01E000
00F000
006000
000000
000000
FFFF80
FFFF80
FFFF80
F00000
F00000
F00000
F00000
F00000
F00000
F00000
F00000
FFFE00
FFFE00
FFFE00
F00000
F00000
F00000
F00000
F00000
F00000
F00000
F00000
F00000
F00000
FFFFC0
FFFFC0
FFFFC0
ENDCHAR
STARTCHAR 0401
ENCODING 1025
SWIDTH 565 0
DWIDTH 22 0
BBX 18 35 3 0
BITMAP
0C0800
1E3C00
1E3C00
1E3C00
0C1C00
000000
000000
000000
FFFF80
FFFF80
FFFF80
F00000
F00000
F00000
F00000
F00000
F00000
F00000
F00000
FFFE00
FFFE00
FFFE00
F00000
F00000
F00000
F00000
F00000
F00000
F00000
F00000
F00000
F00000
FFFFC0
FFFFC0
FFFFC0
ENDCHAR
STARTCHAR 0402
ENCODING 1026
SWIDTH 745 0
DWIDTH 29 0
BBX 27 27 1 0
BITMAP
FFFFF800
FFFFF800
FFFFF800
00E00000
00E00000
00E00000
00E00000
00E00000
00E00000
00E00000
00EFF000
00FFFE00
00FFFF00
00F83F80
00E007C0
00E003C0
00E003C0
00E001E0
00E001E0
00E001E0
00E001E0
00E003C0
00E003C0
00E007C0
00E07F80
00E07F00
00E07C00
ENDCHAR
STARTCHAR 0403
ENCODING 1027
SWIDTH 488 0
DWIDTH 19 0
BBX 16 36 3 0
BITMAP
0020
0070
00F0
01E0
01C0
0380
0300
0000
0000
FFFF
FFFF
FFFF
F000
F000
F000
F000
F000
F000
F000
F000
F000
F000
F000
F000
F000
F000
F000
F000
F000
F000
F000
F000
F000
F000
F000
F000
ENDCHAR
STARTCHAR 0404
ENCODING 1028
SWIDTH 617 0
DWIDTH 24 0
BBX 21 29 2 -1
BITMAP
001C00
01FFF0
03FFF8
0FFFF8
1F8030
1F0000
3E0000
3C0000
780000
780000
780000
F80000
F00000
FFFF00
FFFF00
FFFF00
F00000
F00000
780000
780000
780000
3C0000
3E0000
1F0000
1F8030
0FFFF8
03FFF8
01FFF0
000C00
ENDCHAR
STARTCHAR 0405
ENCODING 1029
SWIDTH 514 0
DWIDTH 20 0
BBX 18 29 1 -1
BITMAP
00F000
07FF00
1FFF80
3FFF80
3E0100
780000
780000
780000
780000
780000
7C0000
3F0000
1FC000
0FF800
07FE00
00FF00
003F80
000FC0
0007C0
0003C0
0003C0
0003C0
0003C0
0003C0
7007C0
7FFF80
FFFF00
3FFE00
03A000
ENDCHAR
STARTCHAR 0406
ENCODING 1030
SWIDTH 257 0
DWIDTH 10 0
BBX 4 27 3 0
BITMAP
F0
F0
F0
F0
F0
F0
F0
F0
F0
F0
F0
F0
F0
F0
F0
F0
F0
F0
F0
F0
F0
F0
F0
F0
F0
F0
F0
ENDCHAR
STARTCHAR 0407
ENCODING 1031
SWIDTH 257 0
DWIDTH 10 0
BBX 12 35 -1 0
BITMAP
2060
70F0
F8F0
F8F0
7060
0000
0000
0000
0F00
0F00
0F00
0F00
0F00
0F00
0F00
0F00
0F00
0F00
0F00
0F00
0F00
0F00
0F00
0F00
0F00
0F00
0F00
0F00
0F00
0F00
0F00
0F00
0F00
0F00
0F00
ENDCHAR
STARTCHAR 0408
ENCODING 1032
SWIDTH 488 0
DWIDTH 19 0
BBX 16 28 0 -1
BITMAP
0007
0007
0007
0007
0007
0007
0007
0007
0007
0007
0007
0007
0007
0007
0007
0007
0007
0007
000F
000F
000F
000F
001F
703E
7FFE
FFFC
3FF0
0300
ENDCHAR
STARTCHAR 0409
ENCODING 1033
SWIDTH 1028 0
DWIDTH 40 0
BBX 38 27 1 0
BITMAP
00FFFE0000
00FFFE0000
00FFFE0000
00F01E0000
00F01E0000
00E01E0000
00E01E0000
00E01E0000
00E01E0000
00E01E0000
00E01FFF00
01E01FFFC0
01E01FFFF0
01E01E03F8
01E01E00F8
01E01E007C
01C01E003C
03C01E003C
03C01E003C
03C01E003C
07801E003C
07801E007C
0F001E00F8
3F001E03F8
FE001FFFF0
FC001FFFC0
F0001FFF00
ENDCHAR
STARTCHAR 040A
ENCODING 1034
SWIDTH 1002 0
DWIDTH 39 0
BBX 35 27 3 0
BITMAP
F000700000
F000700000
F000700000
F000700000
F000700000
F000700000
F000700000
F000700000
F000700000
F000700000
FFFFFFF800
FFFFFFFF00
FFFFFFFF80
FFFFF01FC0
F0007003E0
F0007001E0
F0007001E0
F0007001E0
F0007001E0
F0007001E0
F0007001E0
F0007001E0
F0007003E0
F000700FC0
F0007FFF80
F0007FFF00
F0007FF800
ENDCHAR
STARTCHAR 040B
ENCODING 1035
SWIDTH 745 0
DWIDTH 29 0
BBX 26 27 1 0
BITMAP
FFFFF800
FFFFF800
FFFFF800
00E00000
00E00000
00E00000
00E00000
00E00000
00E00000
00E00000
00EFF000
00FFFC00
00FFFF00
00F87F00
00E00F80
00E00780
00E00780
00E00380
00E003C0
00E003C0
00E003C0
00E003C0
00E003C0
00E003C0
00E003C0
00E003C0
00E003C0
ENDCHAR
STARTCHAR 040C
ENCODING 1036
SWIDTH 617 0
DWIDTH 24 0
BBX 21 36 3 0
BITMAP
001800
001C00
003C00
007800
00F000
01E000
00C000
000000
000000
F001F0
F003E0
F007C0
F00780
F00F00
F01E00
F03C00
F07800
F0F000
F1E000
F3C000
F78000
FF0000
FF8000
F7C000
F3F000
F1F800
F0FC00
F03E00
F01F00
F00F00
F00780
F007C0
F003E0
F001F0
F000F0
F000F8
ENDCHAR
STARTCHAR 040D
ENCODING 1037
SWIDTH 720 0
DWIDTH 28 0
BBX 22 36 3 0
BITMAP
008000
01C000
01E000
00F000
007800
003C00
001800
000000
000000
F0001C
F0003C
F0007C
F000FC
F001FC
F003FC
F003FC
F007BC
F00F3C
F01E3C
F03E3C
F03C3C
F0783C
F0F03C
F0F03C
F1E03C
F3C03C
F3C03C
F7803C
FF003C
FF003C
FE003C
FC003C
FC003C
F8003C
F0003C
F0003C
ENDCHAR
STARTCHAR 040E
ENCODING 1038
SWIDTH 565 0
DWIDTH 22 0
BBX 21 35 1 0
BITMAP
030300
070780
03CF00
03FF00
01FE00
000000
000000
000000
F00078
F80078
780078
7800F0
3C00F0
3C00F0
1E01E0
1E01E0
0F01E0
0F03C0
0783C0
078380
03C780
03C780
01E700
01EF00
00FE00
00FE00
007C00
003C00
003C00
007800
00F000
01F000
7FE000
7FC000
7F0000
ENDCHAR
STARTCHAR 040F
ENCODING 1039
SWIDTH 694 0
DWIDTH 27 0
BBX 21 34 3 -7
BITMAP
F00078
F00078
F00078
F00078
F00078
F00078
F00078
F00078
F00078
F00078
F00078
F00078
F00078
F00078
F00078
F00078
F00078
F00078
F00078
F00078
F00078
F00078
F00078
F00078
FFFFF8
FFFFF8
FFFFF8
007000
007000
007000
007000
007000
007000
007000
ENDCHAR
STARTCHAR 0410
ENCODING 1040
SWIDTH 642 0
DWIDTH 25 0
BBX 25 27 0 0
BITMAP
001E0000
003E0000
003F0000
003F0000
007F8000
00778000
00F3C000
00E3C000
01E1C000
01E1E000
01C1E000
03C0F000
0380F000
0780F000
07807800
07007800
0F003C00
0FFFFC00
1FFFFC00
1FFFFE00
1E001E00
3C001E00
3C000F00
38000F00
78000F80
78000780
F0000780
ENDCHAR
STARTCHAR 0411
ENCODING 1041
SWIDTH 617 0
DWIDTH 24 0
BBX 20 27 3 0
BITMAP
FFFF80
FFFF80
FFFF80
F00000
F00000
F00000
F00000
F00000
F00000
F00000
FFF000
FFFE00
FFFF80
F01FC0
F003E0
F001E0
F001E0
F001E0
F000F0
F001E0
F001E0
F001E0
F003E0
F00FC0
FFFF80
FFFF00
FFF800
ENDCHAR
STARTCHAR 0412
ENCODING 1042
SWIDTH 642 0
DWIDTH 25 0
BBX 20 27 3 0
BITMAP
FFFC00
FFFF00
FFFF80
F00FC0
F003C0
F003E0
F001E0
F001E0
F001E0
F003C0
F007C0
FFFF80
FFFE00
FFFF80
F03FC0
F003E0
F001F0
F000F0
F000F0
F000F0
F000F0
F000F0
F001E0
F007E0
FFFFC0
FFFF80
FFFC00
ENDCHAR
STARTCHAR 0413
ENCODING 1043
SWIDTH 488 0
DWIDTH 19 0
BBX 16 27 3 0
BITMAP
FFFF
FFFF
FFFF
F000
F000
F000
F000
F000
F000
F000
F000
F000
F000
F000
F000
F000
F000
F000
F000
F000
F000
F000
F000
F000
F000
F000
F000
ENDCHAR
STARTCHAR 0414
ENCODING 1044
SWIDTH 720 0
DWIDTH 28 0
BBX 26 34 1 -7
BITMAP
00FFFE00
00FFFE00
00FFFE00
00E01E00
00E01E00
00E01E00
00E01E00
00E01E00
00E01E00
01E01E00
01E01E00
01E01E00
01E01E00
01E01E00
01E01E00
01C01E00
03C01E00
03C01E00
03801E00
07801E00
07801E00
0F001E00
1F001E00
1E001E00
FFFFFFC0
FFFFFFC0
FFFFFFC0
E00001C0
E00001C0
E00001C0
E00001C0
E00001C0
E00001C0
E00001C0
ENDCHAR
STARTCHAR 0415
ENCODING 1045
SWIDTH 565 0
DWIDTH 22 0
BBX 18 27 3 0
BITMAP
FFFF80
FFFF80
FFFF80
F00000
F00000
F00000
F00000
F00000
F00000
F00000
F00000
FFFE00
FFFE00
FFFE00
F00000
F00000
F00000
F00000
F00000
F00000
F00000
F00000
F00000
F00000
FFFFC0
FFFFC0
FFFFC0
ENDCHAR
STARTCHAR 0416
ENCODING 1046
SWIDTH 900 0
DWIDTH 35 0
BBX 33 27 1 0
BITMAP
7801C00F00
3C01C01F00
3E01C03E00
1F01C07C00
0F01C07800
0781C0F000
03C1C1E000
01E1C3E000
01F1C7C000
00F9C78000
0079CF0000
003DDE0000
001FFC0000
003FFE0000
007DDF0000
00F9CF8000
01F1C7C000
03E1C3E000
03C1C1F000
07C1C0F000
0F81C0F800
1F01C07C00
1E01C03E00
3C01C01E00
7C01C01F00
7801C00F00
F001C00780
ENDCHAR
STARTCHAR 0417
ENCODING 1047
SWIDTH 565 0
DWIDTH 22 0
BBX 19 29 1 -1
BITMAP
00C000
3FFC00
7FFF00
3FFF80
300F80
0007C0
0003C0
0003C0
0003C0
0003C0
000780
001F80
07FE00
07FC00
07FF00
003F80
0007C0
0003E0
0001E0
0001E0
0001E0
0001E0
0001E0
0003E0
7007C0
7FFFC0
FFFF80
3FFE00
018000
ENDCHAR
STARTCHAR 0418
ENCODING 1048
SWIDTH 720 0
DWIDTH 28 0
BBX 22 27 3 0
BITMAP
F0001C
F0003C
F0007C
F000FC
F001FC
F003FC
F003FC
F007BC
F00F3C
F01E3C
F03E3C
F03C3C
F0783C
F0F03C
F0F03C
F1E03C
F3C03C
F3C03C
F7803C
FF003C
FF003C
FE003C
FC003C
FC003C
F8003C
F0003C
F0003C
ENDCHAR
STARTCHAR 0419
ENCODING 1049
SWIDTH 720 0
DWIDTH 28 0
BBX 22 35 3 0
BITMAP
030300
038380
03C700
03FF00
00FE00
000000
000000
000000
F0001C
F0003C
F0007C
F000FC
F001FC
F003FC
F003FC
F007BC
F00F3C
F01E3C
F03E3C
F03C3C
F0783C
F0F03C
F0F03C
F1E03C
F3C03C
F3C03C
F7803C
FF003C
FF003C
FE003C
FC003C
FC003C
F8003C
F0003C
F0003C
ENDCHAR
STARTCHAR 041A
ENCODING 1050
SWIDTH 617 0
DWIDTH 24 0
BBX 21 27 3 0
BITMAP
F001F0
F003E0
F007C0
F00780
F00F00
F01E00
F03C00
F07800
F0F000
F1E000
F3C000
F78000
FF0000
FF8000
F7C000
F3F000
F1F800
F0FC00
F03E00
F01F00
F00F00
F00780
F007C0
F003E0
F001F0
F000F0
F000F8
ENDCHAR
STARTCHAR 041B
ENCODING 1051
SWIDTH 694 0
DWIDTH 27 0
BBX 23 27 1 0
BITMAP
00FFFE
00FFFE
00FFFE
00F01E
00F01E
00E01E
00E01E
00E01E
00E01E
00E01E
00E01E
01E01E
01E01E
01E01E
01E01E
01E01E
01C01E
03C01E
03C01E
03C01E
07801E
07801E
0F001E
3F001E
FE001E
FC001E
F0001E
ENDCHAR
STARTCHAR 041C
ENCODING 1052
SWIDTH 848 0
DWIDTH 33 0
BBX 28 27 3 0
BITMAP
380001C0
7C0003C0
7C0003E0
7E0007E0
7E0007E0
7F000FE0
77000FE0
77801EE0
73801CE0
73C03CE0
71C038E0
F1E078E0
F0E070E0
F0F0F0E0
F070E0F0
F079E0F0
F079C0F0
F03BC0F0
F03FC0F0
F01F80F0
F01F80F0
F00F00F0
E00F00F0
E00000F0
E00000F0
E0000070
E0000070
ENDCHAR
STARTCHAR 041D
ENCODING 1053
SWIDTH 694 0
DWIDTH 27 0
BBX 21 27 3 0
BITMAP
F00078
F00078
F00078
F00078
F00078
F00078
F00078
F00078
F00078
F00078
F00078
FFFFF8
FFFFF8
FFFFF8
FFFFF8
F00078
F00078
F00078
F00078
F00078
F00078
F00078
F00078
F00078
F00078
F00078
F00078
ENDCHAR
STARTCHAR 041E
ENCODING 1054
SWIDTH 771 0
DWIDTH 30 0
BBX 26 29 2 -1
BITMAP
000C0000
00FFE000
03FFF000
07FFFC00
0F807E00
1F003E00
3E001F00
3C000F80
78000780
78000780
780007C0
F00003C0
F00003C0
F00003C0
F00003C0
F00003C0
F00003C0
F00003C0
780007C0
78000780
78000780
3C000F80
3E001F00
1F003E00
0F807E00
07FFFC00
03FFF000
00FFE000
001C0000
ENDCHAR
STARTCHAR 041F
ENCODING 1055
SWIDTH 694 0
DWIDTH 27 0
BBX 21 27 3 0
BITMAP
FFFFF8
FFFFF8
FFFFF8
F00078
F00078
F00078
F00078
F00078
F00078
F00078
F00078
F00078
F00078
F00078
F00078
F00078
F00078
F00078
F00078
F00078
F00078
F00078
F00078
F00078
F00078
F00078
F00078
ENDCHAR
STARTCHAR 0420
ENCODING 1056
SWIDTH 591 0
DWIDTH 23 0
BBX 19 27 3 0
BITMAP
FFF800
FFFF00
FFFF80
F01FC0
F003C0
F001E0
F001E0
F001E0
F001E0
F001E0
F001E0
F003E0
F007C0
F01FC0
FFFF80
FFFE00
FFF800
F00000
F00000
F00000
F00000
F00000
F00000
F00000
F00000
F00000
F00000
ENDCHAR
STARTCHAR 0421
ENCODING 1057
SWIDTH 617 0
DWIDTH 24 0
BBX 21 29 2 -1
BITMAP
000C00
00FFE0
03FFF8
07FFF8
0FC030
1F0000
3E0000
3C0000
7C0000
780000
780000
F80000
F00000
F00000
F00000
F00000
F00000
F00000
780000
780000
780000
3C0000
3E0000
1F0000
1F8030
0FFFF8
03FFF8
01FFF0
000C00
ENDCHAR
STARTCHAR 0422
ENCODING 1058
SWIDTH 540 0
DWIDTH 21 0
BBX 20 27 1 0
BITMAP
FFFFF0
FFFFF0
FFFFF0
00F000
00F000
00F000
00F000
00F000
00F000
00F000
00F000
00F000
00F000
00F000
00F000
00F000
00F000
00F000
00F000
00F000
00F000
00F000
00F000
00F000
00F000
00F000
00F000
ENDCHAR
STARTCHAR 0423
ENCODING 1059
SWIDTH 565 0
DWIDTH 22 0
BBX 21 27 1 0
BITMAP
F00078
F80078
780078
7800F0
3C00F0
3C00F0
1E01E0
1E01E0
0F01E0
0F03C0
0783C0
078380
03C780
03C780
01E700
01EF00
00FE00
00FE00
007C00
003C00
003C00
007800
00F000
01F000
7FE000
7FC000
7F0000
ENDCHAR
STARTCHAR 0424
ENCODING 1060
SWIDTH 848 0
DWIDTH 33 0
BBX 29 29 2 0
BITMAP
00078000
00078000
00078000
000FC000
01FFFC00
07FFFF00
0FFFFFC0
1F0787E0
3E0781F0
7C0780F0
780780F8
78078078
F0078078
F0078078
F0078078
F0078078
F0078078
78078078
78078078
7C0780F0
3E0781F0
1F0787E0
0FE7BFC0
07FFFF80
01FFFE00
003FE000
00078000
00078000
00078000
ENDCHAR
STARTCHAR 0425
ENCODING 1061
SWIDTH 617 0
DWIDTH 24 0
BBX 23 27 1 0
BITMAP
78003C
7C0078
3C00F0
1E00F0
1F01E0
0F03C0
0783C0
07C780
03CF00
01EF00
01FE00
00FC00
007C00
00FC00
00FE00
01FF00
03EF00
03C780
0787C0
0F83C0
0F01E0
1E01F0
3E00F0
3C0078
780078
78003C
F0003E
ENDCHAR
STARTCHAR 0426
ENCODING 1062
SWIDTH 694 0
DWIDTH 27 0
BBX 24 34 3 -7
BITMAP
F00078
F00078
F00078
F00078
F00078
F00078
F00078
F00078
F00078
F00078
F00078
F00078
F00078
F00078
F00078
F00078
F00078
F00078
F00078
F00078
F00078
F00078
F00078
F00078
FFFFFF
FFFFFF
FFFFFF
000007
000007
000007
000007
000007
000007
000007
ENDCHAR
STARTCHAR 0427
ENCODING 1063
SWIDTH 617 0
DWIDTH 24 0
BBX 19 27 2 0
BITMAP
F001E0
F001E0
F001E0
F001E0
F001E0
F001E0
F001E0
F001E0
F001E0
F001E0
F001E0
7801E0
7801E0
7C01E0
3FFFE0
1FFFE0
0FFFE0
0071E0
0001E0
0001E0
0001E0
0001E0
0001E0
0001E0
0001E0
0001E0
0001E0
ENDCHAR
STARTCHAR 0428
ENCODING 1064
SWIDTH 977 0
DWIDTH 38 0
BBX 32 27 3 0
BITMAP
F003C00F
F003C00F
F003C00F
F003C00F
F003C00F
F003C00F
F003C00F
F003C00F
F003C00F
F003C00F
F003C00F
F003C00F
F003C00F
F003C00F
F003C00F
F003C00F
F003C00F
F003C00F
F003C00F
F003C00F
F003C00F
F003C00F
F003C00F
F003C00F
FFFFFFFF
FFFFFFFF
FFFFFFFF
ENDCHAR
STARTCHAR 0429
ENCODING 1065
SWIDTH 977 0
DWIDTH 38 0
BBX 35 34 3 -7
BITMAP
F003C00F00
F003C00F00
F003C00F00
F003C00F00
F003C00F00
F003C00F00
F003C00F00
F003C00F00
F003C00F00
F003C00F00
F003C00F00
F003C00F00
F003C00F00
F003C00F00
F003C00F00
F003C00F00
F003C00F00
F003C00F00
F003C00F00
F003C00F00
F003C00F00
F003C00F00
F003C00F00
F003C00F00
FFFFFFFFE0
FFFFFFFFE0
FFFFFFFFE0
00000000E0
00000000E0
00000000E0
00000000E0
00000000E0
00000000E0
00000000E0
ENDCHAR
STARTCHAR 042A
ENCODING 1066
SWIDTH 720 0
DWIDTH 28 0
BBX 26 27 1 0
BITMAP
FFC00000
FFC00000
FFC00000
01C00000
01C00000
01C00000
01C00000
01C00000
01C00000
01C00000
01FFF000
01FFFC00
01FFFE00
01C03F00
01C00F80
01C00780
01C007C0
01C003C0
01C003C0
01C003C0
01C003C0
01C00780
01C00F80
01C03F00
01FFFE00
01FFFC00
01FFF000
ENDCHAR
STARTCHAR 042B
ENCODING 1067
SWIDTH 848 0
DWIDTH 33 0
BBX 27 27 3 0
BITMAP
F00001E0
F00001E0
F00001E0
F00001E0
F00001E0
F00001E0
F00001E0
F00001E0
F00001E0
F00001E0
FFF801E0
FFFE01E0
FFFF81E0
F01FC1E0
F007C1E0
F003E1E0
F001E1E0
F001E1E0
F001E1E0
F001E1E0
F001E1E0
F003E1E0
F007C1E0
F01FC1E0
FFFF81E0
FFFE01E0
FFF801E0
ENDCHAR
STARTCHAR 042C
ENCODING 1068
SWIDTH 591 0
DWIDTH 23 0
BBX 20 27 3 0
BITMAP
F00000
F00000
F00000
F00000
F00000
F00000
F00000
F00000
F00000
F00000
FFF800
FFFF00
FFFF80
F00FC0
F003E0
F001E0
F001E0
F001E0
F000F0
F001E0
F001E0
F001E0
F003E0
F00FC0
FFFF80
FFFF00
FFF800
ENDCHAR
STARTCHAR 042D
ENCODING 1069
SWIDTH 617 0
DWIDTH 24 0
BBX 21 29 1 -1
BITMAP
038000
3FFC00
FFFE00
FFFF80
600FC0
0007C0
0003E0
0001F0
0000F0
0000F0
0000F0
000078
000078
07FFF8
07FFF8
07FFF8
000078
000078
0000F0
0000F0
0000F0
0001F0
0003E0
0007C0
600FC0
FFFF80
FFFE00
7FFC00
018000
ENDCHAR
STARTCHAR 042E
ENCODING 1070
SWIDTH 1028 0
DWIDTH 40 0
BBX 35 29 3 -1
BITMAP
0000020000
F0007FF000
F000FFF800
F003FFFE00
F007E03F00
F007801F00
F00F000F80
F01F000780
F01E0003C0
F01E0003C0
F01E0003C0
F03C0001E0
FFFC0001E0
FFFC0001E0
FFFC0001E0
FFFC0001E0
F03C0001E0
F03C0001E0
F01E0003C0
F01E0003C0
F01E0003C0
F01F000780
F00F000F80
F007801F00
F007E03F00
F003FFFE00
F000FFF800
F0007FF000
0000020000
ENDCHAR
STARTCHAR 042F
ENCODING 1071
SWIDTH 617 0
DWIDTH 24 0
BBX 19 27 2 0
BITMAP
01FFE0
0FFFE0
1FFFE0
3F00E0
7C00E0
7800E0
F800E0
F000E0
F000E0
F000E0
7800E0
7800E0
7E00E0
3FFFE0
1FFFE0
07FFE0
0780E0
0780E0
0F00E0
1E00E0
1E00E0
3C00E0
3C00E0
7800E0
7800E0
F000E0
F000E0
ENDCHAR
STARTCHAR 0430
ENCODING 1072
SWIDTH 514 0
DWIDTH 20 0
BBX 15 21 2 0
BITMAP
0FC0
3FF8
3FFC
3CFC
001E
001E
000E
000E
000E
1FFE
3FFE
7FFE
F80E
F00E
E00E
E00E
F00E
F00E
7FFE
7FFE
1FFE
ENDCHAR
STARTCHAR 0431
ENCODING 1073
SWIDTH 591 0
DWIDTH 23 0
BBX 19 31 2 -1
BITMAP
0007C0
007FC0
03FFC0
07FE00
0FC000
1F0000
1E0000
3C0000
380000
780000
78F800
77FE00
7FFF80
7F1F80
FC07C0
F003C0
F001E0
F001E0
F001E0
F001E0
7001E0
7001E0
7801E0
7801E0
7803C0
3C03C0
3E0780
1FFF80
0FFF00
07FC00
004000
ENDCHAR
STARTCHAR 0432
ENCODING 1074
SWIDTH 540 0
DWIDTH 21 0
BBX 17 21 3 0
BITMAP
1FC000
FFF800
FFFE00
F03E00
F00F00
F00F00
F00F00
F00F00
F01E00
FFFC00
FFFC00
FFFE00
F00F00
F00780
F00780
F00780
F00780
F00F00
FFFF00
FFFE00
FFF800
ENDCHAR
STARTCHAR 0433
ENCODING 1075
SWIDTH 411 0
DWIDTH 16 0
BBX 13 20 3 0
BITMAP
FFF8
FFF8
FFF8
F000
F000
F000
F000
F000
F000
F000
F000
F000
F000
F000
F000
F000
F000
F000
F000
F000
ENDCHAR
STARTCHAR 0434
ENCODING 1076
SWIDTH 591 0
DWIDTH 23 0
BBX 22 26 1 -6
BITMAP
03FFE0
03FFE0
03FFE0
0381E0
0781E0
0781E0
0781E0
0781E0
0781E0
0701E0
0701E0
0F01E0
0F01E0
0E01E0
1E01E0
1C01E0
3C01E0
FFFFFC
FFFFFC
FFFFFC
E0003C
E0003C
E0003C
E0003C
E0003C
E0003C
ENDCHAR
STARTCHAR 0435
ENCODING 1077
SWIDTH 540 0
DWIDTH 21 0
BBX 18 21 2 0
BITMAP
01E000
07FC00
1FFE00
3F3F00
3C0F80
780780
700780
F00380
F003C0
FFFFC0
FFFFC0
FFFFC0
F00000
F00000
F00000
780000
780000
3E0100
3FFF00
1FFF00
07FF00
ENDCHAR
STARTCHAR 0436
ENCODING 1078
SWIDTH 745 0
DWIDTH 29 0
BBX 28 20 1 0
BITMAP
780F03E0
3C0F03C0
1E0F0780
0F0F0F00
078F1E00
078F3C00
03CF7800
01EF7000
00FFF000
00FFF000
01FFF800
03EF7C00
07CF3C00
0F8F1E00
1F0F0F00
1E0F0780
3C0F03C0
780F03C0
F80F01E0
F00F00F0
ENDCHAR
STARTCHAR 0437
ENCODING 1079
SWIDTH 488 0
DWIDTH 19 0
BBX 15 21 2 0
BITMAP
0F00
FFF0
FFF8
70FC
003C
001C
001C
003C
007C
1FF8
1FF0
1FF8
003C
001E
001E
001E
001E
803E
FFFC
FFFC
FFF0
ENDCHAR
STARTCHAR 0438
ENCODING 1080
SWIDTH 591 0
DWIDTH 23 0
BBX 17 20 3 0
BITMAP
F00780
F00F80
F00F80
F01F80
F03F80
F07B80
F07380
F0E380
F1E380
F1C380
F38380
F78380
F70380
FE0380
FE0380
FC0380
F80380
F80380
F00380
F00380
ENDCHAR
STARTCHAR 0439
ENCODING 1081
SWIDTH 591 0
DWIDTH 23 0
BBX 17 29 3 0
BITMAP
0C0800
1C1C00
1E3C00
0FF800
07F000
000000
000000
000000
000000
F00780
F00F80
F00F80
F01F80
F03F80
F07B80
F07380
F0E380
F1E380
F1C380
F38380
F78380
F70380
FE0380
FE0380
FC0380
F80380
F80380
F00380
F00380
ENDCHAR
STARTCHAR 043A
ENCODING 1082
SWIDTH 514 0
DWIDTH 20 0
BBX 17 20 3 0
BITMAP
F00F00
F01E00
F03C00
F07800
F0F000
F1E000
F3C000
F78000
FF0000
FF0000
FF8000
F7C000
F3E000
F1F000
F07800
F07C00
F03E00
F01F00
F00F00
F00780
ENDCHAR
STARTCHAR 043B
ENCODING 1083
SWIDTH 591 0
DWIDTH 23 0
BBX 19 20 1 0
BITMAP
03FFE0
03FFE0
03FFE0
0380E0
0380E0
0380E0
0380E0
0780E0
0780E0
0780E0
0780E0
0700E0
0700E0
0F00E0
0F00E0
1E00E0
3E00E0
FC00E0
F800E0
E000E0
ENDCHAR
STARTCHAR 043C
ENCODING 1084
SWIDTH 720 0
DWIDTH 28 0
BBX 23 20 3 0
BITMAP
780038
780078
7C00FC
7C00FC
7E01FC
7E01FC
F703FC
F7039C
F3839C
F3871C
F1C71C
E1CE1C
E1EE1C
E0FC1C
E0FC1E
E0781E
E0781E
E0001E
E0001E
E0001E
ENDCHAR
STARTCHAR 043D
ENCODING 1085
SWIDTH 565 0
DWIDTH 22 0
BBX 17 20 3 0
BITMAP
F00780
F00780
F00780
F00780
F00780
F00780
F00780
F00780
FFFF80
FFFF80
FFFF80
F00780
F00780
F00780
F00780
F00780
F00780
F00780
F00780
F00780
ENDCHAR
STARTCHAR 043E
ENCODING 1086
SWIDTH 565 0
DWIDTH 22 0
BBX 19 22 2 -1
BITMAP
01F000
07FC00
1FFF00
3FBF80
3C0780
7803C0
7803C0
F001E0
F001E0
F001E0
F001E0
F001E0
F001E0
F001E0
F001E0
7803C0
7807C0
3E0F80
1FFF00
0FFE00
07FC00
004000
ENDCHAR
STARTCHAR 043F
ENCODING 1087
SWIDTH 565 0
DWIDTH 22 0
BBX 16 20 3 0
BITMAP
FFFF
FFFF
FFFF
F007
F007
F007
F007
F007
F007
F007
F007
F007
F007
F007
F007
F007
F007
F007
F007
F007
ENDCHAR
STARTCHAR 0440
ENCODING 1088
SWIDTH 565 0
DWIDTH 22 0
BBX 18 28 3 -7
BITMAP
03C000
FFF800
FFFC00
FFFE00
F01F00
F00F80
F00780
F003C0
F003C0
F003C0
F003C0
F003C0
F003C0
F003C0
F00380
F00780
F00780
F81F00
FFFF00
FFFE00
FFF800
F00000
F00000
F00000
F00000
F00000
F00000
F00000
ENDCHAR
STARTCHAR 0441
ENCODING 1089
SWIDTH 462 0
DWIDTH 18 0
BBX 15 21 2 0
BITMAP
01F0
07FE
1FFE
3FFC
3C00
7800
7800
F000
F000
F000
F000
F000
F000
F000
F000
7800
7C00
3E00
3FFE
1FFE
07FE
ENDCHAR
STARTCHAR 0442
ENCODING 1090
SWIDTH 462 0
DWIDTH 18 0
BBX 16 20 1 0
BITMAP
FFFF
FFFF
FFFF
03C0
03C0
03C0
03C0
03C0
03C0
03C0
03C0
03C0
03C0
03C0
03C0
03C0
03C0
03C0
03C0
03C0
ENDCHAR
STARTCHAR 0443
ENCODING 1091
SWIDTH 488 0
DWIDTH 19 0
BBX 18 27 0 -7
BITMAP
7801C0
7803C0
7803C0
3C03C0
3C0380
3C0780
1C0780
1E0780
1E0700
0F0F00
0F0F00
070E00
079E00
079E00
03DC00
03FC00
01FC00
01F800
00F800
00F000
007000
00E000
01E000
03C000
7FC000
FF8000
FE0000
ENDCHAR
STARTCHAR 0444
ENCODING 1092
SWIDTH 745 0
DWIDTH 29 0
BBX 26 37 2 -7
BITMAP
001E0000
001E0000
001E0000
001E0000
001E0000
001E0000
001E0000
001E0000
001E0000
001E0000
01FFE000
0FFFF800
1FFFFE00
3F1E3F00
7C1E0F00
781E0780
F01E0780
F01E03C0
F01E03C0
F01E03C0
F01E03C0
F01E03C0
F01E03C0
701E0780
781E0780
3C1E0F00
3F1E3E00
1FFFFC00
07FFF800
01FFE000
001E0000
001E0000
001E0000
001E0000
001E0000
001E0000
001E0000
ENDCHAR
STARTCHAR 0445
ENCODING 1093
SWIDTH 488 0
DWIDTH 19 0
BBX 18 20 1 0
BITMAP
F80780
780700
3C0F00
1E1E00
1E3C00
0F3C00
07F800
07F000
03E000
01E000
03F000
07F800
0F7800
0E3C00
1E1E00
3C1F00
380F00
780780
F00780
F003C0
ENDCHAR
STARTCHAR 0446
ENCODING 1094
SWIDTH 565 0
DWIDTH 22 0
BBX 19 26 3 -6
BITMAP
F00700
F00700
F00700
F00700
F00700
F00700
F00700
F00700
F00700
F00700
F00700
F00700
F00700
F00700
F00700
F00700
F00700
FFFFE0
FFFFE0
FFFFE0
0000E0
0000E0
0000E0
0000E0
0000E0
0000E0
ENDCHAR
STARTCHAR 0447
ENCODING 1095
SWIDTH 514 0
DWIDTH 20 0
BBX 16 20 2 0
BITMAP
E00F
E00F
E00F
E00F
E00F
E00F
E00F
F00F
F00F
7C1F
7FFF
3FFF
07CF
000F
000F
000F
000F
000F
000F
000F
ENDCHAR
STARTCHAR 0448
ENCODING 1096
SWIDTH 822 0
DWIDTH 32 0
BBX 26 20 3 0
BITMAP
F01E03C0
F01E03C0
F01E03C0
F01E03C0
F01E03C0
F01E03C0
F01E03C0
F01E03C0
F01E03C0
F01E03C0
F01E03C0
F01E03C0
F01E03C0
F01E03C0
F01E03C0
F01E03C0
F01E03C0
FFFFFFC0
FFFFFFC0
FFFFFFC0
ENDCHAR
STARTCHAR 0449
ENCODING 1097
SWIDTH 822 0
DWIDTH 32 0
BBX 29 26 3 -6
BITMAP
F01E03C0
F01E03C0
F01E03C0
F01E03C0
F01E03C0
F01E03C0
F01E03C0
F01E03C0
F01E03C0
F01E03C0
F01E03C0
F01E03C0
F01E03C0
F01E03C0
F01E03C0
F01E03C0
F01E03C0
FFFFFFF8
FFFFFFF8
FFFFFFF8
00000078
00000078
00000078
00000078
00000078
00000078
ENDCHAR
STARTCHAR 044A
ENCODING 1098
SWIDTH 591 0
DWIDTH 23 0
BBX 21 20 1 0
BITMAP
FF0000
FF0000
FF0000
070000
070000
070000
070000
077F00
07FFE0
07FFF0
0701F0
070078
070078
070078
070078
070078
0700F8
07FFF0
07FFE0
07FFC0
ENDCHAR
STARTCHAR 044B
ENCODING 1099
SWIDTH 745 0
DWIDTH 29 0
BBX 23 20 3 0
BITMAP
F0000E
F0000E
F0000E
F0000E
F0000E
F0000E
F0000E
FFE00E
FFFC0E
FFFE0E
F03E0E
F00F0E
F00F0E
F00F0E
F00F0E
F00F0E
F01F0E
FFFE0E
FFFC0E
FFF80E
ENDCHAR
STARTCHAR 044C
ENCODING 1100
SWIDTH 514 0
DWIDTH 20 0
BBX 16 20 3 0
BITMAP
F000
F000
F000
F000
F000
F000
F000
FFF0
FFFC
FFFE
F03F
F00F
F007
F007
F007
F00F
F01F
FFFE
FFFC
FFF8
ENDCHAR
STARTCHAR 044D
ENCODING 1101
SWIDTH 488 0
DWIDTH 19 0
BBX 16 21 1 0
BITMAP
0F80
7FF0
7FF8
7DFC
003E
001E
000F
000F
000F
0FFF
0FFF
0FFF
0007
000F
000F
000F
001E
003E
7FFC
FFF8
7FE0
ENDCHAR
STARTCHAR 044E
ENCODING 1102
SWIDTH 797 0
DWIDTH 31 0
BBX 27 22 3 -1
BITMAP
0001E000
F007FC00
F01FFE00
F03FBF00
F03C0F80
F0780780
F07803C0
F0F003C0
F0F001C0
FFF001C0
FFF001E0
FFF001E0
F0F001C0
F0F001C0
F07003C0
F07803C0
F0780780
F03E0F80
F01FFF00
F00FFE00
F007FC00
00004000
ENDCHAR
STARTCHAR 044F
ENCODING 1103
SWIDTH 540 0
DWIDTH 21 0
BBX 17 21 1 0
BITMAP
00FC00
07FF80
1FFF80
3F0380
3C0380
380380
780380
780380
380380
3C0380
3FFF80
1FFF80
07FF80
0F0380
0E0380
1E0380
3C0380
3C0380
780380
780380
F00380
ENDCHAR
STARTCHAR 0450
ENCODING 1104
SWIDTH 540 0
DWIDTH 21 0
BBX 18 30 2 0
BITMAP
020000
070000
078000
03C000
01E000
00F000
006000
000000
000000
01E000
07FC00
1FFE00
3F3F00
3C0F80
780780
700780
F00380
F003C0
FFFFC0
FFFFC0
FFFFC0
F00000
F00000
F00000
780000
780000
3E0100
3FFF00
1FFF00
07FF00
ENDCHAR
STARTCHAR 0451
ENCODING 1105
SWIDTH 540 0
DWIDTH 21 0
BBX 18 29 2 0
BITMAP
040800
1E1E00
1F1E00
1F1E00
0E1C00
000000
000000
000000
01E000
07FC00
1FFE00
3F3F00
3C0F80
780780
700780
F00380
F003C0
FFFFC0
FFFFC0
FFFFC0
F00000
F00000
F00000
780000
780000
3E0100
3FFF00
1FFF00
07FF00
ENDCHAR
STARTCHAR 0452
ENCODING 1106
SWIDTH 565 0
DWIDTH 22 0
BBX 19 37 0 -7
BITMAP
1E0000
1E0000
1E0000
FFFC00
FFFC00
FFFC00
1E0000
1E0000
1E0000
1E3000
1FFF00
1FFF80
1FFFC0
1E03E0
1E01E0
1E01E0
1E00E0
1E00E0
1E00E0
1E00E0
1E00E0
1E00E0
1E00E0
1E00E0
1E00E0
1E00E0
1E00E0
1E00E0
1E00E0
1E00E0
0000E0
0000E0
0000E0
0001E0
000FE0
001FC0
001F80
ENDCHAR
STARTCHAR 0453
ENCODING 1107
SWIDTH 411 0
DWIDTH 16 0
BBX 13 30 3 0
BITMAP
0040
00F0
00F0
01E0
03C0
0780
0300
0000
0000
0000
FFF8
FFF8
FFF8
F000
F000
F000
F000
F000
F000
F000
F000
F000
F000
F000
F000
F000
F000
F000
F000
F000
ENDCHAR
STARTCHAR 0454
ENCODING 1108
SWIDTH 488 0
DWIDTH 19 0
BBX 16 21 2 0
BITMAP
00F0
07FE
1FFE
3FDE
3C00
7800
7800
F000
F000
FFF0
FFF0
FFF0
F000
F000
F000
7800
7800
3E01
3FFF
1FFF
07FF
ENDCHAR
STARTCHAR 0455
ENCODING 1109
SWIDTH 437 0
DWIDTH 17 0
BBX 14 21 2 0
BITMAP
07C0
3FF8
7FF0
FC70
F000
F000
F000
F000
FC00
7F00
3FC0
0FF0
01F8
0078
003C
003C
003C
803C
FFF8
FFF0
FFE0
ENDCHAR
STARTCHAR 0456
ENCODING 1110
SWIDTH 231 0
DWIDTH 9 0
BBX 4 29 3 0
BITMAP
60
F0
F0
F0
F0
00
00
00
00
F0
F0
F0
F0
F0
F0
F0
F0
F0
F0
F0
F0
F0
F0
F0
F0
F0
F0
F0
F0
ENDCHAR
STARTCHAR 0457
ENCODING 1111
SWIDTH 231 0
DWIDTH 9 0
BBX 12 29 -1 0
BITMAP
2040
F0F0
F9F0
F0F0
70E0
0000
0000
0000
0000
0F00
0F00
0F00
0F00
0F00
0F00
0F00
0F00
0F00
0F00
0F00
0F00
0F00
0F00
0F00
0F00
0F00
0F00
0F00
0F00
ENDCHAR
STARTCHAR 0458
ENCODING 1112
SWIDTH 231 0
DWIDTH 9 0
BBX 10 36 -3 -7
BITMAP
0180
03C0
03C0
03C0
03C0
0000
0000
0000
0000
03C0
03C0
03C0
03C0
03C0
03C0
03C0
03C0
03C0
03C0
03C0
03C0
03C0
03C0
03C0
03C0
03C0
03C0
03C0
03C0
03C0
03C0
0380
0780
7F80
7F00
FE00
ENDCHAR
STARTCHAR 0459
ENCODING 1113
SWIDTH 848 0
DWIDTH 33 0
BBX 31 20 1 0
BITMAP
03FFE000
03FFE000
03FFE000
0380E000
0380E000
0380E000
0380E000
0780FFE0
0780FFF8
0780FFFC
0780E07E
0700E01E
0700E00E
0F00E00E
0F00E00E
1E00E01E
3E00E01E
FC00FFFC
F800FFFC
E000FFF0
ENDCHAR
STARTCHAR 045A
ENCODING 1114
SWIDTH 848 0
DWIDTH 33 0
BBX 29 20 3 0
BITMAP
F0078000
F0078000
F0078000
F0078000
F0078000
F0078000
F0078000
F007FF00
FFFFFFC0
FFFFFFF0
FFFF81F0
F00780F8
F0078078
F0078078
F0078078
F0078078
F00780F0
F007FFF0
F007FFE0
F007FFC0
ENDCHAR
STARTCHAR 045B
ENCODING 1115
SWIDTH 565 0
DWIDTH 22 0
BBX 19 30 0 0
BITMAP
1E0000
1E0000
1E0000
FFFC00
FFFC00
FFFC00
1E0000
1E0000
1E0000
1E0000
1FFF00
1FFF80
1FFFC0
1E03E0
1E01E0
1E01E0
1E00E0
1E00E0
1E00E0
1E00E0
1E00E0
1E00E0
1E00E0
1E00E0
1E00E0
1E00E0
1E00E0
1E00E0
1E00E0
1E00E0
ENDCHAR
STARTCHAR 045C
ENCODING 1116
SWIDTH 514 0
DWIDTH 20 0
BBX 17 30 3 0
BITMAP
002000
007000
00F000
01E000
01C000
038000
030000
000000
000000
000000
F00F00
F01E00
F03C00
F07800
F0F000
F1E000
F3C000
F78000
FF0000
FF0000
FF8000
F7C000
F3E000
F1F000
F07800
F07C00
F03E00
F01F00
F00F00
F00780
ENDCHAR
STARTCHAR 045D
ENCODING 1117
SWIDTH 591 0
DWIDTH 23 0
BBX 17 30 3 0
BITMAP
020000
070000
0F8000
078000
03C000
00E000
006000
000000
000000
000000
F00780
F00F80
F00F80
F01F80
F03F80
F07B80
F07380
F0E380
F1E380
F1C380
F38380
F78380
F70380
FE0380
FE0380
FC0380
F80380
F80380
F00380
F00380
ENDCHAR
STARTCHAR 045E
ENCODING 1118
SWIDTH 488 0
DWIDTH 19 0
BBX 18 36 0 -7
BITMAP
060600
0F0700
078E00
07FE00
03FC00
004000
000000
000000
000000
7801C0
7803C0
7803C0
3C03C0
3C0380
3C0780
1C0780
1E0780
1E0700
0F0F00
0F0F00
070E00
079E00
079E00
03DC00
03FC00
01FC00
01F800
00F800
00F000
007000
00E000
01E000
03C000
7FC000
FF8000
FE0000
ENDCHAR
STARTCHAR 045F
ENCODING 1119
SWIDTH 565 0
DWIDTH 22 0
BBX 16 26 3 -6
BITMAP
F007
F007
F007
F007
F007
F007
F007
F007
F007
F007
F007
F007
F007
F007
F007
F007
F007
FFFF
FFFF
FFFF
03C0
03C0
03C0
03C0
03C0
03C0
ENDCHAR
STARTCHAR 0462
ENCODING 1122
SWIDTH 720 0
DWIDTH 28 0
BBX 26 29 1 0
BITMAP
01C00000
01C00000
01C00000
FFFFC000
FFFFC000
FFFFC000
FFFFC000
01C00000
01C00000
01C00000
01C00000
01C00000
01FFC000
01FFFC00
01FFFE00
01C07F00
01C00F80
01C00780
01C007C0
01C003C0
01C003C0
01C003C0
01C003C0
01C00780
01C00F80
01C03F00
01FFFE00
01FFFC00
01FFF000
ENDCHAR
STARTCHAR 0463
ENCODING 1123
SWIDTH 591 0
DWIDTH 23 0
BBX 21 30 1 0
BITMAP
070000
070000
070000
070000
070000
070000
070000
070000
070000
070000
FFFE00
FFFE00
FFFE00
070000
070000
070000
070000
077F00
07FFE0
07FFF0
0701F0
070078
070078
070078
070078
070078
0700F8
07FFF0
07FFE0
07FFC0
ENDCHAR
STARTCHAR 0472
ENCODING 1138
SWIDTH 771 0
DWIDTH 30 0
BBX 26 29 2 -1
BITMAP
000C0000
00FFE000
03FFF000
07FFFC00
0F807E00
1F003E00
3E001F00
3C000F80
78000780
78000780
780007C0
F80003C0
F3F003C0
FFFC03C0
FFFF8FC0
FC0FFFC0
F803FFC0
F800E3C0
780007C0
78000780
78000780
3C000F80
3E001F00
1F003E00
0F807E00
07FFFC00
03FFF000
00FFE000
001C0000
ENDCHAR
STARTCHAR 0473
ENCODING 1139
SWIDTH 565 0
DWIDTH 22 0
BBX 19 22 2 -1
BITMAP
01F000
07FC00
1FFF00
3FBF80
3C0780
7803C0
7803C0
F001E0
F201E0
FFC1E0
FFFFE0
F8FFE0
F03FE0
F001E0
F001E0
7803C0
7803C0
3C0F80
1FFF00
0FFE00
07FC00
004000
ENDCHAR
STARTCHAR 0474
ENCODING 1140
SWIDTH 745 0
DWIDTH 29 0
BBX 29 27 1 0
BITMAP
F00007F0
F0000FF8
F0001FF0
78001E30
78001E00
78003C00
3C003C00
3C007800
3C007800
1E007000
1E00F000
0F00F000
0F00E000
0F01E000
0781E000
0783C000
0783C000
03C38000
03C78000
01E78000
01E70000
00EF0000
00FE0000
00FE0000
007E0000
007C0000
003C0000
ENDCHAR
STARTCHAR 0475
ENCODING 1141
SWIDTH 540 0
DWIDTH 21 0
BBX 21 21 1 0
BITMAP
0000F0
F001F8
F003F8
F007C8
780780
780700
780F00
380E00
3C0E00
3C1E00
1C1C00
1E1C00
1E3C00
0F3800
0F3800
077000
07F000
03F000
03E000
03E000
01E000
ENDCHAR
STARTCHAR 048A
ENCODING 1162
SWIDTH 720 0
DWIDTH 28 0
BBX 26 42 3 -7
BITMAP
03030000
07838000
03C70000
03FF0000
00FE0000
00000000
00000000
00000000
F0001C00
F0003C00
F0007C00
F000FC00
F001FC00
F003FC00
F003FC00
F007BC00
F00F3C00
F01E3C00
F03E3C00
F03C3C00
F0783C00
F0F03C00
F0F03C00
F1E03C00
F3C03C00
F3C03C00
F7803C00
FF003C00
FF003C00
FE003C00
FC003C00
FC003C00
F8003FC0
F0003F80
F0003F80
00000780
00000780
00000700
00000F00
00001E00
00003C00
00001C00
ENDCHAR
STARTCHAR 048B
ENCODING 1163
SWIDTH 591 0
DWIDTH 23 0
BBX 21 35 3 -6
BITMAP
0C0800
1C1C00
1E3C00
0FF800
07F000
000000
000000
000000
000000
F00780
F00F80
F00F80
F01F80
F03F80
F07B80
F07380
F0E380
F1E380
F1C380
F38380
F78380
F70380
FE0380
FE0380
FC0380
F80380
F803F8
F003F0
F003F0
000070
0000F0
0000E0
0001E0
0003C0
000180
ENDCHAR
ENDFONT
